Karla-ExtraLightItalic.ufo
<glyph name="exclam" format="2">
  <advance width="470"/>
  <unicode hex="0021"/>
  <outline>
    <contour>
      <point x="237" y="259" type="line"/>
      <point x="281" y="259" type="line"/>
      <point x="372" y="1174" type="line"/>
      <point x="316" y="1174" type="line"/>
    </contour>
    <contour>
      <point x="233" y="-18" type="curve" smooth="yes"/>
      <point x="265" y="-18"/>
      <point x="292" y="9"/>
      <point x="296" y="44" type="curve" smooth="yes"/>
      <point x="300" y="80"/>
      <point x="278" y="110"/>
      <point x="243" y="110" type="curve" smooth="yes"/>
      <point x="206" y="110"/>
      <point x="178" y="76"/>
      <point x="176" y="44" type="curve" smooth="yes"/>
      <point x="174" y="15"/>
      <point x="197" y="-18"/>
    </contour>
  </outline>
</glyph>
<glyph name="quotedbl" format="2">
  <advance width="398"/>
  <unicode hex="0022"/>
  <outline>
    <contour>
      <point x="169" y="1351" type="line"/>
      <point x="143" y="950" type="line"/>
      <point x="199" y="950" type="line"/>
      <point x="248" y="1351" type="line"/>
    </contour>
    <contour>
      <point x="406" y="1351" type="line"/>
      <point x="380" y="950" type="line"/>
      <point x="436" y="950" type="line"/>
      <point x="485" y="1351" type="line"/>
    </contour>
  </outline>
</glyph>
<glyph name="numbersign" format="2">
  <advance width="1028"/>
  <unicode hex="0023"/>
  <outline>
    <contour>
      <point x="261" y="58" type="line"/>
      <point x="319" y="58" type="line"/>
      <point x="373" y="353" type="line"/>
      <point x="684" y="353" type="line"/>
      <point x="629" y="58" type="line"/>
      <point x="692" y="58" type="line"/>
      <point x="746" y="353" type="line"/>
      <point x="945" y="353" type="line"/>
      <point x="954" y="411" type="line"/>
      <point x="757" y="411" type="line"/>
      <point x="834" y="811" type="line"/>
      <point x="1035" y="811" type="line"/>
      <point x="1040" y="862" type="line"/>
      <point x="843" y="862" type="line"/>
      <point x="897" y="1158" type="line"/>
      <point x="839" y="1158" type="line"/>
      <point x="785" y="862" type="line"/>
      <point x="474" y="862" type="line"/>
      <point x="528" y="1158" type="line"/>
      <point x="466" y="1158" type="line"/>
      <point x="412" y="862" type="line"/>
      <point x="212" y="862" type="line"/>
      <point x="203" y="811" type="line"/>
      <point x="403" y="811" type="line"/>
      <point x="326" y="411" type="line"/>
      <point x="131" y="411" type="line"/>
      <point x="117" y="353" type="line"/>
      <point x="315" y="353" type="line"/>
    </contour>
    <contour>
      <point x="388" y="411" type="line"/>
      <point x="465" y="811" type="line"/>
      <point x="776" y="811" type="line"/>
      <point x="699" y="411" type="line"/>
    </contour>
  </outline>
</glyph>
<glyph name="dollar" format="2">
  <advance width="1027"/>
  <unicode hex="0024"/>
  <outline>
    <contour>
      <point x="459" y="-160" type="line"/>
      <point x="530" y="-160" type="line"/>
      <point x="542" y="-13" type="line"/>
      <point x="771" y="2"/>
      <point x="904" y="155"/>
      <point x="922" y="313" type="curve" smooth="yes"/>
      <point x="938" y="485"/>
      <point x="838" y="583"/>
      <point x="695" y="632" type="curve" smooth="yes"/>
      <point x="607" y="660" type="line"/>
      <point x="652" y="1162" type="line"/>
      <point x="790" y="1153"/>
      <point x="864" y="1087"/>
      <point x="879" y="965" type="curve"/>
      <point x="943" y="965" type="line"/>
      <point x="937" y="1114"/>
      <point x="839" y="1217"/>
      <point x="661" y="1224" type="curve"/>
      <point x="673" y="1374" type="line"/>
      <point x="605" y="1374" type="line"/>
      <point x="593" y="1226" type="line"/>
      <point x="385" y="1210"/>
      <point x="269" y="1089"/>
      <point x="257" y="924" type="curve" smooth="yes"/>
      <point x="237" y="757"/>
      <point x="326" y="686"/>
      <point x="512" y="622" type="curve" smooth="yes"/>
      <point x="533" y="613" type="line"/>
      <point x="476" y="50" type="line"/>
      <point x="320" y="64"/>
      <point x="206" y="157"/>
      <point x="220" y="348" type="curve"/>
      <point x="162" y="348" type="line"/>
      <point x="145" y="132"/>
      <point x="285" y="0"/>
      <point x="471" y="-14" type="curve"/>
    </contour>
    <contour>
      <point x="547" y="50" type="curve"/>
      <point x="600" y="588" type="line"/>
      <point x="673" y="564" type="line" smooth="yes"/>
      <point x="794" y="522"/>
      <point x="861" y="441"/>
      <point x="853" y="314" type="curve" smooth="yes"/>
      <point x="837" y="189"/>
      <point x="727" y="66"/>
    </contour>
    <contour>
      <point x="541" y="686" type="line"/>
      <point x="489" y="699" type="line" smooth="yes"/>
      <point x="363" y="744"/>
      <point x="312" y="802"/>
      <point x="322" y="920" type="curve" smooth="yes"/>
      <point x="330" y="1046"/>
      <point x="428" y="1144"/>
      <point x="583" y="1156" type="curve"/>
    </contour>
  </outline>
</glyph>
<glyph name="percent" format="2">
  <advance width="1230"/>
  <unicode hex="0025"/>
  <outline>
    <contour>
      <point x="440" y="1232" type="curve" smooth="yes"/>
      <point x="325" y="1232"/>
      <point x="220" y="1132"/>
      <point x="202" y="959" type="curve" smooth="yes"/>
      <point x="186" y="789"/>
      <point x="275" y="693"/>
      <point x="389" y="693" type="curve" smooth="yes"/>
      <point x="500" y="693"/>
      <point x="611" y="789"/>
      <point x="627" y="959" type="curve" smooth="yes"/>
      <point x="643" y="1132"/>
      <point x="549" y="1232"/>
    </contour>
    <contour>
      <point x="435" y="1174" type="curve" smooth="yes"/>
      <point x="516" y="1174"/>
      <point x="573" y="1099"/>
      <point x="559" y="959" type="curve" smooth="yes"/>
      <point x="545" y="822"/>
      <point x="475" y="755"/>
      <point x="394" y="755" type="curve" smooth="yes"/>
      <point x="301" y="755"/>
      <point x="248" y="822"/>
      <point x="260" y="959" type="curve" smooth="yes"/>
      <point x="274" y="1099"/>
      <point x="341" y="1174"/>
    </contour>
    <contour>
      <point x="215" y="0" type="line"/>
      <point x="285" y="0" type="line"/>
      <point x="1128" y="1215" type="line"/>
      <point x="1052" y="1215" type="line"/>
    </contour>
    <contour>
      <point x="948" y="522" type="curve" smooth="yes"/>
      <point x="841" y="522"/>
      <point x="730" y="426"/>
      <point x="714" y="249" type="curve" smooth="yes"/>
      <point x="698" y="80"/>
      <point x="788" y="-15"/>
      <point x="895" y="-15" type="curve" smooth="yes"/>
      <point x="1010" y="-15"/>
      <point x="1121" y="80"/>
      <point x="1137" y="249" type="curve" smooth="yes"/>
      <point x="1155" y="426"/>
      <point x="1062" y="522"/>
    </contour>
    <contour>
      <point x="945" y="463" type="curve" smooth="yes"/>
      <point x="1030" y="463"/>
      <point x="1085" y="390"/>
      <point x="1069" y="249" type="curve" smooth="yes"/>
      <point x="1059" y="112"/>
      <point x="992" y="45"/>
      <point x="904" y="45" type="curve" smooth="yes"/>
      <point x="815" y="45"/>
      <point x="760" y="112"/>
      <point x="770" y="249" type="curve" smooth="yes"/>
      <point x="788" y="390"/>
      <point x="855" y="463"/>
    </contour>
  </outline>
</glyph>
<glyph name="ampersand" format="2">
  <advance width="1552"/>
  <unicode hex="0026"/>
  <outline>
    <contour>
      <point x="556" y="-15" type="curve" smooth="yes"/>
      <point x="729" y="-15"/>
      <point x="873" y="59"/>
      <point x="993" y="182" type="curve"/>
      <point x="1150" y="41"/>
      <point x="1154" y="-15"/>
      <point x="1275" y="-15" type="curve" smooth="yes"/>
      <point x="1396" y="-15"/>
      <point x="1473" y="64"/>
      <point x="1503" y="228" type="curve"/>
      <point x="1432" y="228" type="line"/>
      <point x="1410" y="95"/>
      <point x="1345" y="47"/>
      <point x="1285" y="47" type="curve" smooth="yes"/>
      <point x="1225" y="47"/>
      <point x="1197" y="64"/>
      <point x="1151" y="115" type="curve" smooth="yes"/>
      <point x="1035" y="236" type="line"/>
      <point x="1144" y="363"/>
      <point x="1228" y="532"/>
      <point x="1294" y="713" type="curve"/>
      <point x="1246" y="743" type="line"/>
      <point x="1177" y="567"/>
      <point x="1097" y="402"/>
      <point x="992" y="277" type="curve"/>
      <point x="674" y="609" type="line"/>
      <point x="905" y="724"/>
      <point x="990" y="829"/>
      <point x="1001" y="962" type="curve" smooth="yes"/>
      <point x="1015" y="1117"/>
      <point x="906" y="1232"/>
      <point x="750" y="1232" type="curve" smooth="yes"/>
      <point x="569" y="1232"/>
      <point x="433" y="1122"/>
      <point x="417" y="962" type="curve" smooth="yes"/>
      <point x="407" y="850"/>
      <point x="445" y="752"/>
      <point x="540" y="660" type="curve" smooth="yes"/>
      <point x="562" y="638" type="line"/>
      <point x="325" y="596"/>
      <point x="203" y="504"/>
      <point x="183" y="324" type="curve" smooth="yes"/>
      <point x="165" y="136"/>
      <point x="311" y="-15"/>
    </contour>
    <contour>
      <point x="566" y="44" type="curve" smooth="yes"/>
      <point x="341" y="44"/>
      <point x="236" y="170"/>
      <point x="252" y="321" type="curve" smooth="yes"/>
      <point x="267" y="476"/>
      <point x="385" y="561"/>
      <point x="610" y="589" type="curve"/>
      <point x="953" y="224" type="line"/>
      <point x="842" y="110"/>
      <point x="714" y="44"/>
    </contour>
    <contour>
      <point x="635" y="645" type="curve"/>
      <point x="580" y="704" type="line" smooth="yes"/>
      <point x="503" y="789"/>
      <point x="481" y="866"/>
      <point x="489" y="949" type="curve" smooth="yes"/>
      <point x="497" y="1067"/>
      <point x="586" y="1174"/>
      <point x="744" y="1174" type="curve" smooth="yes"/>
      <point x="868" y="1174"/>
      <point x="947" y="1087"/>
      <point x="936" y="974" type="curve" smooth="yes"/>
      <point x="924" y="867"/>
      <point x="883" y="772"/>
    </contour>
  </outline>
</glyph>
<glyph name="quotesingle" format="2">
  <advance width="157"/>
  <unicode hex="0027"/>
  <outline>
    <contour>
      <point x="121" y="953" type="line"/>
      <point x="177" y="953" type="line"/>
      <point x="226" y="1354" type="line"/>
      <point x="147" y="1354" type="line"/>
    </contour>
  </outline>
</glyph>
<glyph name="parenleft" format="2">
  <advance width="553"/>
  <unicode hex="0028"/>
  <outline>
    <contour>
      <point x="596" y="1400" type="line"/>
      <point x="368" y="1177"/>
      <point x="214" y="879"/>
      <point x="186" y="590" type="curve" smooth="yes"/>
      <point x="160" y="304"/>
      <point x="258" y="1"/>
      <point x="446" y="-215" type="curve"/>
      <point x="496" y="-187" type="line"/>
      <point x="312" y="34"/>
      <point x="232" y="322"/>
      <point x="256" y="590" type="curve" smooth="yes"/>
      <point x="282" y="860"/>
      <point x="418" y="1144"/>
      <point x="644" y="1363" type="curve"/>
    </contour>
  </outline>
</glyph>
<glyph name="parenright" format="2">
  <advance width="553"/>
  <unicode hex="0029"/>
  <outline>
    <contour>
      <point x="71" y="-215" type="line"/>
      <point x="297" y="1"/>
      <point x="451" y="304"/>
      <point x="477" y="590" type="curve" smooth="yes"/>
      <point x="507" y="879"/>
      <point x="411" y="1177"/>
      <point x="221" y="1400" type="curve"/>
      <point x="171" y="1363" type="line"/>
      <point x="355" y="1144"/>
      <point x="433" y="860"/>
      <point x="411" y="590" type="curve"/>
      <point x="383" y="322"/>
      <point x="247" y="34"/>
      <point x="25" y="-187" type="curve"/>
    </contour>
  </outline>
</glyph>
<glyph name="asterisk" format="2">
  <advance width="749"/>
  <unicode hex="002A"/>
  <outline>
    <contour>
      <point x="291" y="759" type="line"/>
      <point x="464" y="973" type="line"/>
      <point x="599" y="759" type="line"/>
      <point x="654" y="811" type="line"/>
      <point x="504" y="1004" type="line"/>
      <point x="733" y="1090" type="line"/>
      <point x="712" y="1161" type="line"/>
      <point x="494" y="1049" type="line"/>
      <point x="534" y="1325" type="line"/>
      <point x="457" y="1325" type="line"/>
      <point x="449" y="1049" type="line"/>
      <point x="258" y="1166" type="line"/>
      <point x="217" y="1092" type="line"/>
      <point x="430" y="1006" type="line"/>
      <point x="239" y="811" type="line"/>
    </contour>
  </outline>
</glyph>
<glyph name="plus" format="2">
  <advance width="913"/>
  <unicode hex="002B"/>
  <outline>
    <contour>
      <point x="514" y="982" type="line"/>
      <point x="473" y="519" type="line"/>
      <point x="80" y="519" type="line"/>
      <point x="76" y="463" type="line"/>
      <point x="466" y="463" type="line"/>
      <point x="426" y="0" type="line"/>
      <point x="492" y="0" type="line"/>
      <point x="532" y="463" type="line"/>
      <point x="928" y="463" type="line"/>
      <point x="931" y="519" type="line"/>
      <point x="539" y="519" type="line"/>
      <point x="584" y="982" type="line"/>
    </contour>
  </outline>
</glyph>
<glyph name="comma" format="2">
  <advance width="293"/>
  <unicode hex="002C"/>
  <outline>
    <contour>
      <point x="99" y="-159" type="line"/>
      <point x="193" y="-111"/>
      <point x="223" y="-35"/>
      <point x="226" y="16" type="curve" smooth="yes"/>
      <point x="229" y="72"/>
      <point x="203" y="109"/>
      <point x="163" y="109" type="curve" smooth="yes"/>
      <point x="129" y="109"/>
      <point x="107" y="84"/>
      <point x="102" y="53" type="curve" smooth="yes"/>
      <point x="95" y="12"/>
      <point x="123" y="-13"/>
      <point x="168" y="-10" type="curve"/>
      <point x="151" y="-67"/>
      <point x="112" y="-107"/>
      <point x="51" y="-134" type="curve"/>
    </contour>
  </outline>
</glyph>
<glyph name="hyphen" format="2">
  <advance width="580"/>
  <unicode hex="002D"/>
  <outline>
    <contour>
      <point x="101" y="529" type="line"/>
      <point x="573" y="529" type="line"/>
      <point x="581" y="589" type="line"/>
      <point x="108" y="589" type="line"/>
    </contour>
  </outline>
</glyph>
<glyph name="period" format="2">
  <advance width="253"/>
  <unicode hex="002E"/>
  <outline>
    <contour>
      <point x="121" y="-18" type="curve" smooth="yes"/>
      <point x="158" y="-18"/>
      <point x="184" y="17"/>
      <point x="188" y="48" type="curve" smooth="yes"/>
      <point x="193" y="85"/>
      <point x="169" y="110"/>
      <point x="136" y="110" type="curve" smooth="yes"/>
      <point x="100" y="110"/>
      <point x="74" y="82"/>
      <point x="70" y="48" type="curve" smooth="yes"/>
      <point x="66" y="15"/>
      <point x="85" y="-18"/>
    </contour>
  </outline>
</glyph>
<glyph name="slash" format="2">
  <advance width="700"/>
  <unicode hex="002F"/>
  <outline>
    <contour>
      <point x="97" y="-129" type="line"/>
      <point x="158" y="-129" type="line"/>
      <point x="749" y="1432" type="line"/>
      <point x="685" y="1432" type="line"/>
    </contour>
  </outline>
</glyph>
<glyph name="zero" format="2">
  <advance width="994"/>
  <unicode hex="0030"/>
  <outline>
    <contour>
      <point x="491" y="-15" type="curve" smooth="yes"/>
      <point x="739" y="-15"/>
      <point x="918" y="196"/>
      <point x="953" y="610" type="curve" smooth="yes"/>
      <point x="989" y="1018"/>
      <point x="859" y="1232"/>
      <point x="615" y="1232" type="curve" smooth="yes"/>
      <point x="368" y="1232"/>
      <point x="192" y="1018"/>
      <point x="159" y="610" type="curve"/>
      <point x="119" y="196"/>
      <point x="249" y="-15"/>
    </contour>
    <contour>
      <point x="503" y="48" type="curve" smooth="yes"/>
      <point x="285" y="48"/>
      <point x="190" y="252"/>
      <point x="224" y="610" type="curve" smooth="yes"/>
      <point x="263" y="963"/>
      <point x="389" y="1164"/>
      <point x="603" y="1164" type="curve" smooth="yes"/>
      <point x="829" y="1164"/>
      <point x="920" y="963"/>
      <point x="883" y="610" type="curve" smooth="yes"/>
      <point x="847" y="252"/>
      <point x="725" y="48"/>
    </contour>
  </outline>
</glyph>
<glyph name="one" format="2">
  <advance width="546"/>
  <unicode hex="0031"/>
  <outline>
    <contour>
      <point x="398" y="1214" type="line"/>
      <point x="346" y="1157"/>
      <point x="274" y="1124"/>
      <point x="205" y="1117" type="curve"/>
      <point x="197" y="1037" type="line"/>
      <point x="257" y="1045"/>
      <point x="334" y="1078"/>
      <point x="394" y="1128" type="curve"/>
      <point x="289" y="0" type="line"/>
      <point x="349" y="0" type="line"/>
      <point x="463" y="1214" type="line"/>
    </contour>
  </outline>
</glyph>
<glyph name="two" format="2">
  <advance width="996"/>
  <unicode hex="0032"/>
  <outline>
    <contour>
      <point x="202" y="154" type="line"/>
      <point x="217" y="294"/>
      <point x="298" y="380"/>
      <point x="442" y="445" type="curve" smooth="yes"/>
      <point x="663" y="545" type="line" smooth="yes"/>
      <point x="795" y="600"/>
      <point x="910" y="705"/>
      <point x="932" y="897" type="curve" smooth="yes"/>
      <point x="947" y="1083"/>
      <point x="826" y="1232"/>
      <point x="623" y="1232" type="curve" smooth="yes"/>
      <point x="398" y="1232"/>
      <point x="269" y="1119"/>
      <point x="235" y="953" type="curve"/>
      <point x="304" y="953" type="line"/>
      <point x="330" y="1094"/>
      <point x="449" y="1164"/>
      <point x="615" y="1164" type="curve" smooth="yes"/>
      <point x="779" y="1164"/>
      <point x="877" y="1061"/>
      <point x="858" y="902" type="curve"/>
      <point x="846" y="757"/>
      <point x="765" y="666"/>
      <point x="636" y="611" type="curve" smooth="yes"/>
      <point x="424" y="513" type="line" smooth="yes"/>
      <point x="279" y="450"/>
      <point x="154" y="365"/>
      <point x="136" y="147" type="curve" smooth="yes"/>
      <point x="125" y="0" type="line"/>
      <point x="834" y="0" type="line"/>
      <point x="837" y="70" type="line"/>
      <point x="194" y="70" type="line"/>
    </contour>
  </outline>
</glyph>
<glyph name="three" format="2">
  <advance width="1003"/>
  <unicode hex="0033"/>
  <outline>
    <contour>
      <point x="502" y="-15" type="curve" smooth="yes"/>
      <point x="738" y="-15"/>
      <point x="877" y="121"/>
      <point x="899" y="326" type="curve"/>
      <point x="913" y="495"/>
      <point x="821" y="597"/>
      <point x="681" y="634" type="curve"/>
      <point x="817" y="686"/>
      <point x="897" y="776"/>
      <point x="913" y="908" type="curve"/>
      <point x="929" y="1090"/>
      <point x="793" y="1232"/>
      <point x="601" y="1232" type="curve" smooth="yes"/>
      <point x="440" y="1232"/>
      <point x="292" y="1160"/>
      <point x="242" y="961" type="curve"/>
      <point x="308" y="961" type="line"/>
      <point x="356" y="1120"/>
      <point x="467" y="1164"/>
      <point x="589" y="1164" type="curve" smooth="yes"/>
      <point x="758" y="1164"/>
      <point x="854" y="1051"/>
      <point x="838" y="905" type="curve" smooth="yes"/>
      <point x="823" y="751"/>
      <point x="679" y="656"/>
      <point x="468" y="656" type="curve" smooth="yes"/>
      <point x="430" y="656" type="line"/>
      <point x="420" y="595" type="line"/>
      <point x="522" y="595" type="line" smooth="yes"/>
      <point x="763" y="595"/>
      <point x="844" y="473"/>
      <point x="830" y="328" type="curve" smooth="yes"/>
      <point x="814" y="172"/>
      <point x="697" y="48"/>
      <point x="513" y="48" type="curve" smooth="yes"/>
      <point x="330" y="48"/>
      <point x="184" y="151"/>
      <point x="206" y="362" type="curve"/>
      <point x="145" y="362" type="line"/>
      <point x="119" y="114"/>
      <point x="293" y="-15"/>
    </contour>
  </outline>
</glyph>
<glyph name="four" format="2">
  <advance width="937"/>
  <unicode hex="0034"/>
  <outline>
    <contour>
      <point x="632" y="0" type="line"/>
      <point x="692" y="0" type="line"/>
      <point x="720" y="321" type="line"/>
      <point x="909" y="321" type="line"/>
      <point x="919" y="386" type="line"/>
      <point x="729" y="386" type="line"/>
      <point x="810" y="1237" type="line"/>
      <point x="760" y="1237" type="line"/>
      <point x="90" y="383" type="line"/>
      <point x="83" y="321" type="line"/>
      <point x="658" y="321" type="line"/>
    </contour>
    <contour>
      <point x="171" y="383" type="line"/>
      <point x="728" y="1095" type="line"/>
      <point x="661" y="383" type="line"/>
    </contour>
  </outline>
</glyph>
<glyph name="five" format="2">
  <advance width="981"/>
  <unicode hex="0035"/>
  <outline>
    <contour>
      <point x="480" y="-15" type="curve" smooth="yes"/>
      <point x="710" y="-15"/>
      <point x="861" y="149"/>
      <point x="887" y="382" type="curve" smooth="yes"/>
      <point x="907" y="616"/>
      <point x="771" y="729"/>
      <point x="518" y="729" type="curve" smooth="yes"/>
      <point x="466" y="729"/>
      <point x="403" y="721"/>
      <point x="347" y="711" type="curve"/>
      <point x="426" y="1149" type="line"/>
      <point x="912" y="1149" type="line"/>
      <point x="919" y="1215" type="line"/>
      <point x="369" y="1215" type="line"/>
      <point x="270" y="663" type="line"/>
      <point x="518" y="663" type="line" smooth="yes"/>
      <point x="723" y="663"/>
      <point x="831" y="566"/>
      <point x="815" y="382" type="curve" smooth="yes"/>
      <point x="797" y="190"/>
      <point x="678" y="48"/>
      <point x="487" y="48" type="curve" smooth="yes"/>
      <point x="328" y="48"/>
      <point x="206" y="141"/>
      <point x="223" y="309" type="curve"/>
      <point x="163" y="309" type="line"/>
      <point x="139" y="93"/>
      <point x="307" y="-15"/>
    </contour>
  </outline>
</glyph>
<glyph name="seven" format="2">
  <advance width="792"/>
  <unicode hex="0037"/>
  <outline>
    <contour>
      <point x="130" y="0" type="line"/>
      <point x="220" y="0" type="line"/>
      <point x="868" y="1155" type="line"/>
      <point x="873" y="1215" type="line"/>
      <point x="158" y="1215" type="line"/>
      <point x="152" y="1145" type="line"/>
      <point x="793" y="1145" type="line"/>
    </contour>
  </outline>
</glyph>
<glyph name="eight" format="2">
  <advance width="1043"/>
  <unicode hex="0038"/>
  <outline>
    <contour>
      <point x="515" y="-15" type="curve" smooth="yes"/>
      <point x="775" y="-15"/>
      <point x="942" y="99"/>
      <point x="962" y="281" type="curve" smooth="yes"/>
      <point x="978" y="433"/>
      <point x="898" y="517"/>
      <point x="747" y="582" type="curve" smooth="yes"/>
      <point x="693" y="603" type="line"/>
      <point x="866" y="629"/>
      <point x="962" y="764"/>
      <point x="974" y="906" type="curve" smooth="yes"/>
      <point x="994" y="1089"/>
      <point x="858" y="1232"/>
      <point x="639" y="1232" type="curve" smooth="yes"/>
      <point x="401" y="1232"/>
      <point x="244" y="1088"/>
      <point x="231" y="920" type="curve" smooth="yes"/>
      <point x="212" y="769"/>
      <point x="327" y="679"/>
      <point x="420" y="634" type="curve"/>
      <point x="264" y="603"/>
      <point x="153" y="487"/>
      <point x="141" y="321" type="curve" smooth="yes"/>
      <point x="121" y="126"/>
      <point x="286" y="-15"/>
    </contour>
    <contour>
      <point x="527" y="48" type="curve" smooth="yes"/>
      <point x="329" y="48"/>
      <point x="190" y="145"/>
      <point x="209" y="324" type="curve" smooth="yes"/>
      <point x="221" y="451"/>
      <point x="333" y="573"/>
      <point x="498" y="602" type="curve"/>
      <point x="711" y="511" type="line"/>
      <point x="827" y="465"/>
      <point x="905" y="394"/>
      <point x="892" y="286" type="curve" smooth="yes"/>
      <point x="880" y="144"/>
      <point x="730" y="48"/>
    </contour>
    <contour>
      <point x="601" y="643" type="curve"/>
      <point x="477" y="697" type="line" smooth="yes"/>
      <point x="364" y="748"/>
      <point x="297" y="802"/>
      <point x="305" y="918" type="curve" smooth="yes"/>
      <point x="323" y="1050"/>
      <point x="454" y="1164"/>
      <point x="628" y="1164" type="curve" smooth="yes"/>
      <point x="811" y="1164"/>
      <point x="925" y="1055"/>
      <point x="908" y="907" type="curve" smooth="yes"/>
      <point x="892" y="755"/>
      <point x="767" y="649"/>
    </contour>
  </outline>
</glyph>
<glyph name="nine" format="2">
  <advance width="990"/>
  <unicode hex="0039"/>
  <outline>
    <contour>
      <point x="484" y="-15" type="curve" smooth="yes"/>
      <point x="764" y="-15"/>
      <point x="911" y="227"/>
      <point x="949" y="632" type="curve" smooth="yes"/>
      <point x="985" y="1004"/>
      <point x="841" y="1232"/>
      <point x="602" y="1232" type="curve" smooth="yes"/>
      <point x="400" y="1232"/>
      <point x="246" y="1089"/>
      <point x="226" y="874" type="curve" smooth="yes"/>
      <point x="204" y="655"/>
      <point x="346" y="498"/>
      <point x="537" y="498" type="curve" smooth="yes"/>
      <point x="718" y="498"/>
      <point x="852" y="626"/>
      <point x="883" y="837" type="curve"/>
      <point x="885" y="770"/>
      <point x="883" y="722"/>
      <point x="879" y="657" type="curve" smooth="yes"/>
      <point x="840" y="284"/>
      <point x="719" y="48"/>
      <point x="490" y="48" type="curve" smooth="yes"/>
      <point x="315" y="48"/>
      <point x="229" y="172"/>
      <point x="245" y="359" type="curve"/>
      <point x="173" y="359" type="line"/>
      <point x="153" y="148"/>
      <point x="273" y="-15"/>
    </contour>
    <contour>
      <point x="542" y="575" type="curve" smooth="yes"/>
      <point x="378" y="575"/>
      <point x="278" y="689"/>
      <point x="296" y="869" type="curve" smooth="yes"/>
      <point x="312" y="1053"/>
      <point x="435" y="1162"/>
      <point x="595" y="1162" type="curve" smooth="yes"/>
      <point x="757" y="1162"/>
      <point x="856" y="1053"/>
      <point x="839" y="869" type="curve" smooth="yes"/>
      <point x="827" y="709"/>
      <point x="700" y="575"/>
    </contour>
  </outline>
</glyph>
<glyph name="colon" format="2">
  <advance width="340"/>
  <unicode hex="003A"/>
  <outline>
    <contour>
      <point x="234" y="723" type="curve" smooth="yes"/>
      <point x="268" y="723"/>
      <point x="293" y="757"/>
      <point x="297" y="785" type="curve" smooth="yes"/>
      <point x="302" y="819"/>
      <point x="281" y="851"/>
      <point x="243" y="851" type="curve" smooth="yes"/>
      <point x="199" y="851"/>
      <point x="181" y="807"/>
      <point x="179" y="785" type="curve" smooth="yes"/>
      <point x="176" y="748"/>
      <point x="205" y="723"/>
    </contour>
    <contour>
      <point x="178" y="79" type="curve" smooth="yes"/>
      <point x="211" y="79"/>
      <point x="237" y="111"/>
      <point x="241" y="141" type="curve" smooth="yes"/>
      <point x="245" y="174"/>
      <point x="226" y="207"/>
      <point x="187" y="207" type="curve" smooth="yes"/>
      <point x="143" y="207"/>
      <point x="125" y="163"/>
      <point x="123" y="141" type="curve" smooth="yes"/>
      <point x="120" y="107"/>
      <point x="146" y="79"/>
    </contour>
  </outline>
</glyph>
<glyph name="semicolon" format="2">
  <advance width="383"/>
  <unicode hex="003B"/>
  <outline>
    <contour>
      <point x="140" y="-159" type="line"/>
      <point x="229" y="-115"/>
      <point x="264" y="-38"/>
      <point x="269" y="16" type="curve" smooth="yes"/>
      <point x="274" y="73"/>
      <point x="246" y="109"/>
      <point x="205" y="109" type="curve" smooth="yes"/>
      <point x="171" y="109"/>
      <point x="147" y="83"/>
      <point x="144" y="53" type="curve" smooth="yes"/>
      <point x="140" y="18"/>
      <point x="164" y="-14"/>
      <point x="210" y="-10" type="curve"/>
      <point x="192" y="-67"/>
      <point x="154" y="-107"/>
      <point x="93" y="-134" type="curve"/>
    </contour>
    <contour>
      <point x="265" y="710" type="curve" smooth="yes"/>
      <point x="298" y="710"/>
      <point x="324" y="743"/>
      <point x="328" y="772" type="curve" smooth="yes"/>
      <point x="333" y="805"/>
      <point x="312" y="838"/>
      <point x="273" y="838" type="curve" smooth="yes"/>
      <point x="231" y="838"/>
      <point x="211" y="798"/>
      <point x="210" y="772" type="curve" smooth="yes"/>
      <point x="209" y="739"/>
      <point x="234" y="710"/>
    </contour>
  </outline>
</glyph>
<glyph name="less" format="2">
  <advance width="725"/>
  <unicode hex="003C"/>
  <outline>
    <contour>
      <point x="694" y="1046" type="line"/>
      <point x="114" y="602" type="line"/>
      <point x="111" y="546" type="line"/>
      <point x="607" y="106" type="line"/>
      <point x="652" y="165" type="line"/>
      <point x="176" y="573" type="line"/>
      <point x="730" y="991" type="line"/>
    </contour>
  </outline>
</glyph>
<glyph name="equal" format="2">
  <advance width="843"/>
  <unicode hex="003D"/>
  <outline>
    <contour>
      <point x="174" y="342" type="line"/>
      <point x="171" y="282" type="line"/>
      <point x="730" y="282" type="line"/>
      <point x="733" y="342" type="line"/>
    </contour>
    <contour>
      <point x="205" y="687" type="line"/>
      <point x="200" y="620" type="line"/>
      <point x="759" y="620" type="line"/>
      <point x="765" y="687" type="line"/>
    </contour>
  </outline>
</glyph>
<glyph name="greater" format="2">
  <advance width="725"/>
  <unicode hex="003E"/>
  <outline>
    <contour>
      <point x="141" y="106" type="line"/>
      <point x="713" y="546" type="line"/>
      <point x="717" y="602" type="line"/>
      <point x="228" y="1046" type="line"/>
      <point x="180" y="991" type="line"/>
      <point x="647" y="573" type="line"/>
      <point x="102" y="165" type="line"/>
    </contour>
  </outline>
</glyph>
<glyph name="question" format="2">
  <advance width="863"/>
  <unicode hex="003F"/>
  <outline>
    <contour>
      <point x="346" y="250" type="line"/>
      <point x="405" y="250" type="line"/>
      <point x="418" y="350" type="line" smooth="yes"/>
      <point x="440" y="520"/>
      <point x="476" y="547"/>
      <point x="607" y="629" type="curve" smooth="yes"/>
      <point x="703" y="689"/>
      <point x="829" y="768"/>
      <point x="841" y="937" type="curve" smooth="yes"/>
      <point x="853" y="1098"/>
      <point x="752" y="1232"/>
      <point x="530" y="1232" type="curve" smooth="yes"/>
      <point x="328" y="1232"/>
      <point x="188" y="1120"/>
      <point x="157" y="965" type="curve"/>
      <point x="235" y="965" type="line"/>
      <point x="274" y="1086"/>
      <point x="357" y="1164"/>
      <point x="523" y="1164" type="curve" smooth="yes"/>
      <point x="689" y="1164"/>
      <point x="780" y="1087"/>
      <point x="774" y="943" type="curve" smooth="yes"/>
      <point x="768" y="817"/>
      <point x="695" y="767"/>
      <point x="566" y="680" type="curve" smooth="yes"/>
      <point x="420" y="582"/>
      <point x="368" y="530"/>
      <point x="354" y="351" type="curve" smooth="yes"/>
    </contour>
    <contour>
      <point x="350" y="-15" type="curve" smooth="yes"/>
      <point x="388" y="-15"/>
      <point x="414" y="11"/>
      <point x="418" y="47" type="curve" smooth="yes"/>
      <point x="421" y="76"/>
      <point x="409" y="111"/>
      <point x="365" y="111" type="curve" smooth="yes"/>
      <point x="326" y="111"/>
      <point x="303" y="83"/>
      <point x="299" y="48" type="curve" smooth="yes"/>
      <point x="295" y="15"/>
      <point x="310" y="-15"/>
    </contour>
  </outline>
</glyph>
<glyph name="at" format="2">
  <advance width="1523"/>
  <unicode hex="0040"/>
  <outline>
    <contour>
      <point x="903" y="-282" type="curve"/>
      <point x="912" y="-225" type="line"/>
      <point x="462" y="-225"/>
      <point x="194" y="47"/>
      <point x="239" y="475" type="curve" smooth="yes"/>
      <point x="272" y="837"/>
      <point x="545" y="1166"/>
      <point x="933" y="1166" type="curve" smooth="yes"/>
      <point x="1260" y="1166"/>
      <point x="1459" y="928"/>
      <point x="1433" y="599" type="curve"/>
      <point x="1401" y="331"/>
      <point x="1245" y="148"/>
      <point x="1123" y="148" type="curve" smooth="yes"/>
      <point x="1068" y="148"/>
      <point x="1048" y="180"/>
      <point x="1052" y="250" type="curve" smooth="yes"/>
      <point x="1086" y="600" type="line" smooth="yes"/>
      <point x="1102" y="774"/>
      <point x="1031" y="859"/>
      <point x="909" y="859" type="curve" smooth="yes"/>
      <point x="718" y="859"/>
      <point x="530" y="677"/>
      <point x="504" y="422" type="curve" smooth="yes"/>
      <point x="486" y="222"/>
      <point x="601" y="104"/>
      <point x="741" y="104" type="curve" smooth="yes"/>
      <point x="861" y="104"/>
      <point x="941" y="182"/>
      <point x="989" y="282" type="curve"/>
      <point x="991" y="250" type="line"/>
      <point x="981" y="154"/>
      <point x="1031" y="104"/>
      <point x="1122" y="104" type="curve" smooth="yes"/>
      <point x="1296" y="104"/>
      <point x="1476" y="310"/>
      <point x="1505" y="599" type="curve" smooth="yes"/>
      <point x="1537" y="944"/>
      <point x="1309" y="1232"/>
      <point x="940" y="1232" type="curve" smooth="yes"/>
      <point x="522" y="1232"/>
      <point x="202" y="902"/>
      <point x="164" y="478" type="curve" smooth="yes"/>
      <point x="122" y="25"/>
      <point x="415" y="-282"/>
    </contour>
    <contour>
      <point x="751" y="158" type="curve" smooth="yes"/>
      <point x="633" y="158"/>
      <point x="552" y="257"/>
      <point x="575" y="421" type="curve"/>
      <point x="593" y="655"/>
      <point x="774" y="798"/>
      <point x="905" y="798" type="curve" smooth="yes"/>
      <point x="1000" y="798"/>
      <point x="1039" y="746"/>
      <point x="1023" y="598" type="curve"/>
      <point x="1007" y="373" type="line"/>
      <point x="928" y="235"/>
      <point x="857" y="158"/>
    </contour>
  </outline>
</glyph>
<glyph name="A" format="2">
  <advance width="934"/>
  <unicode hex="0041"/>
  <anchor x="401" y="0" name="bottom"/>
  <anchor x="859" y="25" name="ogonek"/>
  <anchor x="572" y="1215" name="top"/>
  <outline>
    <contour>
      <point x="53" y="0" type="line"/>
      <point x="122" y="0" type="line"/>
      <point x="270" y="363" type="line"/>
      <point x="739" y="363" type="line"/>
      <point x="816" y="0" type="line"/>
      <point x="879" y="0" type="line"/>
      <point x="622" y="1215" type="line"/>
      <point x="547" y="1215" type="line"/>
    </contour>
    <contour>
      <point x="294" y="429" type="line"/>
      <point x="574" y="1118" type="line"/>
      <point x="722" y="429" type="line"/>
    </contour>
  </outline>
</glyph>
<glyph name="B" format="2">
  <advance width="1070"/>
  <unicode hex="0042"/>
  <anchor x="469" y="0" name="bottom"/>
  <anchor x="640" y="1215" name="top"/>
  <outline>
    <contour>
      <point x="197" y="0" type="line"/>
      <point x="569" y="0" type="line" smooth="yes"/>
      <point x="828" y="0"/>
      <point x="940" y="146"/>
      <point x="959" y="327" type="curve" smooth="yes"/>
      <point x="966" y="443"/>
      <point x="887" y="588"/>
      <point x="742" y="606" type="curve"/>
      <point x="899" y="640"/>
      <point x="978" y="762"/>
      <point x="988" y="900" type="curve"/>
      <point x="1006" y="1065"/>
      <point x="911" y="1215"/>
      <point x="683" y="1215" type="curve" smooth="yes"/>
      <point x="311" y="1215" type="line"/>
    </contour>
    <contour>
      <point x="269" y="64" type="line"/>
      <point x="317" y="577" type="line"/>
      <point x="623" y="577" type="line" smooth="yes"/>
      <point x="805" y="577"/>
      <point x="907" y="476"/>
      <point x="889" y="324" type="curve" smooth="yes"/>
      <point x="875" y="172"/>
      <point x="788" y="64"/>
      <point x="575" y="64" type="curve" smooth="yes"/>
    </contour>
    <contour>
      <point x="369" y="1152" type="line"/>
      <point x="676" y="1152" type="line" smooth="yes"/>
      <point x="835" y="1152"/>
      <point x="935" y="1059"/>
      <point x="921" y="899" type="curve" smooth="yes"/>
      <point x="906" y="733"/>
      <point x="780" y="637"/>
      <point x="629" y="637" type="curve" smooth="yes"/>
      <point x="321" y="637" type="line"/>
    </contour>
  </outline>
</glyph>
<glyph name="C" format="2">
  <advance width="1063"/>
  <unicode hex="0043"/>
  <anchor x="616" y="0" name="bottom"/>
  <anchor x="687" y="1215" name="top"/>
  <outline>
    <contour>
      <point x="550" y="-15" type="curve" smooth="yes"/>
      <point x="790" y="-15"/>
      <point x="989" y="138"/>
      <point x="1008" y="386" type="curve"/>
      <point x="939" y="386" type="line"/>
      <point x="921" y="180"/>
      <point x="768" y="46"/>
      <point x="558" y="46" type="curve" smooth="yes"/>
      <point x="292" y="46"/>
      <point x="198" y="306"/>
      <point x="228" y="619" type="curve" smooth="yes"/>
      <point x="258" y="975"/>
      <point x="459" y="1168"/>
      <point x="663" y="1168" type="curve" smooth="yes"/>
      <point x="816" y="1168"/>
      <point x="944" y="1060"/>
      <point x="985" y="882" type="curve"/>
      <point x="1065" y="903" type="line"/>
      <point x="1011" y="1099"/>
      <point x="880" y="1232"/>
      <point x="670" y="1232" type="curve" smooth="yes"/>
      <point x="422" y="1232"/>
      <point x="192" y="1013"/>
      <point x="159" y="619" type="curve"/>
      <point x="125" y="264"/>
      <point x="259" y="-15"/>
    </contour>
  </outline>
</glyph>
<glyph name="D" format="2">
  <advance width="1142"/>
  <unicode hex="0044"/>
  <anchor x="505" y="0" name="bottom"/>
  <anchor x="590" y="608" name="center"/>
  <anchor x="676" y="1215" name="top"/>
  <outline>
    <contour>
      <point x="309" y="1215" type="line"/>
      <point x="195" y="0" type="line"/>
      <point x="475" y="0" type="line" smooth="yes"/>
      <point x="806" y="0"/>
      <point x="1031" y="241"/>
      <point x="1064" y="610" type="curve" smooth="yes"/>
      <point x="1100" y="971"/>
      <point x="924" y="1215"/>
      <point x="593" y="1215" type="curve" smooth="yes"/>
    </contour>
    <contour>
      <point x="367" y="1155" type="line"/>
      <point x="588" y="1155" type="line" smooth="yes"/>
      <point x="872" y="1155"/>
      <point x="1025" y="923"/>
      <point x="997" y="610" type="curve" smooth="yes"/>
      <point x="971" y="290"/>
      <point x="767" y="55"/>
      <point x="483" y="55" type="curve" smooth="yes"/>
      <point x="262" y="55" type="line"/>
    </contour>
  </outline>
</glyph>
<glyph name="E" format="2">
  <advance width="966"/>
  <unicode hex="0045"/>
  <anchor x="530" y="1270" name="above"/>
  <anchor x="547" y="0" name="bottom"/>
  <anchor x="544" y="30" name="ogonek"/>
  <anchor x="588" y="1215" name="top"/>
  <anchor x="125" y="1215" name="topleft"/>
  <outline>
    <contour>
      <point x="195" y="0" type="line"/>
      <point x="830" y="0" type="line"/>
      <point x="840" y="64" type="line"/>
      <point x="267" y="64" type="line"/>
      <point x="315" y="586" type="line"/>
      <point x="855" y="586" type="line"/>
      <point x="858" y="644" type="line"/>
      <point x="319" y="644" type="line"/>
      <point x="367" y="1152" type="line"/>
      <point x="937" y="1152" type="line"/>
      <point x="948" y="1215" type="line"/>
      <point x="309" y="1215" type="line"/>
    </contour>
  </outline>
</glyph>
<glyph name="F" format="2">
  <advance width="901"/>
  <unicode hex="0046"/>
  <anchor x="385" y="0" name="bottom"/>
  <anchor x="556" y="1215" name="top"/>
  <outline>
    <contour>
      <point x="197" y="0" type="line"/>
      <point x="263" y="0" type="line"/>
      <point x="317" y="588" type="line"/>
      <point x="858" y="588" type="line"/>
      <point x="861" y="652" type="line"/>
      <point x="321" y="652" type="line"/>
      <point x="369" y="1152" type="line"/>
      <point x="939" y="1152" type="line"/>
      <point x="947" y="1215" type="line"/>
      <point x="311" y="1215" type="line"/>
    </contour>
  </outline>
</glyph>
<glyph name="G" format="2">
  <advance width="1097"/>
  <unicode hex="0047"/>
  <anchor x="483" y="0" name="bottom"/>
  <anchor x="654" y="1215" name="top"/>
  <outline>
    <contour>
      <point x="561" y="-15" type="curve" smooth="yes"/>
      <point x="741" y="-15"/>
      <point x="851" y="86"/>
      <point x="911" y="258" type="curve"/>
      <point x="901" y="255" type="line"/>
      <point x="900" y="170"/>
      <point x="893" y="84"/>
      <point x="891" y="0" type="curve"/>
      <point x="947" y="0" type="line"/>
      <point x="996" y="572" type="line"/>
      <point x="622" y="572" type="line"/>
      <point x="616" y="520" type="line"/>
      <point x="969" y="499" type="line"/>
      <point x="895" y="544" type="line"/>
      <point x="919" y="516"/>
      <point x="922" y="503"/>
      <point x="922" y="494" type="curve" smooth="yes"/>
      <point x="922" y="176"/>
      <point x="747" y="48"/>
      <point x="570" y="48" type="curve" smooth="yes"/>
      <point x="317" y="48"/>
      <point x="196" y="278"/>
      <point x="222" y="584" type="curve" smooth="yes"/>
      <point x="260" y="949"/>
      <point x="483" y="1164"/>
      <point x="717" y="1164" type="curve" smooth="yes"/>
      <point x="819" y="1164"/>
      <point x="919" y="1121"/>
      <point x="1010" y="1011" type="curve"/>
      <point x="1065" y="1059" type="line"/>
      <point x="968" y="1176"/>
      <point x="855" y="1228"/>
      <point x="724" y="1228" type="curve" smooth="yes"/>
      <point x="471" y="1228"/>
      <point x="194" y="1028"/>
      <point x="157" y="584" type="curve" smooth="yes"/>
      <point x="119" y="202"/>
      <point x="312" y="-15"/>
    </contour>
  </outline>
</glyph>
<glyph name="H" format="2">
  <advance width="1132"/>
  <unicode hex="0048"/>
  <anchor x="500" y="0" name="bottom"/>
  <anchor x="585" y="608" name="center"/>
  <anchor x="671" y="1215" name="top"/>
  <anchor x="125" y="1215" name="topleft"/>
  <outline>
    <contour>
      <point x="197" y="0" type="line"/>
      <point x="263" y="0" type="line"/>
      <point x="317" y="588" type="line"/>
      <point x="923" y="588" type="line"/>
      <point x="869" y="0" type="line"/>
      <point x="935" y="0" type="line"/>
      <point x="1053" y="1215" type="line"/>
      <point x="983" y="1215" type="line"/>
      <point x="927" y="648" type="line"/>
      <point x="321" y="648" type="line"/>
      <point x="377" y="1215" type="line"/>
      <point x="311" y="1215" type="line"/>
    </contour>
  </outline>
</glyph>
<glyph name="I" format="2">
  <advance width="456"/>
  <unicode hex="0049"/>
  <anchor x="212" y="0" name="bottom"/>
  <anchor x="243" y="25" name="ogonek"/>
  <anchor x="333" y="1215" name="top"/>
  <anchor x="125" y="1215" name="topleft"/>
  <outline>
    <contour>
      <point x="197" y="0" type="line"/>
      <point x="263" y="0" type="line"/>
      <point x="377" y="1215" type="line"/>
      <point x="311" y="1215" type="line"/>
    </contour>
  </outline>
</glyph>
<glyph name="J" format="2">
  <advance width="650"/>
  <unicode hex="004A"/>
  <anchor x="259" y="0" name="bottom"/>
  <anchor x="430" y="1215" name="top"/>
  <outline>
    <contour>
      <point x="7" y="71" type="line"/>
      <point x="76" y="23"/>
      <point x="139" y="-15"/>
      <point x="233" y="-15" type="curve" smooth="yes"/>
      <point x="399" y="-15"/>
      <point x="507" y="90"/>
      <point x="533" y="321" type="curve"/>
      <point x="615" y="1215" type="line"/>
      <point x="553" y="1215" type="line"/>
      <point x="469" y="321" type="line"/>
      <point x="449" y="155"/>
      <point x="389" y="52"/>
      <point x="239" y="52" type="curve" smooth="yes"/>
      <point x="153" y="52"/>
      <point x="81" y="90"/>
      <point x="10" y="157" type="curve"/>
    </contour>
  </outline>
</glyph>
<glyph name="K" format="2">
  <advance width="1007"/>
  <unicode hex="004B"/>
  <anchor x="438" y="0" name="bottom"/>
  <anchor x="609" y="1215" name="top"/>
  <outline>
    <contour>
      <point x="311" y="1215" type="line"/>
      <point x="197" y="0" type="line"/>
      <point x="265" y="0" type="line"/>
      <point x="307" y="471" type="line"/>
      <point x="453" y="617" type="line"/>
      <point x="854" y="0" type="line"/>
      <point x="939" y="0" type="line"/>
      <point x="500" y="672" type="line"/>
      <point x="1027" y="1215" type="line"/>
      <point x="935" y="1215" type="line"/>
      <point x="321" y="580" type="line"/>
      <point x="379" y="1215" type="line"/>
    </contour>
  </outline>
</glyph>
<glyph name="L" format="2">
  <advance width="790"/>
  <unicode hex="004C"/>
  <anchor x="489" y="0" name="bottom"/>
  <anchor x="414" y="608" name="center"/>
  <anchor x="500" y="1215" name="top"/>
  <anchor x="875" y="1215" name="topright"/>
  <outline>
    <contour>
      <point x="197" y="0" type="line"/>
      <point x="793" y="0" type="line"/>
      <point x="799" y="64" type="line"/>
      <point x="269" y="64" type="line"/>
      <point x="377" y="1215" type="line"/>
      <point x="311" y="1215" type="line"/>
    </contour>
  </outline>
</glyph>
<glyph name="M" format="2">
  <advance width="1474"/>
  <unicode hex="004D"/>
  <anchor x="671" y="0" name="bottom"/>
  <anchor x="842" y="1215" name="top"/>
  <outline>
    <contour>
      <point x="197" y="0" type="line"/>
      <point x="263" y="0" type="line"/>
      <point x="370" y="1132" type="line"/>
      <point x="349" y="1139" type="line"/>
      <point x="730" y="175" type="line"/>
      <point x="780" y="175" type="line"/>
      <point x="1338" y="1133" type="line"/>
      <point x="1319" y="1129" type="line"/>
      <point x="1213" y="0" type="line"/>
      <point x="1277" y="0" type="line"/>
      <point x="1395" y="1215" type="line"/>
      <point x="1297" y="1215" type="line"/>
      <point x="765" y="276" type="line"/>
      <point x="406" y="1215" type="line"/>
      <point x="311" y="1215" type="line"/>
    </contour>
  </outline>
</glyph>
<glyph name="N" format="2">
  <advance width="1169"/>
  <unicode hex="004E"/>
  <anchor x="589" y="0" name="bottom"/>
  <anchor x="690" y="1215" name="top"/>
  <outline>
    <contour>
      <point x="193" y="0" type="line"/>
      <point x="263" y="0" type="line"/>
      <point x="370" y="1151" type="line"/>
      <point x="350" y="1155" type="line"/>
      <point x="882" y="0" type="line"/>
      <point x="974" y="0" type="line"/>
      <point x="1087" y="1215" type="line"/>
      <point x="1021" y="1215" type="line"/>
      <point x="909" y="66" type="line"/>
      <point x="928" y="62" type="line"/>
      <point x="402" y="1215" type="line"/>
      <point x="307" y="1215" type="line"/>
    </contour>
  </outline>
</glyph>
<glyph name="O" format="2">
  <advance width="1088"/>
  <unicode hex="004F"/>
  <anchor x="478" y="0" name="bottom"/>
  <anchor x="563" y="608" name="center"/>
  <anchor x="914" y="10" name="ogonek"/>
  <anchor x="649" y="1215" name="top"/>
  <anchor x="125" y="1215" name="topleft"/>
  <anchor x="1173" y="1215" name="topright"/>
  <outline>
    <contour>
      <point x="543" y="-15" type="curve" smooth="yes"/>
      <point x="788" y="-15"/>
      <point x="1008" y="179"/>
      <point x="1052" y="604" type="curve"/>
      <point x="1089" y="1025"/>
      <point x="910" y="1232"/>
      <point x="663" y="1232" type="curve" smooth="yes"/>
      <point x="413" y="1232"/>
      <point x="196" y="1023"/>
      <point x="159" y="604" type="curve"/>
      <point x="119" y="181"/>
      <point x="294" y="-15"/>
    </contour>
    <contour>
      <point x="551" y="53" type="curve" smooth="yes"/>
      <point x="317" y="53"/>
      <point x="190" y="237"/>
      <point x="224" y="604" type="curve" smooth="yes"/>
      <point x="263" y="967"/>
      <point x="417" y="1166"/>
      <point x="655" y="1166" type="curve" smooth="yes"/>
      <point x="887" y="1166"/>
      <point x="1018" y="967"/>
      <point x="982" y="602" type="curve" smooth="yes"/>
      <point x="945" y="237"/>
      <point x="782" y="53"/>
    </contour>
  </outline>
</glyph>
<glyph name="P" format="2">
  <advance width="946"/>
  <unicode hex="0050"/>
  <anchor x="407" y="0" name="bottom"/>
  <anchor x="578" y="1215" name="top"/>
  <outline>
    <contour>
      <point x="195" y="0" type="line"/>
      <point x="259" y="0" type="line"/>
      <point x="307" y="501" type="line"/>
      <point x="555" y="501" type="line" smooth="yes"/>
      <point x="788" y="501"/>
      <point x="914" y="647"/>
      <point x="934" y="851" type="curve" smooth="yes"/>
      <point x="954" y="1058"/>
      <point x="856" y="1215"/>
      <point x="625" y="1215" type="curve" smooth="yes"/>
      <point x="309" y="1215" type="line"/>
    </contour>
    <contour>
      <point x="311" y="561" type="line"/>
      <point x="365" y="1152" type="line"/>
      <point x="618" y="1152" type="line" smooth="yes"/>
      <point x="795" y="1152"/>
      <point x="885" y="1039"/>
      <point x="869" y="851" type="curve" smooth="yes"/>
      <point x="853" y="668"/>
      <point x="743" y="561"/>
      <point x="563" y="561" type="curve" smooth="yes"/>
    </contour>
  </outline>
</glyph>
<glyph name="Q" format="2">
  <advance width="1109"/>
  <unicode hex="0051"/>
  <anchor x="489" y="0" name="bottom"/>
  <anchor x="660" y="1215" name="top"/>
  <outline>
    <contour>
      <point x="838" y="-306" type="curve" smooth="yes"/>
      <point x="882" y="-306"/>
      <point x="927" y="-296"/>
      <point x="985" y="-266" type="curve"/>
      <point x="993" y="-172" type="line"/>
      <point x="925" y="-208"/>
      <point x="881" y="-226"/>
      <point x="811" y="-226" type="curve"/>
      <point x="775" y="-224"/>
      <point x="744" y="-204"/>
      <point x="701" y="-140" type="curve"/>
      <point x="627" y="-11" type="line"/>
      <point x="841" y="34"/>
      <point x="1016" y="229"/>
      <point x="1052" y="604" type="curve"/>
      <point x="1089" y="1025"/>
      <point x="910" y="1232"/>
      <point x="663" y="1232" type="curve" smooth="yes"/>
      <point x="413" y="1232"/>
      <point x="196" y="1023"/>
      <point x="159" y="604" type="curve"/>
      <point x="119" y="183"/>
      <point x="292" y="-16"/>
      <point x="544" y="-15" type="curve"/>
      <point x="625" y="-154" type="line" smooth="yes"/>
      <point x="684" y="-257"/>
      <point x="741" y="-306"/>
    </contour>
    <contour>
      <point x="551" y="53" type="curve" smooth="yes"/>
      <point x="317" y="53"/>
      <point x="190" y="237"/>
      <point x="224" y="604" type="curve" smooth="yes"/>
      <point x="263" y="967"/>
      <point x="417" y="1166"/>
      <point x="655" y="1166" type="curve" smooth="yes"/>
      <point x="887" y="1166"/>
      <point x="1018" y="967"/>
      <point x="982" y="602" type="curve" smooth="yes"/>
      <point x="945" y="237"/>
      <point x="782" y="53"/>
    </contour>
  </outline>
</glyph>
<glyph name="R" format="2">
  <advance width="1043"/>
  <unicode hex="0052"/>
  <anchor x="456" y="0" name="bottom"/>
  <anchor x="627" y="1215" name="top"/>
  <outline>
    <contour>
      <point x="197" y="0" type="line"/>
      <point x="263" y="0" type="line"/>
      <point x="313" y="523" type="line"/>
      <point x="550" y="523" type="line"/>
      <point x="833" y="0" type="line"/>
      <point x="913" y="0" type="line"/>
      <point x="624" y="518" type="line"/>
      <point x="842" y="532"/>
      <point x="962" y="672"/>
      <point x="978" y="867" type="curve" smooth="yes"/>
      <point x="1000" y="1069"/>
      <point x="904" y="1215"/>
      <point x="664" y="1215" type="curve" smooth="yes"/>
      <point x="311" y="1215" type="line"/>
    </contour>
    <contour>
      <point x="319" y="581" type="line"/>
      <point x="369" y="1152" type="line"/>
      <point x="656" y="1152" type="line" smooth="yes"/>
      <point x="836" y="1152"/>
      <point x="933" y="1046"/>
      <point x="915" y="870" type="curve" smooth="yes"/>
      <point x="899" y="698"/>
      <point x="788" y="581"/>
      <point x="602" y="581" type="curve" smooth="yes"/>
    </contour>
  </outline>
</glyph>
<glyph name="S" format="2">
  <advance width="1023"/>
  <unicode hex="0053"/>
  <anchor x="546" y="0" name="bottom"/>
  <anchor x="617" y="1215" name="top"/>
  <outline>
    <contour>
      <point x="507" y="-15" type="curve" smooth="yes"/>
      <point x="762" y="-15"/>
      <point x="909" y="149"/>
      <point x="922" y="312" type="curve" smooth="yes"/>
      <point x="938" y="491"/>
      <point x="840" y="584"/>
      <point x="695" y="633" type="curve" smooth="yes"/>
      <point x="488" y="701" type="line" smooth="yes"/>
      <point x="361" y="743"/>
      <point x="312" y="802"/>
      <point x="322" y="918" type="curve" smooth="yes"/>
      <point x="332" y="1061"/>
      <point x="444" y="1164"/>
      <point x="624" y="1164" type="curve" smooth="yes"/>
      <point x="779" y="1164"/>
      <point x="875" y="1096"/>
      <point x="878" y="965" type="curve"/>
      <point x="942" y="965" type="line"/>
      <point x="936" y="1122"/>
      <point x="829" y="1232"/>
      <point x="632" y="1232" type="curve" smooth="yes"/>
      <point x="401" y="1232"/>
      <point x="271" y="1101"/>
      <point x="253" y="924" type="curve" smooth="yes"/>
      <point x="237" y="757"/>
      <point x="327" y="683"/>
      <point x="514" y="622" type="curve" smooth="yes"/>
      <point x="673" y="562" type="line" smooth="yes"/>
      <point x="800" y="520"/>
      <point x="865" y="440"/>
      <point x="853" y="313" type="curve" smooth="yes"/>
      <point x="843" y="181"/>
      <point x="714" y="48"/>
      <point x="513" y="48" type="curve" smooth="yes"/>
      <point x="346" y="48"/>
      <point x="204" y="143"/>
      <point x="220" y="348" type="curve"/>
      <point x="162" y="348" type="line"/>
      <point x="147" y="123"/>
      <point x="299" y="-15"/>
    </contour>
  </outline>
</glyph>
<glyph name="T" format="2">
  <advance width="841"/>
  <unicode hex="0054"/>
  <anchor x="472" y="0" name="bottom"/>
  <anchor x="440" y="608" name="center"/>
  <anchor x="526" y="1215" name="top"/>
  <outline>
    <contour>
      <point x="389" y="0" type="line"/>
      <point x="455" y="0" type="line"/>
      <point x="559" y="1152" type="line"/>
      <point x="937" y="1152" type="line"/>
      <point x="945" y="1215" type="line"/>
      <point x="126" y="1215" type="line"/>
      <point x="118" y="1152" type="line"/>
      <point x="493" y="1152" type="line"/>
    </contour>
  </outline>
</glyph>
<glyph name="U" format="2">
  <advance width="1109"/>
  <unicode hex="0055"/>
  <anchor x="489" y="0" name="bottom"/>
  <anchor x="545" y="10" name="ogonek"/>
  <anchor x="660" y="1215" name="top"/>
  <anchor x="1194" y="1215" name="topright"/>
  <outline>
    <contour>
      <point x="545" y="-15" type="curve" smooth="yes"/>
      <point x="766" y="-15"/>
      <point x="943" y="116"/>
      <point x="967" y="415" type="curve"/>
      <point x="1047" y="1215" type="line"/>
      <point x="981" y="1215" type="line"/>
      <point x="903" y="415" type="line" smooth="yes"/>
      <point x="879" y="159"/>
      <point x="746" y="48"/>
      <point x="555" y="48" type="curve" smooth="yes"/>
      <point x="357" y="48"/>
      <point x="244" y="159"/>
      <point x="268" y="415" type="curve" smooth="yes"/>
      <point x="346" y="1215" type="line"/>
      <point x="280" y="1215" type="line"/>
      <point x="202" y="415" type="line"/>
      <point x="177" y="116"/>
      <point x="318" y="-15"/>
    </contour>
  </outline>
</glyph>
<glyph name="V" format="2">
  <advance width="929"/>
  <unicode hex="0056"/>
  <anchor x="399" y="0" name="bottom"/>
  <anchor x="570" y="1215" name="top"/>
  <outline>
    <contour>
      <point x="145" y="1215" type="line"/>
      <point x="432" y="0" type="line"/>
      <point x="497" y="0" type="line"/>
      <point x="1015" y="1215" type="line"/>
      <point x="943" y="1215" type="line"/>
      <point x="472" y="87" type="line"/>
      <point x="209" y="1215" type="line"/>
    </contour>
  </outline>
</glyph>
<glyph name="W" format="2">
  <advance width="1471"/>
  <unicode hex="0057"/>
  <anchor x="670" y="0" name="bottom"/>
  <anchor x="841" y="1215" name="top"/>
  <outline>
    <contour>
      <point x="129" y="1215" type="line"/>
      <point x="347" y="0" type="line"/>
      <point x="415" y="0" type="line"/>
      <point x="795" y="882" type="line"/>
      <point x="986" y="0" type="line"/>
      <point x="1056" y="0" type="line"/>
      <point x="1567" y="1215" type="line"/>
      <point x="1503" y="1215" type="line"/>
      <point x="1032" y="104" type="line"/>
      <point x="834" y="1037" type="line"/>
      <point x="790" y="1037" type="line"/>
      <point x="391" y="108" type="line"/>
      <point x="200" y="1215" type="line"/>
    </contour>
  </outline>
</glyph>
<glyph name="X" format="2">
  <advance width="1073"/>
  <unicode hex="0058"/>
  <anchor x="471" y="0" name="bottom"/>
  <anchor x="642" y="1215" name="top"/>
  <outline>
    <contour>
      <point x="112" y="0" type="line"/>
      <point x="195" y="0" type="line"/>
      <point x="580" y="548" type="line"/>
      <point x="877" y="0" type="line"/>
      <point x="959" y="0" type="line"/>
      <point x="629" y="600" type="line"/>
      <point x="1079" y="1215" type="line"/>
      <point x="1002" y="1215" type="line"/>
      <point x="604" y="651" type="line"/>
      <point x="300" y="1215" type="line"/>
      <point x="228" y="1215" type="line"/>
      <point x="557" y="600" type="line"/>
    </contour>
  </outline>
</glyph>
<glyph name="Y" format="2">
  <advance width="879"/>
  <unicode hex="0059"/>
  <anchor x="374" y="0" name="bottom"/>
  <anchor x="545" y="1215" name="top"/>
  <anchor x="125" y="1215" name="topleft"/>
  <outline>
    <contour>
      <point x="409" y="0" type="line"/>
      <point x="479" y="0" type="line"/>
      <point x="525" y="494" type="line"/>
      <point x="988" y="1215" type="line"/>
      <point x="913" y="1215" type="line"/>
      <point x="497" y="571" type="line"/>
      <point x="200" y="1215" type="line"/>
      <point x="119" y="1215" type="line"/>
      <point x="455" y="494" type="line"/>
    </contour>
  </outline>
</glyph>
<glyph name="Z" format="2">
  <advance width="994"/>
  <unicode hex="005A"/>
  <anchor x="431" y="0" name="bottom"/>
  <anchor x="516" y="608" name="center"/>
  <anchor x="602" y="1215" name="top"/>
  <outline>
    <contour>
      <point x="132" y="0" type="line"/>
      <point x="903" y="0" type="line"/>
      <point x="913" y="66" type="line"/>
      <point x="216" y="76" type="line"/>
      <point x="1014" y="1138" type="line"/>
      <point x="1021" y="1215" type="line"/>
      <point x="246" y="1215" type="line"/>
      <point x="240" y="1149" type="line"/>
      <point x="933" y="1138" type="line"/>
      <point x="137" y="75" type="line"/>
    </contour>
  </outline>
</glyph>
<glyph name="bracketleft" format="2">
  <advance width="501"/>
  <unicode hex="005B"/>
  <outline>
    <contour>
      <point x="136" y="-119" type="line"/>
      <point x="396" y="-119" type="line"/>
      <point x="400" y="-60" type="line"/>
      <point x="205" y="-60" type="line"/>
      <point x="333" y="1272" type="line"/>
      <point x="527" y="1272" type="line"/>
      <point x="528" y="1334" type="line"/>
      <point x="270" y="1334" type="line"/>
    </contour>
  </outline>
</glyph>
<glyph name="backslash" format="2">
  <advance width="700"/>
  <unicode hex="005C"/>
  <outline>
    <contour>
      <point x="787" y="-131" type="line"/>
      <point x="851" y="-131" type="line"/>
      <point x="260" y="1429" type="line"/>
      <point x="199" y="1429" type="line"/>
    </contour>
  </outline>
</glyph>
<glyph name="bracketright" format="2">
  <advance width="412"/>
  <unicode hex="005D"/>
  <outline>
    <contour>
      <point x="-32" y="-119" type="line"/>
      <point x="228" y="-119" type="line"/>
      <point x="382" y="1334" type="line"/>
      <point x="120" y="1334" type="line"/>
      <point x="115" y="1272" type="line"/>
      <point x="309" y="1272" type="line"/>
      <point x="167" y="-60" type="line"/>
      <point x="-27" y="-60" type="line"/>
    </contour>
  </outline>
</glyph>
<glyph name="asciicircum" format="2">
  <advance width="652"/>
  <unicode hex="005E"/>
  <outline>
    <contour>
      <point x="89" y="549" type="line"/>
      <point x="168" y="549" type="line"/>
      <point x="431" y="1047" type="line"/>
      <point x="605" y="549" type="line"/>
      <point x="681" y="549" type="line"/>
      <point x="461" y="1135" type="line"/>
      <point x="418" y="1135" type="line"/>
    </contour>
  </outline>
</glyph>
<glyph name="underscore" format="2">
  <advance width="1223"/>
  <unicode hex="005F"/>
  <outline>
    <contour>
      <point x="83" y="-1" type="line"/>
      <point x="1106" y="-1" type="line"/>
      <point x="1109" y="59" type="line"/>
      <point x="86" y="59" type="line"/>
    </contour>
  </outline>
</glyph>
<glyph name="grave" format="2">
  <advance width="486"/>
  <unicode hex="0060"/>
  <anchor x="282" y="1270" name="_above"/>
  <outline>
    <contour>
      <point x="192" y="1563" type="line"/>
      <point x="545" y="1317" type="line"/>
      <point x="573" y="1365" type="line"/>
      <point x="238" y="1633" type="line"/>
    </contour>
  </outline>
</glyph>
<glyph name="a" format="2">
  <advance width="960"/>
  <unicode hex="0061"/>
  <anchor x="414" y="0" name="bottom"/>
  <anchor x="775" y="25" name="ogonek"/>
  <anchor x="546" y="939" name="top"/>
  <outline>
    <contour>
      <point x="428" y="-15" type="curve" smooth="yes"/>
      <point x="549" y="-15"/>
      <point x="686" y="48"/>
      <point x="749" y="190" type="curve"/>
      <point x="747" y="126"/>
      <point x="743" y="65"/>
      <point x="741" y="0" type="curve"/>
      <point x="795" y="0" type="line"/>
      <point x="853" y="614" type="line" smooth="yes"/>
      <point x="877" y="867"/>
      <point x="760" y="960"/>
      <point x="584" y="960" type="curve" smooth="yes"/>
      <point x="444" y="960"/>
      <point x="276" y="901"/>
      <point x="259" y="701" type="curve"/>
      <point x="336" y="701" type="line"/>
      <point x="346" y="849"/>
      <point x="463" y="901"/>
      <point x="583" y="901" type="curve" smooth="yes"/>
      <point x="729" y="901"/>
      <point x="813" y="824"/>
      <point x="792" y="613" type="curve" smooth="yes"/>
      <point x="777" y="463" type="line"/>
      <point x="700" y="508"/>
      <point x="601" y="530"/>
      <point x="519" y="530" type="curve" smooth="yes"/>
      <point x="364" y="530"/>
      <point x="205" y="452"/>
      <point x="182" y="251" type="curve" smooth="yes"/>
      <point x="169" y="124"/>
      <point x="249" y="-15"/>
    </contour>
    <contour>
      <point x="419" y="44" type="curve" smooth="yes"/>
      <point x="281" y="44"/>
      <point x="239" y="137"/>
      <point x="250" y="251" type="curve" smooth="yes"/>
      <point x="266" y="414"/>
      <point x="375" y="466"/>
      <point x="511" y="466" type="curve" smooth="yes"/>
      <point x="592" y="466"/>
      <point x="680" y="448"/>
      <point x="772" y="418" type="curve"/>
      <point x="783" y="181"/>
      <point x="586" y="44"/>
    </contour>
  </outline>
</glyph>
<glyph name="b" format="2">
  <advance width="993"/>
  <unicode hex="0062"/>
  <anchor x="431" y="0" name="bottom"/>
  <anchor x="689" y="1834" name="top"/>
  <outline>
    <contour>
      <point x="538" y="-15" type="curve" smooth="yes"/>
      <point x="820" y="-15"/>
      <point x="954" y="313"/>
      <point x="954" y="549" type="curve" smooth="yes"/>
      <point x="954" y="799"/>
      <point x="803" y="960"/>
      <point x="624" y="960" type="curve" smooth="yes"/>
      <point x="505" y="960"/>
      <point x="396" y="888"/>
      <point x="331" y="771" type="curve"/>
      <point x="389" y="1351" type="line"/>
      <point x="325" y="1351" type="line"/>
      <point x="197" y="0" type="line"/>
      <point x="252" y="0" type="line"/>
      <point x="280" y="168" type="line"/>
      <point x="322" y="47"/>
      <point x="416" y="-15"/>
    </contour>
    <contour>
      <point x="537" y="44" type="curve" smooth="yes"/>
      <point x="352" y="44"/>
      <point x="273" y="213"/>
      <point x="299" y="434" type="curve" smooth="yes"/>
      <point x="305" y="499" type="line" smooth="yes"/>
      <point x="330" y="754"/>
      <point x="463" y="899"/>
      <point x="620" y="899" type="curve" smooth="yes"/>
      <point x="768" y="899"/>
      <point x="884" y="769"/>
      <point x="884" y="551" type="curve" smooth="yes"/>
      <point x="884" y="351"/>
      <point x="787" y="44"/>
    </contour>
  </outline>
</glyph>
<glyph name="c" format="2">
  <advance width="896"/>
  <unicode hex="0063"/>
  <anchor x="528" y="0" name="bottom"/>
  <anchor x="574" y="939" name="top"/>
  <outline>
    <contour>
      <point x="471" y="-15" type="curve" smooth="yes"/>
      <point x="639" y="-15"/>
      <point x="801" y="104"/>
      <point x="815" y="296" type="curve"/>
      <point x="742" y="296" type="line"/>
      <point x="734" y="132"/>
      <point x="620" y="44"/>
      <point x="483" y="44" type="curve" smooth="yes"/>
      <point x="284" y="44"/>
      <point x="189" y="230"/>
      <point x="211" y="473" type="curve" smooth="yes"/>
      <point x="235" y="737"/>
      <point x="385" y="899"/>
      <point x="552" y="899" type="curve" smooth="yes"/>
      <point x="665" y="899"/>
      <point x="757" y="825"/>
      <point x="785" y="688" type="curve"/>
      <point x="851" y="711" type="line"/>
      <point x="816" y="862"/>
      <point x="710" y="960"/>
      <point x="559" y="960" type="curve" smooth="yes"/>
      <point x="354" y="960"/>
      <point x="168" y="778"/>
      <point x="139" y="473" type="curve" smooth="yes"/>
      <point x="110" y="164"/>
      <point x="265" y="-15"/>
    </contour>
  </outline>
</glyph>
<glyph name="d" format="2">
  <advance width="1031"/>
  <unicode hex="0064"/>
  <anchor x="450" y="0" name="bottom"/>
  <anchor x="516" y="470" name="center"/>
  <anchor x="598" y="1165" name="top"/>
  <anchor x="1077" y="939" name="topright"/>
  <outline>
    <contour>
      <point x="492" y="-15" type="curve" smooth="yes"/>
      <point x="608" y="-15"/>
      <point x="715" y="49"/>
      <point x="781" y="167" type="curve"/>
      <point x="777" y="0" type="line"/>
      <point x="830" y="0" type="line"/>
      <point x="955" y="1351" type="line"/>
      <point x="892" y="1351" type="line"/>
      <point x="837" y="777" type="line"/>
      <point x="790" y="894"/>
      <point x="703" y="960"/>
      <point x="576" y="960" type="curve" smooth="yes"/>
      <point x="281" y="960"/>
      <point x="165" y="603"/>
      <point x="165" y="387" type="curve" smooth="yes"/>
      <point x="165" y="147"/>
      <point x="307" y="-15"/>
    </contour>
    <contour>
      <point x="498" y="44" type="curve" smooth="yes"/>
      <point x="353" y="44"/>
      <point x="240" y="178"/>
      <point x="240" y="394" type="curve" smooth="yes"/>
      <point x="240" y="580"/>
      <point x="324" y="899"/>
      <point x="570" y="899" type="curve" smooth="yes"/>
      <point x="692" y="899"/>
      <point x="826" y="821"/>
      <point x="826" y="652" type="curve" smooth="yes"/>
      <point x="826" y="637"/>
      <point x="825" y="642"/>
      <point x="824" y="629" type="curve" smooth="yes"/>
      <point x="800" y="351" type="line" smooth="yes"/>
      <point x="782" y="149"/>
      <point x="627" y="44"/>
    </contour>
  </outline>
</glyph>
<glyph name="e" format="2">
  <advance width="896"/>
  <unicode hex="0065"/>
  <anchor x="502" y="0" name="bottom"/>
  <anchor x="465" y="11" name="ogonek"/>
  <anchor x="514" y="939" name="top"/>
  <outline>
    <contour>
      <point x="461" y="-15" type="curve" smooth="yes"/>
      <point x="622" y="-15"/>
      <point x="764" y="72"/>
      <point x="813" y="269" type="curve"/>
      <point x="741" y="269" type="line"/>
      <point x="710" y="124"/>
      <point x="609" y="45"/>
      <point x="470" y="45" type="curve" smooth="yes"/>
      <point x="250" y="45"/>
      <point x="183" y="244"/>
      <point x="209" y="490" type="curve"/>
      <point x="160" y="462" type="line"/>
      <point x="821" y="462" type="line"/>
      <point x="833" y="518"/>
      <point x="839" y="583"/>
      <point x="839" y="630" type="curve" smooth="yes"/>
      <point x="839" y="824"/>
      <point x="738" y="960"/>
      <point x="550" y="960" type="curve" smooth="yes"/>
      <point x="329" y="960"/>
      <point x="168" y="773"/>
      <point x="138" y="465" type="curve" smooth="yes"/>
      <point x="108" y="155"/>
      <point x="236" y="-15"/>
    </contour>
    <contour>
      <point x="207" y="502" type="line"/>
      <point x="236" y="709"/>
      <point x="347" y="902"/>
      <point x="550" y="902" type="curve" smooth="yes"/>
      <point x="749" y="902"/>
      <point x="794" y="717"/>
      <point x="766" y="509" type="curve"/>
      <point x="815" y="514" type="line"/>
      <point x="172" y="514" type="line"/>
    </contour>
  </outline>
</glyph>
<glyph name="f" format="2">
  <advance width="575"/>
  <unicode hex="0066"/>
  <anchor x="222" y="0" name="bottom"/>
  <anchor x="480" y="1834" name="top"/>
  <outline>
    <contour>
      <point x="190" y="885" type="line"/>
      <point x="341" y="885" type="line"/>
      <point x="260" y="0" type="line"/>
      <point x="320" y="0" type="line"/>
      <point x="407" y="885" type="line"/>
      <point x="602" y="885" type="line"/>
      <point x="605" y="939" type="line"/>
      <point x="410" y="939" type="line"/>
      <point x="428" y="1117" type="line" smooth="yes"/>
      <point x="444" y="1276"/>
      <point x="521" y="1310"/>
      <point x="587" y="1310" type="curve" smooth="yes"/>
      <point x="626" y="1310"/>
      <point x="669" y="1298"/>
      <point x="707" y="1278" type="curve"/>
      <point x="724" y="1339" type="line"/>
      <point x="682" y="1361"/>
      <point x="646" y="1367"/>
      <point x="610" y="1367" type="curve" smooth="yes"/>
      <point x="482" y="1367"/>
      <point x="378" y="1291"/>
      <point x="362" y="1119" type="curve" smooth="yes"/>
      <point x="346" y="939" type="line"/>
      <point x="193" y="939" type="line"/>
    </contour>
  </outline>
</glyph>
<glyph name="g" format="2">
  <advance width="981"/>
  <unicode hex="0067"/>
  <anchor x="354" y="-504" name="bottom"/>
  <anchor x="637" y="939" name="top"/>
  <outline>
    <contour>
      <point x="431" y="-481" type="curve" smooth="yes"/>
      <point x="728" y="-481"/>
      <point x="940" y="-311"/>
      <point x="952" y="-138" type="curve" smooth="yes"/>
      <point x="960" y="-25"/>
      <point x="881" y="61"/>
      <point x="747" y="61" type="curve" smooth="yes"/>
      <point x="369" y="61" type="line" smooth="yes"/>
      <point x="224" y="61"/>
      <point x="190" y="113"/>
      <point x="200" y="184" type="curve" smooth="yes"/>
      <point x="211" y="264"/>
      <point x="267" y="314"/>
      <point x="328" y="322" type="curve"/>
      <point x="378" y="281"/>
      <point x="447" y="258"/>
      <point x="521" y="258" type="curve" smooth="yes"/>
      <point x="711" y="258"/>
      <point x="861" y="408"/>
      <point x="881" y="615" type="curve" smooth="yes"/>
      <point x="889" y="699"/>
      <point x="873" y="769"/>
      <point x="841" y="825" type="curve"/>
      <point x="860" y="953"/>
      <point x="924" y="1006"/>
      <point x="1028" y="1006" type="curve"/>
      <point x="1056" y="1086" type="line"/>
      <point x="912" y="1086"/>
      <point x="842" y="998"/>
      <point x="812" y="873" type="curve"/>
      <point x="762" y="930"/>
      <point x="685" y="960"/>
      <point x="596" y="960" type="curve" smooth="yes"/>
      <point x="405" y="960"/>
      <point x="264" y="820"/>
      <point x="244" y="615" type="curve" smooth="yes"/>
      <point x="234" y="511"/>
      <point x="258" y="422"/>
      <point x="305" y="360" type="curve"/>
      <point x="221" y="343"/>
      <point x="145" y="281"/>
      <point x="137" y="185" type="curve" smooth="yes"/>
      <point x="131" y="117"/>
      <point x="161" y="55"/>
      <point x="231" y="23" type="curve"/>
      <point x="126" y="-16"/>
      <point x="62" y="-95"/>
      <point x="56" y="-199" type="curve" smooth="yes"/>
      <point x="46" y="-359"/>
      <point x="180" y="-481"/>
    </contour>
    <contour>
      <point x="426" y="-422" type="curve" smooth="yes"/>
      <point x="206" y="-422"/>
      <point x="116" y="-318"/>
      <point x="122" y="-200" type="curve" smooth="yes"/>
      <point x="128" y="-89"/>
      <point x="219" y="3"/>
      <point x="348" y="3" type="curve" smooth="yes"/>
      <point x="743" y="3" type="line" smooth="yes"/>
      <point x="847" y="3"/>
      <point x="890" y="-66"/>
      <point x="884" y="-142" type="curve" smooth="yes"/>
      <point x="872" y="-292"/>
      <point x="672" y="-422"/>
    </contour>
    <contour>
      <point x="533" y="316" type="curve" smooth="yes"/>
      <point x="382" y="316"/>
      <point x="290" y="445"/>
      <point x="307" y="615" type="curve" smooth="yes"/>
      <point x="324" y="785"/>
      <point x="438" y="901"/>
      <point x="590" y="901" type="curve" smooth="yes"/>
      <point x="744" y="901"/>
      <point x="837" y="782"/>
      <point x="821" y="615" type="curve" smooth="yes"/>
      <point x="805" y="444"/>
      <point x="684" y="316"/>
    </contour>
  </outline>
</glyph>
<glyph name="h" format="2">
  <advance width="1051"/>
  <unicode hex="0068"/>
  <anchor x="460" y="0" name="bottom"/>
  <anchor x="589" y="917" name="center"/>
  <anchor x="718" y="1834" name="top"/>
  <outline>
    <contour>
      <point x="197" y="0" type="line"/>
      <point x="263" y="0" type="line"/>
      <point x="301" y="419" type="line"/>
      <point x="316" y="702"/>
      <point x="432" y="899"/>
      <point x="640" y="899" type="curve" smooth="yes"/>
      <point x="802" y="899"/>
      <point x="897" y="779"/>
      <point x="876" y="555" type="curve" smooth="yes"/>
      <point x="824" y="0" type="line"/>
      <point x="884" y="0" type="line"/>
      <point x="938" y="555" type="line" smooth="yes"/>
      <point x="963" y="817"/>
      <point x="841" y="960"/>
      <point x="651" y="960" type="curve" smooth="yes"/>
      <point x="504" y="960"/>
      <point x="394" y="874"/>
      <point x="331" y="741" type="curve"/>
      <point x="389" y="1351" type="line"/>
      <point x="325" y="1351" type="line"/>
    </contour>
  </outline>
</glyph>
<glyph name="i" format="2">
  <advance width="482"/>
  <unicode hex="0069"/>
  <anchor x="175" y="0" name="bottom"/>
  <anchor x="240" y="25" name="ogonek"/>
  <anchor x="307" y="939" name="top"/>
  <outline>
    <contour>
      <point x="345" y="1219" type="curve" smooth="yes"/>
      <point x="374" y="1219"/>
      <point x="399" y="1240"/>
      <point x="403" y="1273" type="curve" smooth="yes"/>
      <point x="406" y="1304"/>
      <point x="389" y="1332"/>
      <point x="356" y="1332" type="curve" smooth="yes"/>
      <point x="319" y="1332"/>
      <point x="302" y="1297"/>
      <point x="300" y="1273" type="curve" smooth="yes"/>
      <point x="297" y="1244"/>
      <point x="313" y="1219"/>
    </contour>
    <component base="idotless"/>
  </outline>
</glyph>
<glyph name="j" format="2">
  <advance width="527"/>
  <unicode hex="006A"/>
  <anchor x="127" y="-504" name="bottom"/>
  <anchor x="330" y="939" name="top"/>
  <outline>
    <contour>
      <point x="388" y="1219" type="curve" smooth="yes"/>
      <point x="420" y="1219"/>
      <point x="446" y="1246"/>
      <point x="450" y="1273" type="curve" smooth="yes"/>
      <point x="455" y="1307"/>
      <point x="432" y="1332"/>
      <point x="401" y="1332" type="curve" smooth="yes"/>
      <point x="370" y="1332"/>
      <point x="346" y="1308"/>
      <point x="342" y="1273" type="curve" smooth="yes"/>
      <point x="338" y="1238"/>
      <point x="362" y="1219"/>
    </contour>
    <component base="jdotless"/>
  </outline>
</glyph>
<glyph name="k" format="2">
  <advance width="996"/>
  <unicode hex="006B"/>
  <anchor x="432" y="0" name="bottom"/>
  <anchor x="690" y="1834" name="top"/>
  <outline>
    <contour>
      <point x="789" y="0" type="line"/>
      <point x="875" y="0" type="line"/>
      <point x="505" y="583" type="line"/>
      <point x="943" y="939" type="line"/>
      <point x="843" y="939" type="line"/>
      <point x="311" y="507" type="line"/>
      <point x="389" y="1351" type="line"/>
      <point x="325" y="1351" type="line"/>
      <point x="197" y="0" type="line"/>
      <point x="263" y="0" type="line"/>
      <point x="303" y="419" type="line"/>
      <point x="449" y="541" type="line"/>
    </contour>
  </outline>
</glyph>
<glyph name="l" format="2">
  <advance width="456"/>
  <unicode hex="006C"/>
  <anchor x="162" y="0" name="bottom"/>
  <anchor x="291" y="917" name="center"/>
  <anchor x="371" y="1417" name="top"/>
  <anchor x="628" y="1834" name="topright"/>
  <outline>
    <contour>
      <point x="197" y="0" type="line"/>
      <point x="263" y="0" type="line"/>
      <point x="389" y="1351" type="line"/>
      <point x="325" y="1351" type="line"/>
    </contour>
  </outline>
</glyph>
<glyph name="m" format="2">
  <advance width="1654"/>
  <unicode hex="006D"/>
  <anchor x="761" y="0" name="bottom"/>
  <anchor x="893" y="939" name="top"/>
  <outline>
    <contour>
      <point x="193" y="0" type="line"/>
      <point x="259" y="0" type="line"/>
      <point x="303" y="472" type="line" smooth="yes"/>
      <point x="326" y="721"/>
      <point x="439" y="899"/>
      <point x="635" y="899" type="curve" smooth="yes"/>
      <point x="794" y="899"/>
      <point x="893" y="783"/>
      <point x="872" y="555" type="curve" smooth="yes"/>
      <point x="820" y="0" type="line"/>
      <point x="880" y="0" type="line"/>
      <point x="924" y="490" type="line"/>
      <point x="958" y="728"/>
      <point x="1049" y="899"/>
      <point x="1245" y="899" type="curve" smooth="yes"/>
      <point x="1413" y="899"/>
      <point x="1504" y="773"/>
      <point x="1483" y="555" type="curve" smooth="yes"/>
      <point x="1429" y="0" type="line"/>
      <point x="1489" y="0" type="line"/>
      <point x="1541" y="555" type="line"/>
      <point x="1569" y="819"/>
      <point x="1445" y="960"/>
      <point x="1255" y="960" type="curve" smooth="yes"/>
      <point x="1107" y="960"/>
      <point x="994" y="875"/>
      <point x="930" y="709" type="curve"/>
      <point x="902" y="871"/>
      <point x="799" y="960"/>
      <point x="647" y="960" type="curve" smooth="yes"/>
      <point x="500" y="960"/>
      <point x="389" y="876"/>
      <point x="325" y="731" type="curve"/>
      <point x="327" y="799"/>
      <point x="333" y="870"/>
      <point x="336" y="939" type="curve"/>
      <point x="281" y="939" type="line"/>
    </contour>
  </outline>
</glyph>
<glyph name="n" format="2">
  <advance width="1047"/>
  <unicode hex="006E"/>
  <anchor x="458" y="0" name="bottom"/>
  <anchor x="590" y="939" name="top"/>
  <outline>
    <contour>
      <point x="193" y="0" type="line"/>
      <point x="259" y="0" type="line"/>
      <point x="303" y="472" type="line" smooth="yes"/>
      <point x="326" y="721"/>
      <point x="439" y="899"/>
      <point x="635" y="899" type="curve" smooth="yes"/>
      <point x="794" y="899"/>
      <point x="893" y="783"/>
      <point x="872" y="555" type="curve" smooth="yes"/>
      <point x="820" y="0" type="line"/>
      <point x="880" y="0" type="line"/>
      <point x="932" y="555" type="line"/>
      <point x="960" y="819"/>
      <point x="838" y="960"/>
      <point x="647" y="960" type="curve" smooth="yes"/>
      <point x="500" y="960"/>
      <point x="389" y="876"/>
      <point x="325" y="731" type="curve"/>
      <point x="336" y="939" type="line"/>
      <point x="281" y="939" type="line"/>
    </contour>
  </outline>
</glyph>
<glyph name="o" format="2">
  <advance width="943"/>
  <unicode hex="006F"/>
  <anchor x="406" y="0" name="bottom"/>
  <anchor x="472" y="470" name="center"/>
  <anchor x="784" y="10" name="ogonek"/>
  <anchor x="538" y="939" name="top"/>
  <anchor x="989" y="939" name="topright"/>
  <outline>
    <contour>
      <point x="468" y="-15" type="curve" smooth="yes"/>
      <point x="697" y="-15"/>
      <point x="863" y="163"/>
      <point x="892" y="471" type="curve" smooth="yes"/>
      <point x="921" y="774"/>
      <point x="794" y="960"/>
      <point x="562" y="960" type="curve" smooth="yes"/>
      <point x="334" y="960"/>
      <point x="169" y="781"/>
      <point x="138" y="471" type="curve" smooth="yes"/>
      <point x="107" y="160"/>
      <point x="240" y="-15"/>
    </contour>
    <contour>
      <point x="471" y="45" type="curve" smooth="yes"/>
      <point x="259" y="45"/>
      <point x="189" y="224"/>
      <point x="212" y="471" type="curve" smooth="yes"/>
      <point x="236" y="729"/>
      <point x="345" y="898"/>
      <point x="553" y="898" type="curve" smooth="yes"/>
      <point x="764" y="898"/>
      <point x="849" y="724"/>
      <point x="824" y="471" type="curve" smooth="yes"/>
      <point x="799" y="219"/>
      <point x="680" y="45"/>
    </contour>
  </outline>
</glyph>
<glyph name="p" format="2">
  <advance width="1040"/>
  <unicode hex="0070"/>
  <anchor x="454" y="0" name="bottom"/>
  <anchor x="586" y="939" name="top"/>
  <outline>
    <contour>
      <point x="151" y="-466" type="line"/>
      <point x="217" y="-466" type="line"/>
      <point x="278" y="157" type="line"/>
      <point x="322" y="48"/>
      <point x="414" y="-15"/>
      <point x="530" y="-15" type="curve" smooth="yes"/>
      <point x="729" y="-15"/>
      <point x="921" y="170"/>
      <point x="949" y="473" type="curve" smooth="yes"/>
      <point x="977" y="777"/>
      <point x="821" y="960"/>
      <point x="626" y="960" type="curve" smooth="yes"/>
      <point x="509" y="960"/>
      <point x="404" y="894"/>
      <point x="334" y="777" type="curve"/>
      <point x="336" y="830"/>
      <point x="336" y="886"/>
      <point x="338" y="939" type="curve"/>
      <point x="285" y="939" type="line"/>
    </contour>
    <contour>
      <point x="546" y="44" type="curve" smooth="yes"/>
      <point x="416" y="44"/>
      <point x="277" y="160"/>
      <point x="296" y="384" type="curve" smooth="yes"/>
      <point x="313" y="556" type="line" smooth="yes"/>
      <point x="335" y="783"/>
      <point x="479" y="899"/>
      <point x="620" y="899" type="curve" smooth="yes"/>
      <point x="780" y="899"/>
      <point x="903" y="748"/>
      <point x="877" y="473" type="curve" smooth="yes"/>
      <point x="850" y="193"/>
      <point x="693" y="44"/>
    </contour>
  </outline>
</glyph>
<glyph name="q" format="2">
  <advance width="1002"/>
  <unicode hex="0071"/>
  <anchor x="435" y="0" name="bottom"/>
  <anchor x="567" y="939" name="top"/>
  <outline>
    <contour>
      <point x="873" y="-481" type="curve"/>
      <point x="908" y="-413" type="line"/>
      <point x="796" y="-368"/>
      <point x="772" y="-329"/>
      <point x="787" y="-175" type="curve" smooth="yes"/>
      <point x="893" y="939" type="line"/>
      <point x="838" y="939" type="line"/>
      <point x="809" y="772" type="line"/>
      <point x="773" y="891"/>
      <point x="678" y="960"/>
      <point x="559" y="960" type="curve" smooth="yes"/>
      <point x="366" y="960"/>
      <point x="173" y="777"/>
      <point x="143" y="473" type="curve" smooth="yes"/>
      <point x="114" y="173"/>
      <point x="267" y="-15"/>
      <point x="462" y="-15" type="curve" smooth="yes"/>
      <point x="584" y="-15"/>
      <point x="695" y="59"/>
      <point x="757" y="182" type="curve"/>
      <point x="725" y="-174" type="line"/>
      <point x="705" y="-355"/>
      <point x="740" y="-435"/>
    </contour>
    <contour>
      <point x="472" y="44" type="curve" smooth="yes"/>
      <point x="319" y="44"/>
      <point x="189" y="189"/>
      <point x="216" y="473" type="curve" smooth="yes"/>
      <point x="243" y="751"/>
      <point x="397" y="899"/>
      <point x="548" y="899" type="curve" smooth="yes"/>
      <point x="669" y="899"/>
      <point x="790" y="806"/>
      <point x="801" y="619" type="curve"/>
      <point x="778" y="384" type="line" smooth="yes"/>
      <point x="757" y="164"/>
      <point x="612" y="44"/>
    </contour>
  </outline>
</glyph>
<glyph name="r" format="2">
  <advance width="619"/>
  <unicode hex="0072"/>
  <anchor x="244" y="0" name="bottom"/>
  <anchor x="376" y="939" name="top"/>
  <outline>
    <contour>
      <point x="193" y="0" type="line"/>
      <point x="259" y="0" type="line"/>
      <point x="296" y="439" type="line" smooth="yes"/>
      <point x="318" y="698"/>
      <point x="381" y="898"/>
      <point x="549" y="898" type="curve" smooth="yes"/>
      <point x="590" y="898"/>
      <point x="632" y="886"/>
      <point x="672" y="869" type="curve"/>
      <point x="690" y="934" type="line"/>
      <point x="651" y="953"/>
      <point x="605" y="957"/>
      <point x="574" y="957" type="curve" smooth="yes"/>
      <point x="457" y="957"/>
      <point x="384" y="900"/>
      <point x="329" y="769" type="curve"/>
      <point x="347" y="941" type="line"/>
      <point x="281" y="941" type="line"/>
    </contour>
  </outline>
</glyph>
<glyph name="s" format="2">
  <advance width="944"/>
  <unicode hex="0073"/>
  <anchor x="536" y="0" name="bottom"/>
  <anchor x="568" y="939" name="top"/>
  <outline>
    <contour>
      <point x="476" y="-15" type="curve" smooth="yes"/>
      <point x="691" y="-15"/>
      <point x="816" y="102"/>
      <point x="832" y="239" type="curve" smooth="yes"/>
      <point x="847" y="366"/>
      <point x="763" y="443"/>
      <point x="613" y="489" type="curve" smooth="yes"/>
      <point x="483" y="529" type="line" smooth="yes"/>
      <point x="360" y="567"/>
      <point x="288" y="628"/>
      <point x="301" y="725" type="curve" smooth="yes"/>
      <point x="312" y="809"/>
      <point x="385" y="902"/>
      <point x="556" y="902" type="curve" smooth="yes"/>
      <point x="684" y="902"/>
      <point x="772" y="849"/>
      <point x="777" y="743" type="curve"/>
      <point x="848" y="743" type="line"/>
      <point x="853" y="868"/>
      <point x="741" y="960"/>
      <point x="557" y="960" type="curve" smooth="yes"/>
      <point x="365" y="960"/>
      <point x="248" y="860"/>
      <point x="233" y="720" type="curve" smooth="yes"/>
      <point x="219" y="593"/>
      <point x="299" y="519"/>
      <point x="447" y="469" type="curve" smooth="yes"/>
      <point x="586" y="422" type="line" smooth="yes"/>
      <point x="709" y="380"/>
      <point x="777" y="336"/>
      <point x="766" y="239" type="curve" smooth="yes"/>
      <point x="752" y="119"/>
      <point x="631" y="41"/>
      <point x="484" y="41" type="curve" smooth="yes"/>
      <point x="330" y="41"/>
      <point x="216" y="127"/>
      <point x="222" y="267" type="curve"/>
      <point x="154" y="267" type="line"/>
      <point x="150" y="121"/>
      <point x="245" y="-15"/>
    </contour>
  </outline>
</glyph>
<glyph name="t" format="2">
  <advance width="639"/>
  <unicode hex="0074"/>
  <anchor x="457" y="0" name="bottom"/>
  <anchor x="320" y="470" name="center"/>
  <anchor x="456" y="1059" name="top"/>
  <anchor x="685" y="939" name="topright"/>
  <outline>
    <contour>
      <point x="429" y="-15" type="curve" smooth="yes"/>
      <point x="484" y="-15"/>
      <point x="542" y="-2"/>
      <point x="604" y="32" type="curve"/>
      <point x="600" y="86" type="line"/>
      <point x="540" y="60"/>
      <point x="487" y="45"/>
      <point x="431" y="45" type="curve" smooth="yes"/>
      <point x="339" y="45"/>
      <point x="291" y="105"/>
      <point x="302" y="220" type="curve" smooth="yes"/>
      <point x="368" y="905" type="line"/>
      <point x="319" y="885" type="line"/>
      <point x="668" y="885" type="line"/>
      <point x="676" y="939" type="line"/>
      <point x="326" y="939" type="line"/>
      <point x="366" y="894" type="line"/>
      <point x="400" y="1215" type="line"/>
      <point x="334" y="1215" type="line"/>
      <point x="300" y="894" type="line"/>
      <point x="350" y="939" type="line"/>
      <point x="154" y="939" type="line"/>
      <point x="142" y="885" type="line"/>
      <point x="347" y="885" type="line"/>
      <point x="306" y="905" type="line"/>
      <point x="244" y="224" type="line" smooth="yes"/>
      <point x="228" y="62"/>
      <point x="300" y="-15"/>
    </contour>
  </outline>
</glyph>
<glyph name="u" format="2">
  <advance width="1049"/>
  <unicode hex="0075"/>
  <anchor x="459" y="0" name="bottom"/>
  <anchor x="829" y="25" name="ogonek"/>
  <anchor x="591" y="939" name="top"/>
  <anchor x="1095" y="939" name="topright"/>
  <outline>
    <contour>
      <point x="476" y="-18" type="curve" smooth="yes"/>
      <point x="617" y="-18"/>
      <point x="734" y="69"/>
      <point x="806" y="207" type="curve"/>
      <point x="786" y="0" type="line"/>
      <point x="849" y="0" type="line"/>
      <point x="939" y="941" type="line"/>
      <point x="873" y="941" type="line"/>
      <point x="829" y="472" type="line" smooth="yes"/>
      <point x="809" y="252"/>
      <point x="683" y="46"/>
      <point x="486" y="46" type="curve" smooth="yes"/>
      <point x="317" y="46"/>
      <point x="240" y="148"/>
      <point x="263" y="345" type="curve" smooth="yes"/>
      <point x="316" y="941" type="line"/>
      <point x="250" y="941" type="line"/>
      <point x="195" y="346" type="line"/>
      <point x="177" y="115"/>
      <point x="273" y="-18"/>
    </contour>
  </outline>
</glyph>
<glyph name="v" format="2">
  <advance width="876"/>
  <unicode hex="0076"/>
  <anchor x="372" y="0" name="bottom"/>
  <anchor x="504" y="939" name="top"/>
  <outline>
    <contour>
      <point x="131" y="939" type="line"/>
      <point x="402" y="0" type="line"/>
      <point x="469" y="0" type="line"/>
      <point x="916" y="939" type="line"/>
      <point x="848" y="939" type="line"/>
      <point x="446" y="90" type="line"/>
      <point x="199" y="939" type="line"/>
    </contour>
  </outline>
</glyph>
<glyph name="w" format="2">
  <advance width="1239"/>
  <unicode hex="0077"/>
  <anchor x="554" y="0" name="bottom"/>
  <anchor x="686" y="939" name="top"/>
  <outline>
    <contour>
      <point x="131" y="939" type="line"/>
      <point x="325" y="0" type="line"/>
      <point x="384" y="0" type="line"/>
      <point x="688" y="766" type="line"/>
      <point x="855" y="0" type="line"/>
      <point x="914" y="0" type="line"/>
      <point x="1280" y="939" type="line"/>
      <point x="1214" y="939" type="line"/>
      <point x="891" y="93" type="line"/>
      <point x="722" y="901" type="line"/>
      <point x="682" y="901" type="line"/>
      <point x="367" y="107" type="line"/>
      <point x="198" y="939" type="line"/>
    </contour>
  </outline>
</glyph>
<glyph name="x" format="2">
  <advance width="839"/>
  <unicode hex="0078"/>
  <anchor x="354" y="0" name="bottom"/>
  <anchor x="486" y="939" name="top"/>
  <outline>
    <contour>
      <point x="66" y="0" type="line"/>
      <point x="144" y="0" type="line"/>
      <point x="453" y="416" type="line"/>
      <point x="691" y="0" type="line"/>
      <point x="770" y="0" type="line"/>
      <point x="499" y="471" type="line"/>
      <point x="862" y="941" type="line"/>
      <point x="783" y="941" type="line"/>
      <point x="474" y="529" type="line"/>
      <point x="232" y="941" type="line"/>
      <point x="153" y="941" type="line"/>
      <point x="422" y="471" type="line"/>
    </contour>
  </outline>
</glyph>
<glyph name="y" format="2">
  <advance width="833"/>
  <unicode hex="0079"/>
  <anchor x="351" y="0" name="bottom"/>
  <anchor x="483" y="939" name="top"/>
  <outline>
    <contour>
      <point x="154" y="-481" type="curve" smooth="yes"/>
      <point x="290" y="-481"/>
      <point x="379" y="-360"/>
      <point x="436" y="-205" type="curve" smooth="yes"/>
      <point x="849" y="939" type="line"/>
      <point x="783" y="939" type="line"/>
      <point x="479" y="113" type="line"/>
      <point x="243" y="939" type="line"/>
      <point x="176" y="939" type="line"/>
      <point x="440" y="0" type="line"/>
      <point x="404" y="-102" type="line" smooth="yes"/>
      <point x="362" y="-239"/>
      <point x="294" y="-417"/>
      <point x="160" y="-417" type="curve" smooth="yes"/>
      <point x="94" y="-417"/>
      <point x="42" y="-393"/>
      <point x="-9" y="-330" type="curve"/>
      <point x="-17" y="-405" type="line"/>
      <point x="38" y="-453"/>
      <point x="89" y="-481"/>
    </contour>
  </outline>
</glyph>
<glyph name="z" format="2">
  <advance width="815"/>
  <unicode hex="007A"/>
  <anchor x="342" y="0" name="bottom"/>
  <anchor x="408" y="470" name="center"/>
  <anchor x="474" y="939" name="top"/>
  <outline>
    <contour>
      <point x="89" y="0" type="line"/>
      <point x="732" y="0" type="line"/>
      <point x="733" y="59" type="line"/>
      <point x="172" y="59" type="line"/>
      <point x="812" y="880" type="line"/>
      <point x="819" y="939" type="line"/>
      <point x="177" y="939" type="line"/>
      <point x="170" y="880" type="line"/>
      <point x="732" y="880" type="line"/>
      <point x="91" y="59" type="line"/>
    </contour>
  </outline>
</glyph>
<glyph name="braceleft" format="2">
  <advance width="545"/>
  <unicode hex="007B"/>
  <outline>
    <contour>
      <point x="499" y="-237" type="curve"/>
      <point x="507" y="-181" type="line"/>
      <point x="326" y="-181"/>
      <point x="290" y="-42"/>
      <point x="310" y="194" type="curve" smooth="yes"/>
      <point x="324" y="373" type="line"/>
      <point x="338" y="493"/>
      <point x="319" y="554"/>
      <point x="276" y="576" type="curve"/>
      <point x="280" y="581" type="line"/>
      <point x="323" y="607"/>
      <point x="355" y="664"/>
      <point x="367" y="784" type="curve" smooth="yes"/>
      <point x="381" y="959" type="line"/>
      <point x="405" y="1196"/>
      <point x="475" y="1338"/>
      <point x="651" y="1338" type="curve"/>
      <point x="654" y="1394" type="line"/>
      <point x="426" y="1394"/>
      <point x="341" y="1207"/>
      <point x="317" y="959" type="curve" smooth="yes"/>
      <point x="303" y="779" type="line"/>
      <point x="289" y="659"/>
      <point x="261" y="608"/>
      <point x="217" y="608" type="curve" smooth="yes"/>
      <point x="202" y="608" type="line"/>
      <point x="197" y="549" type="line"/>
      <point x="209" y="549" type="line" smooth="yes"/>
      <point x="251" y="549"/>
      <point x="274" y="497"/>
      <point x="262" y="378" type="curve"/>
      <point x="246" y="192" type="line" smooth="yes"/>
      <point x="222" y="-56"/>
      <point x="271" y="-237"/>
    </contour>
  </outline>
</glyph>
<glyph name="bar" format="2">
  <advance width="456"/>
  <unicode hex="007C"/>
  <outline>
    <contour>
      <point x="173" y="-244" type="line"/>
      <point x="239" y="-244" type="line"/>
      <point x="397" y="1454" type="line"/>
      <point x="331" y="1454" type="line"/>
    </contour>
  </outline>
</glyph>
<glyph name="braceright" format="2">
  <advance width="435"/>
  <unicode hex="007D"/>
  <outline>
    <contour>
      <point x="-15" y="-237" type="line"/>
      <point x="213" y="-237"/>
      <point x="298" y="-50"/>
      <point x="322" y="198" type="curve" smooth="yes"/>
      <point x="336" y="378" type="line" smooth="yes"/>
      <point x="346" y="499"/>
      <point x="379" y="549"/>
      <point x="422" y="549" type="curve" smooth="yes"/>
      <point x="437" y="549" type="line"/>
      <point x="442" y="608" type="line"/>
      <point x="430" y="608" type="line" smooth="yes"/>
      <point x="394" y="608"/>
      <point x="373" y="636"/>
      <point x="373" y="730" type="curve" smooth="yes"/>
      <point x="373" y="744"/>
      <point x="375" y="757"/>
      <point x="377" y="779" type="curve" smooth="yes"/>
      <point x="393" y="965" type="line" smooth="yes"/>
      <point x="393" y="991"/>
      <point x="397" y="1023"/>
      <point x="397" y="1049" type="curve" smooth="yes"/>
      <point x="402" y="1253"/>
      <point x="343" y="1394"/>
      <point x="140" y="1394" type="curve"/>
      <point x="133" y="1338" type="line"/>
      <point x="287" y="1338"/>
      <point x="338" y="1231"/>
      <point x="333" y="1048" type="curve" smooth="yes"/>
      <point x="333" y="1029"/>
      <point x="333" y="1009"/>
      <point x="329" y="963" type="curve" smooth="yes"/>
      <point x="316" y="784" type="line" smooth="yes"/>
      <point x="314" y="770"/>
      <point x="314" y="750"/>
      <point x="314" y="738" type="curve" smooth="yes"/>
      <point x="311" y="646"/>
      <point x="329" y="601"/>
      <point x="364" y="581" type="curve"/>
      <point x="364" y="580" type="line"/>
      <point x="321" y="554"/>
      <point x="284" y="493"/>
      <point x="272" y="373" type="curve" smooth="yes"/>
      <point x="258" y="198" type="line" smooth="yes"/>
      <point x="240" y="-39"/>
      <point x="165" y="-181"/>
      <point x="-11" y="-181" type="curve"/>
    </contour>
  </outline>
</glyph>
<glyph name="asciitilde" format="2">
  <advance width="817"/>
  <unicode hex="007E"/>
  <anchor x="492" y="350" name="_above"/>
  <outline>
    <contour>
      <point x="175" y="487" type="line"/>
      <point x="208" y="571"/>
      <point x="255" y="601"/>
      <point x="288" y="601" type="curve" smooth="yes"/>
      <point x="320" y="601"/>
      <point x="352" y="589"/>
      <point x="453" y="538" type="curve" smooth="yes"/>
      <point x="545" y="503"/>
      <point x="591" y="482"/>
      <point x="622" y="482" type="curve" smooth="yes"/>
      <point x="682" y="482"/>
      <point x="743" y="533"/>
      <point x="790" y="649" type="curve"/>
      <point x="757" y="672" type="line"/>
      <point x="719" y="598"/>
      <point x="671" y="556"/>
      <point x="627" y="556" type="curve" smooth="yes"/>
      <point x="595" y="556"/>
      <point x="570" y="566"/>
      <point x="463" y="612" type="curve" smooth="yes"/>
      <point x="370" y="659"/>
      <point x="335" y="668"/>
      <point x="300" y="668" type="curve" smooth="yes"/>
      <point x="246" y="668"/>
      <point x="177" y="619"/>
      <point x="131" y="509" type="curve"/>
    </contour>
  </outline>
</glyph>
<glyph name="cent" format="2">
  <advance width="896"/>
  <unicode hex="00A2"/>
  <guideline x="528" y="14" angle="80.2476"/>
  <anchor x="539" y="0" name="bottom"/>
  <anchor x="585" y="939" name="top"/>
  <outline>
    <contour>
      <point x="579" y="950" type="line"/>
      <point x="633" y="950" type="line"/>
      <point x="666" y="1142" type="line"/>
      <point x="612" y="1142" type="line"/>
    </contour>
    <contour>
      <point x="401" y="-178" type="line"/>
      <point x="457" y="-178" type="line"/>
      <point x="489" y="14" type="line"/>
      <point x="434" y="14" type="line"/>
    </contour>
    <component base="c" xOffset="11"/>
  </outline>
</glyph>
<glyph name="sterling" format="2">
  <advance width="942"/>
  <unicode hex="00A3"/>
  <outline>
    <contour>
      <point x="32" y="0" type="line"/>
      <point x="629" y="0" type="line" smooth="yes"/>
      <point x="804" y="0"/>
      <point x="870" y="98"/>
      <point x="902" y="243" type="curve"/>
      <point x="841" y="243" type="line"/>
      <point x="811" y="116"/>
      <point x="752" y="55"/>
      <point x="638" y="55" type="curve" smooth="yes"/>
      <point x="213" y="55" type="line"/>
      <point x="271" y="85"/>
      <point x="291" y="147"/>
      <point x="301" y="241" type="curve" smooth="yes"/>
      <point x="328" y="504" type="line"/>
      <point x="677" y="504" type="line"/>
      <point x="683" y="566" type="line"/>
      <point x="333" y="566" type="line"/>
      <point x="362" y="838" type="line" smooth="yes"/>
      <point x="382" y="1069"/>
      <point x="473" y="1164"/>
      <point x="619" y="1164" type="curve" smooth="yes"/>
      <point x="714" y="1164"/>
      <point x="793" y="1108"/>
      <point x="810" y="987" type="curve"/>
      <point x="872" y="987" type="line"/>
      <point x="862" y="1143"/>
      <point x="762" y="1232"/>
      <point x="627" y="1232" type="curve" smooth="yes"/>
      <point x="413" y="1232"/>
      <point x="320" y="1072"/>
      <point x="296" y="838" type="curve" smooth="yes"/>
      <point x="271" y="566" type="line"/>
      <point x="92" y="566" type="line"/>
      <point x="87" y="504" type="line"/>
      <point x="262" y="504" type="line"/>
      <point x="237" y="242" type="line" smooth="yes"/>
      <point x="229" y="116"/>
      <point x="173" y="55"/>
      <point x="78" y="55" type="curve" smooth="yes"/>
      <point x="35" y="55" type="line"/>
    </contour>
  </outline>
</glyph>
<glyph name="currency" format="2">
  <advance width="1200"/>
  <unicode hex="00A4"/>
  <guideline x="592" y="602" angle="41.2607"/>
  <guideline x="595" y="598" angle="310.70029999999997"/>
  <guideline x="834" y="792" angle="41.2607"/>
  <guideline x="814" y="812" angle="41.2607"/>
  <guideline x="647" y="571" angle="41.2607"/>
  <guideline x="812" y="402" angle="310.70029999999997"/>
  <guideline x="784" y="377" angle="310.70029999999997"/>
  <outline>
    <contour>
      <point x="577" y="273" type="curve" smooth="yes"/>
      <point x="753" y="273"/>
      <point x="914" y="418"/>
      <point x="925" y="602" type="curve" smooth="yes"/>
      <point x="935" y="779"/>
      <point x="801" y="927"/>
      <point x="619" y="927" type="curve" smooth="yes"/>
      <point x="435" y="927"/>
      <point x="283" y="774"/>
      <point x="270" y="602" type="curve" smooth="yes"/>
      <point x="257" y="421"/>
      <point x="400" y="273"/>
    </contour>
    <contour>
      <point x="214" y="229" type="line"/>
      <point x="372" y="372" type="line"/>
      <point x="342" y="407" type="line"/>
      <point x="182" y="264" type="line"/>
    </contour>
    <contour>
      <point x="907" y="224" type="line"/>
      <point x="946" y="258" type="line"/>
      <point x="819" y="403" type="line"/>
      <point x="783" y="367" type="line"/>
    </contour>
    <contour>
      <point x="579" y="349" type="curve" smooth="yes"/>
      <point x="442" y="349"/>
      <point x="336" y="458"/>
      <point x="347" y="602" type="curve" smooth="yes"/>
      <point x="358" y="743"/>
      <point x="478" y="851"/>
      <point x="616" y="851" type="curve" smooth="yes"/>
      <point x="753" y="851"/>
      <point x="858" y="745"/>
      <point x="849" y="602" type="curve" smooth="yes"/>
      <point x="839" y="455"/>
      <point x="714" y="349"/>
    </contour>
    <contour>
      <point x="401" y="809" type="line"/>
      <point x="441" y="840" type="line"/>
      <point x="308" y="995" type="line"/>
      <point x="270" y="960" type="line"/>
    </contour>
    <contour>
      <point x="847" y="787" type="line"/>
      <point x="1006" y="929" type="line"/>
      <point x="971" y="965" type="line"/>
      <point x="809" y="823" type="line"/>
    </contour>
  </outline>
</glyph>
<glyph name="yen" format="2">
  <advance width="879"/>
  <unicode hex="00A5"/>
  <anchor x="374" y="0" name="bottom"/>
  <anchor x="545" y="1215" name="top"/>
  <anchor x="125" y="1215" name="topleft"/>
  <outline>
    <contour>
      <point x="773" y="427" type="line"/>
      <point x="785" y="488" type="line"/>
      <point x="206" y="488" type="line"/>
      <point x="198" y="427" type="line"/>
    </contour>
    <contour>
      <point x="764" y="295" type="line"/>
      <point x="774" y="356" type="line"/>
      <point x="199" y="356" type="line"/>
      <point x="188" y="295" type="line"/>
    </contour>
    <component base="Y"/>
  </outline>
</glyph>
<glyph name="brokenbar" format="2">
  <advance width="456"/>
  <unicode hex="00A6"/>
  <outline>
    <contour>
      <point x="173" y="-244" type="line"/>
      <point x="239" y="-244" type="line"/>
      <point x="311.021" y="530" type="line"/>
      <point x="245.021" y="530" type="line"/>
    </contour>
    <contour>
      <point x="258.979" y="680" type="line"/>
      <point x="324.979" y="680" type="line"/>
      <point x="397" y="1454" type="line"/>
      <point x="331" y="1454" type="line"/>
    </contour>
  </outline>
</glyph>
<glyph name="section" format="2">
  <advance width="984"/>
  <unicode hex="00A7"/>
  <outline>
    <contour>
      <point x="561" y="236" type="line"/>
      <point x="763" y="238"/>
      <point x="890" y="352"/>
      <point x="907" y="492" type="curve" smooth="yes"/>
      <point x="922" y="619"/>
      <point x="838" y="696"/>
      <point x="688" y="742" type="curve" smooth="yes"/>
      <point x="558" y="782" type="line" smooth="yes"/>
      <point x="435" y="820"/>
      <point x="363" y="881"/>
      <point x="376" y="978" type="curve" smooth="yes"/>
      <point x="387" y="1062"/>
      <point x="460" y="1155"/>
      <point x="631" y="1155" type="curve" smooth="yes"/>
      <point x="759" y="1155"/>
      <point x="847" y="1102"/>
      <point x="852" y="996" type="curve"/>
      <point x="923" y="996" type="line"/>
      <point x="928" y="1121"/>
      <point x="816" y="1213"/>
      <point x="632" y="1213" type="curve" smooth="yes"/>
      <point x="440" y="1213"/>
      <point x="323" y="1113"/>
      <point x="308" y="973" type="curve" smooth="yes"/>
      <point x="294" y="846"/>
      <point x="374" y="772"/>
      <point x="522" y="722" type="curve" smooth="yes"/>
      <point x="661" y="675" type="line" smooth="yes"/>
      <point x="784" y="633"/>
      <point x="852" y="589"/>
      <point x="841" y="492" type="curve" smooth="yes"/>
      <point x="828" y="377"/>
      <point x="711" y="294"/>
      <point x="569" y="292" type="curve"/>
    </contour>
    <contour>
      <point x="449" y="-205" type="curve" smooth="yes"/>
      <point x="664" y="-205"/>
      <point x="789" y="-88"/>
      <point x="805" y="49" type="curve" smooth="yes"/>
      <point x="820" y="176"/>
      <point x="736" y="253"/>
      <point x="586" y="299" type="curve" smooth="yes"/>
      <point x="456" y="339" type="line" smooth="yes"/>
      <point x="333" y="377"/>
      <point x="261" y="438"/>
      <point x="274" y="535" type="curve" smooth="yes"/>
      <point x="285" y="620"/>
      <point x="359" y="712"/>
      <point x="529" y="722" type="curve"/>
      <point x="530" y="780" type="line"/>
      <point x="338" y="770"/>
      <point x="221" y="670"/>
      <point x="206" y="530" type="curve" smooth="yes"/>
      <point x="192" y="403"/>
      <point x="272" y="329"/>
      <point x="420" y="279" type="curve" smooth="yes"/>
      <point x="559" y="232" type="line" smooth="yes"/>
      <point x="682" y="190"/>
      <point x="750" y="146"/>
      <point x="739" y="49" type="curve" smooth="yes"/>
      <point x="725" y="-71"/>
      <point x="604" y="-149"/>
      <point x="457" y="-149" type="curve" smooth="yes"/>
      <point x="303" y="-149"/>
      <point x="189" y="-63"/>
      <point x="195" y="77" type="curve"/>
      <point x="127" y="77" type="line"/>
      <point x="123" y="-69"/>
      <point x="218" y="-205"/>
    </contour>
  </outline>
</glyph>
<glyph name="dieresis" format="2">
  <advance width="467"/>
  <unicode hex="00A8"/>
  <anchor x="290" y="1360" name="_above"/>
  <outline>
    <contour>
      <point x="200" y="1641" type="curve" smooth="yes"/>
      <point x="196" y="1609"/>
      <point x="215" y="1578"/>
      <point x="247" y="1578" type="curve" smooth="yes"/>
      <point x="286" y="1578"/>
      <point x="321" y="1609"/>
      <point x="321" y="1641" type="curve" smooth="yes"/>
      <point x="327" y="1677"/>
      <point x="299" y="1708"/>
      <point x="263" y="1708" type="curve" smooth="yes"/>
      <point x="231" y="1708"/>
      <point x="206" y="1677"/>
    </contour>
    <contour>
      <point x="452" y="1639" type="curve" smooth="yes"/>
      <point x="448" y="1609"/>
      <point x="469" y="1575"/>
      <point x="499" y="1575" type="curve" smooth="yes"/>
      <point x="536" y="1575"/>
      <point x="573" y="1609"/>
      <point x="575" y="1639" type="curve" smooth="yes"/>
      <point x="579" y="1677"/>
      <point x="551" y="1706"/>
      <point x="515" y="1706" type="curve" smooth="yes"/>
      <point x="485" y="1706"/>
      <point x="458" y="1677"/>
    </contour>
  </outline>
</glyph>
<glyph name="copyright" format="2">
  <advance width="1337"/>
  <unicode hex="00A9"/>
  <anchor x="682.4724" y="238.0" name="bottom"/>
  <anchor x="726.32555" y="988.44475" name="top"/>
  <outline>
    <contour>
      <point x="623" y="-12" type="curve" smooth="yes"/>
      <point x="965" y="-12"/>
      <point x="1272" y="266"/>
      <point x="1308" y="608" type="curve" smooth="yes"/>
      <point x="1344" y="950"/>
      <point x="1095" y="1228"/>
      <point x="753" y="1228" type="curve" smooth="yes"/>
      <point x="411" y="1228"/>
      <point x="104" y="950"/>
      <point x="68" y="608" type="curve" smooth="yes"/>
      <point x="32" y="266"/>
      <point x="281" y="-12"/>
    </contour>
    <contour>
      <point x="628" y="35" type="curve" smooth="yes"/>
      <point x="312" y="35"/>
      <point x="82" y="292"/>
      <point x="115" y="608" type="curve" smooth="yes"/>
      <point x="148" y="924"/>
      <point x="432" y="1181"/>
      <point x="748" y="1181" type="curve" smooth="yes"/>
      <point x="1064" y="1181"/>
      <point x="1294" y="924"/>
      <point x="1261" y="608" type="curve" smooth="yes"/>
      <point x="1228" y="292"/>
      <point x="944" y="35"/>
    </contour>
    <component base="C" xScale="0.61765" yScale="0.61765" xOffset="302" yOffset="238"/>
  </outline>
</glyph>
<glyph name="logicalnot" format="2">
  <advance width="1200"/>
  <unicode hex="00AC"/>
  <outline>
    <contour>
      <point x="261" y="591" type="line"/>
      <point x="253" y="530" type="line"/>
      <point x="866" y="530" type="line"/>
      <point x="843" y="567" type="line"/>
      <point x="804" y="289" type="line"/>
      <point x="876" y="289" type="line"/>
      <point x="918" y="591" type="line"/>
    </contour>
  </outline>
</glyph>
<glyph name="registered" format="2">
  <advance width="1337"/>
  <unicode hex="00AE"/>
  <anchor x="619.644" y="206.0" name="bottom"/>
  <anchor x="732.7605" y="1009.7225" name="top"/>
  <outline>
    <contour>
      <point x="623" y="-12" type="curve" smooth="yes"/>
      <point x="965" y="-12"/>
      <point x="1272" y="266"/>
      <point x="1308" y="608" type="curve" smooth="yes"/>
      <point x="1344" y="950"/>
      <point x="1095" y="1228"/>
      <point x="753" y="1228" type="curve" smooth="yes"/>
      <point x="411" y="1228"/>
      <point x="104" y="950"/>
      <point x="68" y="608" type="curve" smooth="yes"/>
      <point x="32" y="266"/>
      <point x="281" y="-12"/>
    </contour>
    <contour>
      <point x="628" y="35" type="curve" smooth="yes"/>
      <point x="312" y="35"/>
      <point x="82" y="292"/>
      <point x="115" y="608" type="curve" smooth="yes"/>
      <point x="148" y="924"/>
      <point x="432" y="1181"/>
      <point x="748" y="1181" type="curve" smooth="yes"/>
      <point x="1064" y="1181"/>
      <point x="1294" y="924"/>
      <point x="1261" y="608" type="curve" smooth="yes"/>
      <point x="1228" y="292"/>
      <point x="944" y="35"/>
    </contour>
    <component base="R" xScale="0.6615" yScale="0.6615" xOffset="318" yOffset="206"/>
  </outline>
</glyph>
<glyph name="degree" format="2">
  <advance width="584"/>
  <unicode hex="00B0"/>
  <outline>
    <contour>
      <point x="374" y="960" type="curve" smooth="yes"/>
      <point x="501" y="960"/>
      <point x="614" y="1064"/>
      <point x="625" y="1192" type="curve" smooth="yes"/>
      <point x="636" y="1319"/>
      <point x="541" y="1423"/>
      <point x="414" y="1423" type="curve" smooth="yes"/>
      <point x="286" y="1423"/>
      <point x="173" y="1319"/>
      <point x="162" y="1192" type="curve" smooth="yes"/>
      <point x="151" y="1064"/>
      <point x="246" y="960"/>
    </contour>
    <contour>
      <point x="378" y="1011" type="curve" smooth="yes"/>
      <point x="280" y="1011"/>
      <point x="204" y="1093"/>
      <point x="213" y="1192" type="curve" smooth="yes"/>
      <point x="222" y="1288"/>
      <point x="308" y="1371"/>
      <point x="408" y="1371" type="curve" smooth="yes"/>
      <point x="507" y="1371"/>
      <point x="581" y="1290"/>
      <point x="573" y="1192" type="curve" smooth="yes"/>
      <point x="565" y="1094"/>
      <point x="477" y="1011"/>
    </contour>
  </outline>
</glyph>
<glyph name="plusminus" format="2">
  <advance width="797"/>
  <unicode hex="00B1"/>
  <guideline x="502" y="978" angle="85.1547"/>
  <outline>
    <contour>
      <point x="436" y="978" type="line"/>
      <point x="406" y="626" type="line"/>
      <point x="56" y="626" type="line"/>
      <point x="53" y="570" type="line"/>
      <point x="401" y="570" type="line"/>
      <point x="372" y="223" type="line"/>
      <point x="438" y="223" type="line"/>
      <point x="467" y="570" type="line"/>
      <point x="828" y="570" type="line"/>
      <point x="831" y="626" type="line"/>
      <point x="472" y="626" type="line"/>
      <point x="502" y="978" type="line"/>
    </contour>
    <component base="minus" xOffset="-90" yOffset="-461"/>
  </outline>
</glyph>
<glyph name="paragraph" format="2">
  <advance width="1200"/>
  <unicode hex="00B6"/>
  <outline>
    <contour>
      <point x="541" y="496" type="curve" smooth="yes"/>
      <point x="598" y="496" type="line"/>
      <point x="667" y="1150" type="line"/>
      <point x="927" y="1150" type="line"/>
      <point x="933" y="1213" type="line"/>
      <point x="616" y="1213" type="line" smooth="yes"/>
      <point x="355" y="1213"/>
      <point x="213" y="1061"/>
      <point x="191" y="852" type="curve" smooth="yes"/>
      <point x="169" y="642"/>
      <point x="281" y="496"/>
    </contour>
    <contour>
      <point x="495" y="-252" type="line"/>
      <point x="559" y="-252" type="line"/>
      <point x="713" y="1213" type="line"/>
      <point x="649" y="1213" type="line"/>
    </contour>
    <contour>
      <point x="745" y="-252" type="line"/>
      <point x="809" y="-252" type="line"/>
      <point x="963" y="1213" type="line"/>
      <point x="899" y="1213" type="line"/>
    </contour>
  </outline>
</glyph>
<glyph name="AE" format="2">
  <advance width="1411"/>
  <unicode hex="00C6"/>
  <guideline x="550" y="1234" angle="248.0626" name=" [locked]"/>
  <guideline x="596" y="1180" angle="248.0626"/>
  <guideline x="1553" y="1152" angle="0"/>
  <guideline x="653" y="0" angle="84.6877"/>
  <guideline x="723" y="0" angle="84.6877"/>
  <guideline x="-209" y="363" angle="0"/>
  <guideline x="1505" y="644" angle="0"/>
  <guideline x="1501" y="586" angle="0"/>
  <guideline x="1453" y="64" angle="0"/>
  <outline>
    <contour>
      <point x="53" y="0" type="line"/>
      <point x="122" y="0" type="line"/>
      <point x="280" y="395" type="line"/>
      <point x="236" y="363" type="line"/>
      <point x="681" y="363" type="line"/>
      <point x="639" y="387" type="line"/>
      <point x="603" y="0" type="line"/>
      <point x="1276" y="0" type="line"/>
      <point x="1283" y="64" type="line"/>
      <point x="667" y="64" type="line"/>
      <point x="678" y="53" type="line"/>
      <point x="731" y="623" type="line"/>
      <point x="711" y="586" type="line"/>
      <point x="1298" y="586" type="line"/>
      <point x="1302" y="644" type="line"/>
      <point x="719" y="644" type="line"/>
      <point x="731" y="624" type="line"/>
      <point x="782" y="1183" type="line"/>
      <point x="763" y="1152" type="line"/>
      <point x="1381" y="1152" type="line"/>
      <point x="1387" y="1215" type="line"/>
      <point x="542" y="1215" type="line"/>
    </contour>
    <contour>
      <point x="640" y="398" type="line"/>
      <point x="690" y="429" type="line"/>
      <point x="277" y="429" type="line"/>
      <point x="285" y="408" type="line"/>
      <point x="596" y="1180" type="line"/>
      <point x="554" y="1152" type="line"/>
      <point x="754" y="1152" type="line"/>
      <point x="713" y="1183" type="line"/>
    </contour>
  </outline>
</glyph>
<glyph name="Eth" format="2">
  <advance width="1142"/>
  <unicode hex="00D0"/>
  <anchor x="505" y="0" name="bottom"/>
  <anchor x="590" y="608" name="center"/>
  <anchor x="676" y="1215" name="top"/>
  <outline>
    <contour>
      <point x="128" y="645" type="line"/>
      <point x="121" y="586" type="line"/>
      <point x="659" y="586" type="line"/>
      <point x="663" y="645" type="line"/>
    </contour>
    <component base="D"/>
  </outline>
</glyph>
<glyph name="multiply" format="2">
  <advance width="980"/>
  <unicode hex="00D7"/>
  <outline>
    <contour>
      <point x="138" y="154" type="line"/>
      <point x="527" y="479" type="line"/>
      <point x="455" y="477" type="line"/>
      <point x="765" y="168" type="line"/>
      <point x="818" y="214" type="line"/>
      <point x="509" y="523" type="line"/>
      <point x="501" y="457" type="line"/>
      <point x="894" y="780" type="line"/>
      <point x="844" y="830" type="line"/>
      <point x="456" y="503" type="line"/>
      <point x="527" y="505" type="line"/>
      <point x="218" y="814" type="line"/>
      <point x="164" y="768" type="line"/>
      <point x="474" y="459" type="line"/>
      <point x="482" y="525" type="line"/>
      <point x="86" y="200" type="line"/>
    </contour>
  </outline>
</glyph>
<glyph name="Thorn" format="2">
  <advance width="946"/>
  <unicode hex="00DE"/>
  <guideline x="312" y="576" angle="84.7428"/>
  <outline>
    <contour>
      <point x="195" y="0" type="line"/>
      <point x="259" y="0" type="line"/>
      <point x="289" y="326" type="line"/>
      <point x="240" y="281" type="line"/>
      <point x="533" y="281" type="line" smooth="yes"/>
      <point x="766" y="281"/>
      <point x="892" y="427"/>
      <point x="912" y="631" type="curve" smooth="yes"/>
      <point x="932" y="838"/>
      <point x="834" y="995"/>
      <point x="603" y="995" type="curve" smooth="yes"/>
      <point x="305" y="995" type="line"/>
      <point x="346" y="950" type="line"/>
      <point x="371" y="1215" type="line"/>
      <point x="309" y="1215" type="line"/>
    </contour>
    <contour>
      <point x="286" y="296" type="line"/>
      <point x="349" y="977" type="line"/>
      <point x="300" y="932" type="line"/>
      <point x="596" y="932" type="line" smooth="yes"/>
      <point x="770" y="932"/>
      <point x="863" y="819"/>
      <point x="847" y="631" type="curve" smooth="yes"/>
      <point x="831" y="448"/>
      <point x="721" y="341"/>
      <point x="541" y="341" type="curve" smooth="yes"/>
      <point x="245" y="341" type="line"/>
    </contour>
  </outline>
</glyph>
<glyph name="germandbls" format="2">
  <advance width="1037"/>
  <unicode hex="00DF"/>
  <outline>
    <contour>
      <point x="657" y="-19" type="curve" smooth="yes"/>
      <point x="791" y="-19"/>
      <point x="926" y="105"/>
      <point x="926" y="268" type="curve" smooth="yes"/>
      <point x="926" y="489"/>
      <point x="677" y="581"/>
      <point x="677" y="701" type="curve" smooth="yes"/>
      <point x="677" y="801"/>
      <point x="848" y="896"/>
      <point x="848" y="1073" type="curve" smooth="yes"/>
      <point x="848" y="1197"/>
      <point x="764" y="1320"/>
      <point x="592" y="1320" type="curve" smooth="yes"/>
      <point x="408" y="1320"/>
      <point x="289" y="1179"/>
      <point x="266" y="925" type="curve" smooth="yes"/>
      <point x="182" y="0" type="line"/>
      <point x="242" y="0" type="line"/>
      <point x="327" y="924" type="line" smooth="yes"/>
      <point x="350" y="1174"/>
      <point x="467" y="1260"/>
      <point x="591" y="1260" type="curve" smooth="yes"/>
      <point x="710" y="1260"/>
      <point x="788" y="1180"/>
      <point x="788" y="1070" type="curve" smooth="yes"/>
      <point x="788" y="906"/>
      <point x="617" y="816"/>
      <point x="617" y="691" type="curve" smooth="yes"/>
      <point x="617" y="541"/>
      <point x="863" y="473"/>
      <point x="863" y="264" type="curve" smooth="yes"/>
      <point x="863" y="121"/>
      <point x="747" y="38"/>
      <point x="657" y="38" type="curve" smooth="yes"/>
      <point x="614" y="38"/>
      <point x="547" y="57"/>
      <point x="491" y="87" type="curve"/>
      <point x="466" y="36" type="line"/>
      <point x="530" y="1"/>
      <point x="603" y="-19"/>
    </contour>
  </outline>
</glyph>
<glyph name="ae" format="2">
  <advance width="1509"/>
  <unicode hex="00E6"/>
  <outline>
    <contour>
      <point x="183" y="251" type="curve" smooth="yes"/>
      <point x="171" y="87"/>
      <point x="283" y="-15"/>
      <point x="419" y="-15" type="curve" smooth="yes"/>
      <point x="549" y="-15"/>
      <point x="706" y="78"/>
      <point x="791" y="248" type="curve"/>
      <point x="768" y="248" type="line"/>
      <point x="786" y="119"/>
      <point x="903" y="-15"/>
      <point x="1083" y="-15" type="curve" smooth="yes"/>
      <point x="1229" y="-15"/>
      <point x="1379" y="73"/>
      <point x="1426" y="269" type="curve"/>
      <point x="1354" y="269" type="line"/>
      <point x="1324" y="126"/>
      <point x="1222" y="45"/>
      <point x="1085" y="45" type="curve" smooth="yes"/>
      <point x="871" y="45"/>
      <point x="804" y="244"/>
      <point x="833" y="500" type="curve"/>
      <point x="784" y="462" type="line"/>
      <point x="1434" y="462" type="line"/>
      <point x="1446" y="518"/>
      <point x="1452" y="583"/>
      <point x="1452" y="630" type="curve" smooth="yes"/>
      <point x="1452" y="824"/>
      <point x="1350" y="960"/>
      <point x="1166" y="960" type="curve" smooth="yes"/>
      <point x="1013" y="960"/>
      <point x="889" y="867"/>
      <point x="819" y="703" type="curve"/>
      <point x="837" y="694" type="line"/>
      <point x="831" y="889"/>
      <point x="724" y="960"/>
      <point x="580" y="960" type="curve" smooth="yes"/>
      <point x="454" y="960"/>
      <point x="277" y="905"/>
      <point x="260" y="701" type="curve"/>
      <point x="337" y="701" type="line"/>
      <point x="346" y="848"/>
      <point x="467" y="901"/>
      <point x="579" y="901" type="curve" smooth="yes"/>
      <point x="711" y="901"/>
      <point x="794" y="827"/>
      <point x="773" y="613" type="curve" smooth="yes"/>
      <point x="754" y="418" type="line"/>
      <point x="785" y="446" type="line"/>
      <point x="700" y="504"/>
      <point x="593" y="530"/>
      <point x="513" y="530" type="curve" smooth="yes"/>
      <point x="361" y="530"/>
      <point x="197" y="436"/>
    </contour>
    <contour>
      <point x="251" y="251" type="curve" smooth="yes"/>
      <point x="267" y="420"/>
      <point x="388" y="466"/>
      <point x="505" y="466" type="curve" smooth="yes"/>
      <point x="587" y="466"/>
      <point x="680" y="443"/>
      <point x="786" y="407" type="curve"/>
      <point x="750" y="457" type="line"/>
      <point x="784" y="195"/>
      <point x="578" y="44"/>
      <point x="414" y="44" type="curve" smooth="yes"/>
      <point x="285" y="44"/>
      <point x="240" y="137"/>
    </contour>
    <contour>
      <point x="828" y="481" type="line"/>
      <point x="851" y="692"/>
      <point x="960" y="902"/>
      <point x="1166" y="902" type="curve" smooth="yes"/>
      <point x="1355" y="902"/>
      <point x="1407" y="725"/>
      <point x="1380" y="514" type="curve"/>
      <point x="787" y="514" type="line"/>
    </contour>
  </outline>
</glyph>
<glyph name="thorn" format="2">
  <advance width="1040"/>
  <unicode hex="00FE"/>
  <guideline x="357" y="1236" angle="0"/>
  <guideline x="278" y="157" angle="264.552"/>
  <outline>
    <contour>
      <point x="151" y="-466" type="line"/>
      <point x="217" y="-466" type="line"/>
      <point x="278" y="157" type="line"/>
      <point x="322" y="48"/>
      <point x="414" y="-15"/>
      <point x="530" y="-15" type="curve" smooth="yes"/>
      <point x="729" y="-15"/>
      <point x="921" y="170"/>
      <point x="949" y="473" type="curve" smooth="yes"/>
      <point x="977" y="776"/>
      <point x="822" y="960"/>
      <point x="626" y="960" type="curve" smooth="yes"/>
      <point x="499" y="960"/>
      <point x="387" y="883"/>
      <point x="317" y="747" type="curve"/>
      <point x="334" y="747" type="line"/>
      <point x="381" y="1236" type="line"/>
      <point x="313" y="1236" type="line"/>
    </contour>
    <contour>
      <point x="546" y="44" type="curve" smooth="yes"/>
      <point x="415" y="44"/>
      <point x="276" y="161"/>
      <point x="297" y="384" type="curve" smooth="yes"/>
      <point x="313" y="556" type="line" smooth="yes"/>
      <point x="335" y="786"/>
      <point x="482" y="899"/>
      <point x="620" y="899" type="curve" smooth="yes"/>
      <point x="780" y="899"/>
      <point x="903" y="748"/>
      <point x="877" y="473" type="curve" smooth="yes"/>
      <point x="850" y="193"/>
      <point x="693" y="44"/>
    </contour>
  </outline>
</glyph>
<glyph name="Hbar" format="2">
  <advance width="1132"/>
  <unicode hex="0126"/>
  <guideline x="377" y="1215" angle="84.6398"/>
  <guideline x="983" y="1215" angle="84.6398"/>
  <anchor x="607.193" y="627.286" name="_top"/>
  <anchor x="500" y="0" name="bottom"/>
  <anchor x="585" y="608" name="center"/>
  <anchor x="671" y="1215" name="top"/>
  <anchor x="125" y="1215" name="topleft"/>
  <outline>
    <contour>
      <point x="197" y="0" type="line"/>
      <point x="263" y="0" type="line"/>
      <point x="318" y="587" type="line"/>
      <point x="269" y="542" type="line"/>
      <point x="965" y="542" type="line"/>
      <point x="924" y="587" type="line"/>
      <point x="869" y="0" type="line"/>
      <point x="935" y="0" type="line"/>
      <point x="1053" y="1215" type="line"/>
      <point x="983" y="1215" type="line"/>
      <point x="920" y="557" type="line"/>
      <point x="969" y="602" type="line"/>
      <point x="273" y="602" type="line"/>
      <point x="314" y="557" type="line"/>
      <point x="377" y="1215" type="line"/>
      <point x="311" y="1215" type="line"/>
    </contour>
    <contour>
      <point x="311" y="766" type="line"/>
      <point x="951" y="766" type="line"/>
      <point x="967" y="826" type="line"/>
      <point x="328" y="826" type="line"/>
    </contour>
  </outline>
</glyph>
<glyph name="idotless" format="2">
  <advance width="482"/>
  <unicode hex="0131"/>
  <anchor x="175" y="0" name="bottom"/>
  <anchor x="240" y="25" name="ogonek"/>
  <anchor x="307" y="939" name="top"/>
  <outline>
    <contour>
      <point x="194" y="0" type="line"/>
      <point x="260" y="0" type="line"/>
      <point x="348" y="941" type="line"/>
      <point x="282" y="941" type="line"/>
    </contour>
  </outline>
</glyph>
<glyph name="Eng" format="2">
  <advance width="1144"/>
  <unicode hex="014A"/>
  <anchor x="1428" y="0" name="bottom"/>
  <anchor x="1599" y="1215" name="top"/>
  <outline>
    <contour>
      <point x="434" y="-399" type="line"/>
      <point x="503" y="-447"/>
      <point x="566" y="-485"/>
      <point x="660" y="-485" type="curve" smooth="yes"/>
      <point x="826" y="-485"/>
      <point x="939" y="-380"/>
      <point x="960" y="-149" type="curve" smooth="yes"/>
      <point x="1042" y="745" type="line"/>
      <point x="980" y="745" type="line"/>
      <point x="896" y="-149" type="line" smooth="yes"/>
      <point x="880" y="-315"/>
      <point x="816" y="-418"/>
      <point x="666" y="-418" type="curve" smooth="yes"/>
      <point x="580" y="-418"/>
      <point x="508" y="-380"/>
      <point x="437" y="-313" type="curve"/>
    </contour>
    <contour>
      <point x="193" y="0" type="line"/>
      <point x="263" y="0" type="line"/>
      <point x="370" y="1151" type="line"/>
      <point x="350" y="1155" type="line"/>
      <point x="923" y="-89" type="line"/>
      <point x="974" y="0" type="line"/>
      <point x="1087" y="1215" type="line"/>
      <point x="1021" y="1215" type="line"/>
      <point x="909" y="66" type="line"/>
      <point x="928" y="62" type="line"/>
      <point x="402" y="1215" type="line"/>
      <point x="307" y="1215" type="line"/>
    </contour>
  </outline>
</glyph>
<glyph name="eng" format="2">
  <advance width="1104"/>
  <unicode hex="014B"/>
  <anchor x="1174" y="-504" name="bottom"/>
  <anchor x="1377" y="939" name="top"/>
  <outline>
    <contour>
      <point x="590" y="-481" type="curve" smooth="yes"/>
      <point x="720" y="-481"/>
      <point x="845" y="-393"/>
      <point x="867" y="-154" type="curve" smooth="yes"/>
      <point x="934" y="555" type="line" smooth="yes"/>
      <point x="958" y="812"/>
      <point x="842" y="960"/>
      <point x="647" y="960" type="curve" smooth="yes"/>
      <point x="500" y="960"/>
      <point x="389" y="876"/>
      <point x="325" y="731" type="curve"/>
      <point x="336" y="939" type="line"/>
      <point x="281" y="939" type="line"/>
      <point x="193" y="0" type="line"/>
      <point x="259" y="0" type="line"/>
      <point x="303" y="472" type="line" smooth="yes"/>
      <point x="326" y="721"/>
      <point x="439" y="899"/>
      <point x="635" y="899" type="curve" smooth="yes"/>
      <point x="798" y="899"/>
      <point x="893" y="777"/>
      <point x="872" y="555" type="curve" smooth="yes"/>
      <point x="805" y="-158" type="line" smooth="yes"/>
      <point x="788" y="-341"/>
      <point x="708" y="-417"/>
      <point x="589" y="-417" type="curve" smooth="yes"/>
      <point x="515" y="-417"/>
      <point x="457" y="-387"/>
      <point x="385" y="-328" type="curve"/>
      <point x="370" y="-394" type="line"/>
      <point x="444" y="-453"/>
      <point x="517" y="-481"/>
    </contour>
  </outline>
</glyph>
<glyph name="OE" format="2">
  <advance width="1647"/>
  <unicode hex="0152"/>
  <anchor x="1231" y="1270" name="above"/>
  <anchor x="447" y="0" name="bottom"/>
  <anchor x="532" y="608" name="center"/>
  <anchor x="883" y="10" name="ogonek"/>
  <anchor x="618" y="1215" name="top"/>
  <anchor x="94" y="1215" name="topleft"/>
  <anchor x="1142" y="1215" name="topright"/>
  <outline>
    <contour>
      <point x="948" y="166" type="curve"/>
      <point x="907" y="199" type="line"/>
      <point x="776" y="77"/>
      <point x="663" y="53"/>
      <point x="567" y="53" type="curve" smooth="yes"/>
      <point x="312" y="53"/>
      <point x="186" y="222"/>
      <point x="223" y="604" type="curve" smooth="yes"/>
      <point x="258" y="965"/>
      <point x="404" y="1166"/>
      <point x="670" y="1166" type="curve" smooth="yes"/>
      <point x="813" y="1166"/>
      <point x="910" y="1108"/>
      <point x="993" y="993" type="curve"/>
      <point x="1026" y="1053" type="line"/>
      <point x="950" y="1161"/>
      <point x="844" y="1232"/>
      <point x="680" y="1232" type="curve" smooth="yes"/>
      <point x="404" y="1232"/>
      <point x="199" y="1030"/>
      <point x="158" y="604" type="curve" smooth="yes"/>
      <point x="118" y="188"/>
      <point x="275" y="-15"/>
      <point x="549" y="-15" type="curve" smooth="yes"/>
      <point x="652" y="-15"/>
      <point x="813" y="14"/>
    </contour>
    <contour>
      <point x="876" y="0" type="line"/>
      <point x="1511" y="0" type="line"/>
      <point x="1521" y="64" type="line"/>
      <point x="948" y="64" type="line"/>
      <point x="996" y="586" type="line"/>
      <point x="1536" y="586" type="line"/>
      <point x="1539" y="644" type="line"/>
      <point x="1000" y="644" type="line"/>
      <point x="1048" y="1152" type="line"/>
      <point x="1618" y="1152" type="line"/>
      <point x="1629" y="1215" type="line"/>
      <point x="990" y="1215" type="line"/>
    </contour>
  </outline>
</glyph>
<glyph name="florin" format="2">
  <advance width="417"/>
  <unicode hex="0192"/>
  <outline>
    <contour>
      <point x="-104" y="-500" type="curve" smooth="yes"/>
      <point x="24" y="-500"/>
      <point x="129" y="-424"/>
      <point x="144" y="-252" type="curve" smooth="yes"/>
      <point x="270" y="1117" type="line" smooth="yes"/>
      <point x="286" y="1276"/>
      <point x="363" y="1310"/>
      <point x="429" y="1310" type="curve" smooth="yes"/>
      <point x="468" y="1310"/>
      <point x="511" y="1298"/>
      <point x="549" y="1278" type="curve"/>
      <point x="566" y="1339" type="line"/>
      <point x="524" y="1361"/>
      <point x="488" y="1367"/>
      <point x="452" y="1367" type="curve" smooth="yes"/>
      <point x="324" y="1367"/>
      <point x="220" y="1291"/>
      <point x="204" y="1119" type="curve" smooth="yes"/>
      <point x="78" y="-250" type="line" smooth="yes"/>
      <point x="63" y="-409"/>
      <point x="-15" y="-443"/>
      <point x="-81" y="-443" type="curve" smooth="yes"/>
      <point x="-120" y="-443"/>
      <point x="-163" y="-431"/>
      <point x="-201" y="-411" type="curve"/>
      <point x="-218" y="-472" type="line"/>
      <point x="-176" y="-494"/>
      <point x="-140" y="-500"/>
    </contour>
    <contour>
      <point x="32" y="885" type="line"/>
      <point x="444" y="885" type="line"/>
      <point x="447" y="939" type="line"/>
      <point x="35" y="939" type="line"/>
    </contour>
  </outline>
</glyph>
<glyph name="jdotless" format="2">
  <advance width="527"/>
  <unicode hex="0237"/>
  <anchor x="127" y="-504" name="bottom"/>
  <anchor x="330" y="939" name="top"/>
  <outline>
    <contour>
      <point x="13" y="-481" type="curve" smooth="yes"/>
      <point x="143" y="-481"/>
      <point x="267" y="-392"/>
      <point x="290" y="-154" type="curve" smooth="yes"/>
      <point x="394" y="943" type="line"/>
      <point x="328" y="943" type="line"/>
      <point x="221" y="-158" type="line"/>
      <point x="201" y="-340"/>
      <point x="131" y="-417"/>
      <point x="12" y="-417" type="curve" smooth="yes"/>
      <point x="-62" y="-417"/>
      <point x="-120" y="-387"/>
      <point x="-192" y="-328" type="curve"/>
      <point x="-207" y="-394" type="line"/>
      <point x="-133" y="-453"/>
      <point x="-60" y="-481"/>
    </contour>
  </outline>
</glyph>
<glyph name="apostrophe" format="2">
  <advance width="230"/>
  <unicode hex="02BC"/>
  <outline>
    <contour>
      <point x="200" y="914" type="line"/>
      <point x="288" y="959"/>
      <point x="324" y="1032"/>
      <point x="328" y="1090" type="curve"/>
      <point x="336" y="1145"/>
      <point x="305" y="1183"/>
      <point x="265" y="1183" type="curve" smooth="yes"/>
      <point x="229" y="1183"/>
      <point x="207" y="1156"/>
      <point x="203" y="1126" type="curve" smooth="yes"/>
      <point x="202" y="1084"/>
      <point x="227" y="1061"/>
      <point x="270" y="1063" type="curve"/>
      <point x="252" y="1006"/>
      <point x="213" y="967"/>
      <point x="152" y="939" type="curve"/>
    </contour>
  </outline>
</glyph>
<glyph name="circumflex" format="2">
  <advance width="619"/>
  <unicode hex="02C6"/>
  <anchor x="368" y="1270" name="_above"/>
  <outline>
    <contour>
      <point x="465" y="1655" type="line"/>
      <point x="169" y="1354" type="line"/>
      <point x="208" y="1319" type="line"/>
      <point x="455" y="1550" type="line"/>
      <point x="663" y="1319" type="line"/>
      <point x="702" y="1354" type="line"/>
    </contour>
  </outline>
</glyph>
<glyph name="tilde" format="2">
  <advance width="602"/>
  <unicode hex="02DC"/>
  <anchor x="326" y="1270" name="_above"/>
  <outline>
    <contour>
      <point x="204" y="1412" type="line"/>
      <point x="241" y="1490"/>
      <point x="275" y="1516"/>
      <point x="307" y="1516" type="curve" smooth="yes"/>
      <point x="331" y="1516"/>
      <point x="345" y="1510"/>
      <point x="420" y="1472" type="curve"/>
      <point x="502" y="1417"/>
      <point x="528" y="1412"/>
      <point x="557" y="1412" type="curve" smooth="yes"/>
      <point x="608" y="1412"/>
      <point x="661" y="1456"/>
      <point x="699" y="1562" type="curve"/>
      <point x="667" y="1586" type="line"/>
      <point x="635" y="1510"/>
      <point x="601" y="1476"/>
      <point x="563" y="1476" type="curve" smooth="yes"/>
      <point x="537" y="1476"/>
      <point x="526" y="1479"/>
      <point x="440" y="1530" type="curve" smooth="yes"/>
      <point x="358" y="1578"/>
      <point x="340" y="1586"/>
      <point x="314" y="1586" type="curve" smooth="yes"/>
      <point x="260" y="1586"/>
      <point x="215" y="1538"/>
      <point x="176" y="1430" type="curve"/>
    </contour>
  </outline>
</glyph>
<glyph name="gravecomb" format="2">
  <unicode hex="0300"/>
  <anchor x="412" y="939" name="_top"/>
  <anchor x="492" y="1256" name="top"/>
  <outline>
    <contour>
      <point x="611" y="1089" type="line"/>
      <point x="640" y="1137" type="line"/>
      <point x="305" y="1405" type="line"/>
      <point x="259" y="1335" type="line"/>
    </contour>
  </outline>
</glyph>
<glyph name="acutecomb" format="2">
  <unicode hex="0301"/>
  <anchor x="300" y="939" name="_top"/>
  <anchor x="364" y="1390" name="top"/>
  <outline>
    <contour>
      <point x="256" y="1084" type="line"/>
      <point x="653" y="1330" type="line"/>
      <point x="615" y="1400" type="line"/>
      <point x="230" y="1132" type="line"/>
    </contour>
  </outline>
</glyph>
<glyph name="circumflexcomb" format="2">
  <unicode hex="0302"/>
  <anchor x="499" y="939" name="_top"/>
  <anchor x="522" y="1378" name="top"/>
  <outline>
    <contour>
      <point x="270" y="1109" type="line"/>
      <point x="518" y="1340" type="line"/>
      <point x="725" y="1109" type="line"/>
      <point x="765" y="1144" type="line"/>
      <point x="527" y="1445" type="line"/>
      <point x="232" y="1144" type="line"/>
    </contour>
  </outline>
</glyph>
<glyph name="tildecomb" format="2">
  <unicode hex="0303"/>
  <anchor x="455" y="939" name="_top"/>
  <anchor x="512" y="1343" name="top"/>
  <outline>
    <contour>
      <point x="266" y="1169" type="line"/>
      <point x="304" y="1247"/>
      <point x="336" y="1273"/>
      <point x="374" y="1273" type="curve" smooth="yes"/>
      <point x="392" y="1273"/>
      <point x="407" y="1267"/>
      <point x="482" y="1229" type="curve" smooth="yes"/>
      <point x="573" y="1183"/>
      <point x="592" y="1169"/>
      <point x="620" y="1169" type="curve" smooth="yes"/>
      <point x="671" y="1169"/>
      <point x="723" y="1213"/>
      <point x="761" y="1319" type="curve"/>
      <point x="729" y="1343" type="line"/>
      <point x="693" y="1259"/>
      <point x="662" y="1233"/>
      <point x="620" y="1233" type="curve" smooth="yes"/>
      <point x="596" y="1233"/>
      <point x="581" y="1241"/>
      <point x="503" y="1287" type="curve" smooth="yes"/>
      <point x="425" y="1333"/>
      <point x="406" y="1343"/>
      <point x="379" y="1343" type="curve" smooth="yes"/>
      <point x="324" y="1343"/>
      <point x="281" y="1302"/>
      <point x="238" y="1188" type="curve"/>
    </contour>
  </outline>
</glyph>
<glyph name="macroncomb" format="2">
  <unicode hex="0304"/>
  <anchor x="483" y="939" name="_top"/>
  <anchor x="525" y="1233" name="top"/>
  <outline>
    <contour>
      <point x="249" y="1233" type="line"/>
      <point x="235" y="1167" type="line"/>
      <point x="791" y="1167" type="line"/>
      <point x="805" y="1233" type="line"/>
    </contour>
  </outline>
</glyph>
<glyph name="brevecomb" format="2">
  <unicode hex="0306"/>
  <anchor x="455" y="939" name="_top"/>
  <anchor x="511" y="1339" name="top"/>
  <outline>
    <contour>
      <point x="471" y="1143" type="curve" smooth="yes"/>
      <point x="616" y="1143"/>
      <point x="729" y="1232"/>
      <point x="737" y="1339" type="curve"/>
      <point x="664" y="1339" type="line"/>
      <point x="652" y="1255"/>
      <point x="577" y="1201"/>
      <point x="479" y="1201" type="curve" smooth="yes"/>
      <point x="381" y="1201"/>
      <point x="320" y="1255"/>
      <point x="332" y="1339" type="curve"/>
      <point x="259" y="1339" type="line"/>
      <point x="245" y="1239"/>
      <point x="330" y="1143"/>
    </contour>
  </outline>
</glyph>
<glyph name="dotaccentcomb" format="2">
  <unicode hex="0307"/>
  <anchor x="264" y="939" name="_top"/>
  <anchor x="318" y="1321" name="top"/>
  <outline>
    <contour>
      <point x="296" y="1190" type="curve" smooth="yes"/>
      <point x="330" y="1190"/>
      <point x="365" y="1216"/>
      <point x="370" y="1262" type="curve" smooth="yes"/>
      <point x="374" y="1302"/>
      <point x="341" y="1321"/>
      <point x="321" y="1321" type="curve" smooth="yes"/>
      <point x="274" y="1321"/>
      <point x="250" y="1282"/>
      <point x="247" y="1254" type="curve" smooth="yes"/>
      <point x="244" y="1225"/>
      <point x="262" y="1190"/>
    </contour>
  </outline>
</glyph>
<glyph name="dieresiscomb" format="2">
  <unicode hex="0308"/>
  <anchor x="391" y="939" name="_top"/>
  <anchor x="445" y="1323" name="top"/>
  <outline>
    <contour>
      <point x="297" y="1193" type="curve" smooth="yes"/>
      <point x="328" y="1193"/>
      <point x="369" y="1216"/>
      <point x="369" y="1264" type="curve" smooth="yes"/>
      <point x="369" y="1303"/>
      <point x="341" y="1323"/>
      <point x="313" y="1323" type="curve" smooth="yes"/>
      <point x="272" y="1323"/>
      <point x="251" y="1281"/>
      <point x="248" y="1256" type="curve" smooth="yes"/>
      <point x="244" y="1224"/>
      <point x="262" y="1193"/>
    </contour>
    <contour>
      <point x="547" y="1190" type="curve" smooth="yes"/>
      <point x="570" y="1190"/>
      <point x="623" y="1208"/>
      <point x="623" y="1262" type="curve" smooth="yes"/>
      <point x="623" y="1309"/>
      <point x="584" y="1321"/>
      <point x="564" y="1321" type="curve" smooth="yes"/>
      <point x="527" y="1321"/>
      <point x="503" y="1282"/>
      <point x="500" y="1254" type="curve" smooth="yes"/>
      <point x="497" y="1225"/>
      <point x="515" y="1190"/>
    </contour>
  </outline>
</glyph>
<glyph name="ringcomb" format="2">
  <unicode hex="030A"/>
  <anchor x="374" y="939" name="_top"/>
  <anchor x="442" y="1423" name="top"/>
  <outline>
    <contour>
      <point x="411" y="1093" type="curve" smooth="yes"/>
      <point x="500" y="1093"/>
      <point x="573" y="1166"/>
      <point x="573" y="1255" type="curve" smooth="yes"/>
      <point x="573" y="1344"/>
      <point x="500" y="1417"/>
      <point x="411" y="1417" type="curve" smooth="yes"/>
      <point x="322" y="1417"/>
      <point x="249" y="1344"/>
      <point x="249" y="1255" type="curve" smooth="yes"/>
      <point x="249" y="1166"/>
      <point x="322" y="1093"/>
    </contour>
    <contour>
      <point x="411" y="1158" type="curve" smooth="yes"/>
      <point x="357" y="1158"/>
      <point x="314" y="1201"/>
      <point x="314" y="1255" type="curve" smooth="yes"/>
      <point x="314" y="1309"/>
      <point x="357" y="1352"/>
      <point x="411" y="1352" type="curve" smooth="yes"/>
      <point x="465" y="1352"/>
      <point x="508" y="1309"/>
      <point x="508" y="1255" type="curve" smooth="yes"/>
      <point x="508" y="1201"/>
      <point x="465" y="1158"/>
    </contour>
  </outline>
</glyph>
<glyph name="hungarumlautcomb" format="2">
  <unicode hex="030B"/>
  <anchor x="353" y="939" name="_top"/>
  <anchor x="417" y="1395" name="top"/>
  <outline>
    <contour>
      <point x="498" y="1078" type="line"/>
      <point x="544" y="1391" type="line"/>
      <point x="467" y="1395" type="line"/>
      <point x="446" y="1082" type="line"/>
    </contour>
    <contour>
      <point x="298" y="1078" type="line"/>
      <point x="344" y="1391" type="line"/>
      <point x="267" y="1395" type="line"/>
      <point x="246" y="1082" type="line"/>
    </contour>
  </outline>
</glyph>
<glyph name="caroncomb" format="2">
  <unicode hex="030C"/>
  <anchor x="488" y="939" name="_top"/>
  <anchor x="559" y="1445" name="top"/>
  <outline>
    <contour>
      <point x="764" y="1445" type="line"/>
      <point x="516" y="1214" type="line"/>
      <point x="309" y="1445" type="line"/>
      <point x="269" y="1410" type="line"/>
      <point x="507" y="1109" type="line"/>
      <point x="802" y="1410" type="line"/>
    </contour>
  </outline>
</glyph>
<glyph name="cedillacomb" format="2">
  <unicode hex="0327"/>
  <anchor x="248" y="0" name="_bottom"/>
  <anchor x="191" y="-407" name="bottom"/>
  <outline>
    <contour>
      <point x="23" y="-344" type="line"/>
      <point x="165" y="-448"/>
      <point x="420" y="-423"/>
      <point x="420" y="-271" type="curve" smooth="yes"/>
      <point x="420" y="-169"/>
      <point x="306" y="-114"/>
      <point x="136" y="-65" type="curve"/>
      <point x="181" y="-118" type="line"/>
      <point x="234" y="31" type="line"/>
      <point x="160" y="33" type="line"/>
      <point x="106" y="-121" type="line"/>
      <point x="191" y="-140"/>
      <point x="332" y="-188"/>
      <point x="332" y="-272" type="curve" smooth="yes"/>
      <point x="332" y="-351"/>
      <point x="208" y="-390"/>
      <point x="41" y="-296" type="curve"/>
    </contour>
  </outline>
</glyph>
<glyph name="ogonekcomb" format="2">
  <unicode hex="0328"/>
  <anchor x="341" y="10" name="_ogonek"/>
  <outline>
    <contour>
      <point x="482" y="-354" type="curve"/>
      <point x="460" y="-293" type="line"/>
      <point x="378" y="-340"/>
      <point x="306" y="-362"/>
      <point x="241" y="-362" type="curve" smooth="yes"/>
      <point x="159" y="-362"/>
      <point x="100" y="-326"/>
      <point x="100" y="-258" type="curve" smooth="yes"/>
      <point x="100" y="-169"/>
      <point x="200" y="-90"/>
      <point x="361" y="-15" type="curve"/>
      <point x="341" y="24" type="line"/>
      <point x="135" y="-49"/>
      <point x="34" y="-162"/>
      <point x="34" y="-276" type="curve" smooth="yes"/>
      <point x="34" y="-369"/>
      <point x="102" y="-429"/>
      <point x="222" y="-429" type="curve" smooth="yes"/>
      <point x="303" y="-429"/>
      <point x="402" y="-402"/>
    </contour>
  </outline>
</glyph>
<glyph name="Delta" format="2">
  <advance width="1031"/>
  <unicode hex="0394"/>
  <outline>
    <contour>
      <point x="53" y="0" type="line"/>
      <point x="129" y="0" type="line"/>
      <point x="592" y="1117" type="line"/>
      <point x="898" y="0" type="line"/>
      <point x="976" y="0" type="line"/>
      <point x="640" y="1213" type="line"/>
      <point x="559" y="1213" type="line"/>
    </contour>
    <contour>
      <point x="115" y="0" type="line"/>
      <point x="935" y="0" type="line"/>
      <point x="939" y="61" type="line"/>
      <point x="119" y="61" type="line"/>
    </contour>
  </outline>
</glyph>
<glyph name="Omega" format="2">
  <advance width="1234"/>
  <unicode hex="03A9"/>
  <outline>
    <contour>
      <point x="519" y="11" type="curve"/>
      <point x="523" y="65" type="line"/>
      <point x="361" y="65"/>
      <point x="217" y="251"/>
      <point x="238" y="601" type="curve" smooth="yes"/>
      <point x="259" y="952"/>
      <point x="432" y="1165"/>
      <point x="698" y="1165" type="curve" smooth="yes"/>
      <point x="953" y="1165"/>
      <point x="1106" y="970"/>
      <point x="1078" y="603" type="curve" smooth="yes"/>
      <point x="1052" y="259"/>
      <point x="886" y="65"/>
      <point x="719" y="65" type="curve"/>
      <point x="715" y="11" type="line"/>
      <point x="896" y="11"/>
      <point x="1124" y="199"/>
      <point x="1156" y="601" type="curve" smooth="yes"/>
      <point x="1190" y="1027"/>
      <point x="972" y="1231"/>
      <point x="703" y="1231" type="curve" smooth="yes"/>
      <point x="426" y="1231"/>
      <point x="185" y="1017"/>
      <point x="160" y="601" type="curve" smooth="yes"/>
      <point x="136" y="194"/>
      <point x="342" y="11"/>
    </contour>
    <contour>
      <point x="118" y="-1" type="line"/>
      <point x="518" y="-1" type="line"/>
      <point x="523" y="65" type="line"/>
      <point x="123" y="65" type="line"/>
    </contour>
    <contour>
      <point x="714" y="-1" type="line"/>
      <point x="1114" y="-1" type="line"/>
      <point x="1119" y="65" type="line"/>
      <point x="719" y="65" type="line"/>
    </contour>
  </outline>
</glyph>
<glyph name="pi" format="2">
  <advance width="1145"/>
  <unicode hex="03C0"/>
  <outline>
    <contour>
      <point x="1092" y="-20" type="curve"/>
      <point x="1111" y="43" type="line"/>
      <point x="962" y="43"/>
      <point x="855" y="125"/>
      <point x="870" y="346" type="curve" smooth="yes"/>
      <point x="912" y="942" type="line"/>
      <point x="842" y="942" type="line"/>
      <point x="800" y="346" type="line" smooth="yes"/>
      <point x="782" y="88"/>
      <point x="921" y="-20"/>
    </contour>
    <contour>
      <point x="362" y="0" type="line"/>
      <point x="436" y="0" type="line"/>
      <point x="502" y="942" type="line"/>
      <point x="428" y="942" type="line"/>
    </contour>
    <contour>
      <point x="145" y="881" type="line"/>
      <point x="1229" y="881" type="line"/>
      <point x="1234" y="942" type="line"/>
      <point x="150" y="942" type="line"/>
    </contour>
  </outline>
</glyph>
<glyph name="endash" format="2">
  <advance width="756"/>
  <unicode hex="2013"/>
  <outline>
    <contour>
      <point x="150" y="529" type="line"/>
      <point x="704" y="529" type="line"/>
      <point x="712" y="589" type="line"/>
      <point x="153" y="589" type="line"/>
    </contour>
  </outline>
</glyph>
<glyph name="quoteleft" format="2">
  <advance width="275"/>
  <unicode hex="2018"/>
  <outline>
    <contour>
      <point x="223" y="921" type="curve" smooth="yes"/>
      <point x="259" y="921"/>
      <point x="283" y="951"/>
      <point x="287" y="983" type="curve" smooth="yes"/>
      <point x="290" y="1024"/>
      <point x="268" y="1047"/>
      <point x="225" y="1046" type="curve"/>
      <point x="240" y="1097"/>
      <point x="274" y="1137"/>
      <point x="333" y="1174" type="curve"/>
      <point x="289" y="1196" type="line"/>
      <point x="203" y="1153"/>
      <point x="168" y="1079"/>
      <point x="160" y="1016" type="curve" smooth="yes"/>
      <point x="157" y="962"/>
      <point x="185" y="921"/>
    </contour>
  </outline>
</glyph>
<glyph name="quoteright" format="2">
  <advance width="275"/>
  <unicode hex="2019"/>
  <outline>
    <contour>
      <point x="137" y="921" type="line"/>
      <point x="220" y="972"/>
      <point x="258" y="1043"/>
      <point x="262" y="1101" type="curve"/>
      <point x="269" y="1162"/>
      <point x="241" y="1196"/>
      <point x="197" y="1196" type="curve" smooth="yes"/>
      <point x="163" y="1196"/>
      <point x="139" y="1167"/>
      <point x="135" y="1135" type="curve" smooth="yes"/>
      <point x="135" y="1097"/>
      <point x="163" y="1074"/>
      <point x="201" y="1074" type="curve"/>
      <point x="186" y="1021"/>
      <point x="149" y="984"/>
      <point x="90" y="948" type="curve"/>
    </contour>
  </outline>
</glyph>
<glyph name="dagger" format="2">
  <advance width="1200"/>
  <unicode hex="2020"/>
  <outline>
    <contour>
      <point x="479" y="-252" type="line"/>
      <point x="527" y="-252" type="line"/>
      <point x="745" y="1213" type="line"/>
      <point x="672" y="1213" type="line"/>
    </contour>
    <contour>
      <point x="249" y="793" type="line"/>
      <point x="648" y="778" type="line"/>
      <point x="1051" y="793" type="line"/>
      <point x="1056" y="828" type="line"/>
      <point x="656" y="841" type="line"/>
      <point x="254" y="828" type="line"/>
    </contour>
  </outline>
</glyph>
<glyph name="perthousand" format="2">
  <advance width="1768"/>
  <unicode hex="2030"/>
  <outline>
    <contour>
      <point x="440" y="1232" type="curve" smooth="yes"/>
      <point x="325" y="1232"/>
      <point x="220" y="1132"/>
      <point x="202" y="959" type="curve" smooth="yes"/>
      <point x="186" y="789"/>
      <point x="275" y="693"/>
      <point x="389" y="693" type="curve" smooth="yes"/>
      <point x="500" y="693"/>
      <point x="611" y="789"/>
      <point x="627" y="959" type="curve" smooth="yes"/>
      <point x="643" y="1132"/>
      <point x="549" y="1232"/>
    </contour>
    <contour>
      <point x="435" y="1174" type="curve" smooth="yes"/>
      <point x="516" y="1174"/>
      <point x="573" y="1099"/>
      <point x="559" y="959" type="curve" smooth="yes"/>
      <point x="545" y="822"/>
      <point x="475" y="755"/>
      <point x="394" y="755" type="curve" smooth="yes"/>
      <point x="301" y="755"/>
      <point x="248" y="822"/>
      <point x="260" y="959" type="curve" smooth="yes"/>
      <point x="274" y="1099"/>
      <point x="341" y="1174"/>
    </contour>
    <contour>
      <point x="215" y="0" type="line"/>
      <point x="285" y="0" type="line"/>
      <point x="1128" y="1215" type="line"/>
      <point x="1052" y="1215" type="line"/>
    </contour>
    <contour>
      <point x="948" y="522" type="curve" smooth="yes"/>
      <point x="841" y="522"/>
      <point x="730" y="426"/>
      <point x="714" y="249" type="curve" smooth="yes"/>
      <point x="698" y="80"/>
      <point x="788" y="-15"/>
      <point x="895" y="-15" type="curve" smooth="yes"/>
      <point x="1010" y="-15"/>
      <point x="1121" y="80"/>
      <point x="1137" y="249" type="curve" smooth="yes"/>
      <point x="1155" y="426"/>
      <point x="1062" y="522"/>
    </contour>
    <contour>
      <point x="945" y="463" type="curve" smooth="yes"/>
      <point x="1030" y="463"/>
      <point x="1085" y="390"/>
      <point x="1069" y="249" type="curve" smooth="yes"/>
      <point x="1059" y="112"/>
      <point x="992" y="45"/>
      <point x="904" y="45" type="curve" smooth="yes"/>
      <point x="815" y="45"/>
      <point x="760" y="112"/>
      <point x="770" y="249" type="curve" smooth="yes"/>
      <point x="788" y="390"/>
      <point x="855" y="463"/>
    </contour>
    <contour>
      <point x="1498" y="522" type="curve" smooth="yes"/>
      <point x="1391" y="522"/>
      <point x="1280" y="426"/>
      <point x="1264" y="249" type="curve" smooth="yes"/>
      <point x="1249" y="80"/>
      <point x="1338" y="-15"/>
      <point x="1445" y="-15" type="curve" smooth="yes"/>
      <point x="1560" y="-15"/>
      <point x="1671" y="80"/>
      <point x="1687" y="249" type="curve" smooth="yes"/>
      <point x="1704" y="426"/>
      <point x="1612" y="522"/>
    </contour>
    <contour>
      <point x="1495" y="463" type="curve" smooth="yes"/>
      <point x="1580" y="463"/>
      <point x="1635" y="390"/>
      <point x="1619" y="249" type="curve" smooth="yes"/>
      <point x="1604" y="113"/>
      <point x="1542" y="45"/>
      <point x="1454" y="45" type="curve" smooth="yes"/>
      <point x="1365" y="45"/>
      <point x="1310" y="112"/>
      <point x="1320" y="249" type="curve" smooth="yes"/>
      <point x="1330" y="391"/>
      <point x="1405" y="463"/>
    </contour>
  </outline>
</glyph>
<glyph name="guilsinglleft" format="2">
  <advance width="667"/>
  <unicode hex="2039"/>
  <outline>
    <contour>
      <point x="489" y="94" type="line"/>
      <point x="558" y="122" type="line"/>
      <point x="209" y="545" type="line"/>
      <point x="213" y="495" type="line"/>
      <point x="680" y="918" type="line"/>
      <point x="609" y="946" type="line"/>
      <point x="144" y="520" type="line"/>
    </contour>
  </outline>
</glyph>
<glyph name="guilsinglright" format="2">
  <advance width="667"/>
  <unicode hex="203A"/>
  <outline>
    <contour>
      <point x="159" y="94" type="line"/>
      <point x="624" y="520" type="line"/>
      <point x="279" y="946" type="line"/>
      <point x="210" y="918" type="line"/>
      <point x="559" y="495" type="line"/>
      <point x="555" y="545" type="line"/>
      <point x="88" y="122" type="line"/>
    </contour>
  </outline>
</glyph>
<glyph name="rupee" format="2">
  <advance width="1000"/>
  <unicode hex="20A8"/>
  <outline>
    <contour>
      <point x="289" y="1153" type="line"/>
      <point x="384" y="1153" type="line" smooth="yes"/>
      <point x="581" y="1153"/>
      <point x="676" y="1063"/>
      <point x="692" y="928" type="curve"/>
      <point x="271" y="928" type="line"/>
      <point x="266" y="873" type="line"/>
      <point x="696" y="873" type="line"/>
      <point x="681" y="695"/>
      <point x="562" y="555"/>
      <point x="332" y="555" type="curve" smooth="yes"/>
      <point x="239" y="555" type="line"/>
      <point x="232" y="500" type="line"/>
      <point x="700" y="0" type="line"/>
      <point x="795" y="0" type="line"/>
      <point x="325" y="496" type="line"/>
      <point x="624" y="506"/>
      <point x="750" y="674"/>
      <point x="765" y="873" type="curve"/>
      <point x="922" y="873" type="line"/>
      <point x="926" y="928" type="line"/>
      <point x="763" y="928" type="line"/>
      <point x="755" y="1025"/>
      <point x="709" y="1101"/>
      <point x="614" y="1153" type="curve"/>
      <point x="944" y="1153" type="line"/>
      <point x="956" y="1215" type="line"/>
      <point x="297" y="1215" type="line"/>
    </contour>
  </outline>
</glyph>
<glyph name="euro" format="2">
  <advance width="1063"/>
  <unicode hex="20AC"/>
  <outline>
    <contour>
      <point x="550" y="-15" type="curve" smooth="yes"/>
      <point x="790" y="-15"/>
      <point x="989" y="138"/>
      <point x="1008" y="386" type="curve"/>
      <point x="939" y="386" type="line"/>
      <point x="921" y="180"/>
      <point x="768" y="46"/>
      <point x="558" y="46" type="curve" smooth="yes"/>
      <point x="292" y="46"/>
      <point x="198" y="306"/>
      <point x="228" y="619" type="curve" smooth="yes"/>
      <point x="258" y="975"/>
      <point x="459" y="1168"/>
      <point x="663" y="1168" type="curve" smooth="yes"/>
      <point x="816" y="1168"/>
      <point x="944" y="1060"/>
      <point x="985" y="882" type="curve"/>
      <point x="1065" y="903" type="line"/>
      <point x="1011" y="1099"/>
      <point x="880" y="1232"/>
      <point x="670" y="1232" type="curve" smooth="yes"/>
      <point x="422" y="1232"/>
      <point x="192" y="1013"/>
      <point x="159" y="619" type="curve" smooth="yes"/>
      <point x="125" y="264"/>
      <point x="259" y="-15"/>
    </contour>
    <contour>
      <point x="22" y="515" type="line"/>
      <point x="579" y="515" type="line"/>
      <point x="582" y="570" type="line"/>
      <point x="28" y="570" type="line"/>
    </contour>
    <contour>
      <point x="53" y="667" type="line"/>
      <point x="607" y="667" type="line"/>
      <point x="619" y="728" type="line"/>
      <point x="60" y="728" type="line"/>
    </contour>
  </outline>
</glyph>
<glyph name="partialdiff" format="2">
  <advance width="948"/>
  <unicode hex="2202"/>
  <outline>
    <contour>
      <point x="445" y="-19" type="curve" smooth="yes"/>
      <point x="648" y="-19"/>
      <point x="916" y="184"/>
      <point x="916" y="735" type="curve" smooth="yes"/>
      <point x="916" y="1061"/>
      <point x="822" y="1327"/>
      <point x="572" y="1580" type="curve"/>
      <point x="523" y="1548" type="line"/>
      <point x="785" y="1291"/>
      <point x="916" y="956"/>
      <point x="841" y="452" type="curve"/>
      <point x="851" y="454" type="line"/>
      <point x="851" y="734"/>
      <point x="701" y="801"/>
      <point x="580" y="801" type="curve" smooth="yes"/>
      <point x="377" y="801"/>
      <point x="155" y="611"/>
      <point x="155" y="322" type="curve" smooth="yes"/>
      <point x="155" y="94"/>
      <point x="293" y="-19"/>
    </contour>
    <contour>
      <point x="462" y="42" type="curve" smooth="yes"/>
      <point x="309" y="42"/>
      <point x="224" y="164"/>
      <point x="224" y="322" type="curve" smooth="yes"/>
      <point x="224" y="528"/>
      <point x="370" y="743"/>
      <point x="569" y="743" type="curve" smooth="yes"/>
      <point x="704" y="743"/>
      <point x="800" y="645"/>
      <point x="800" y="467" type="curve" smooth="yes"/>
      <point x="800" y="256"/>
      <point x="665" y="42"/>
    </contour>
  </outline>
</glyph>
<glyph name="emptyset" format="2">
  <advance width="1200"/>
  <unicode hex="2205"/>
  <outline>
    <contour>
      <point x="565" y="211" type="curve" smooth="yes"/>
      <point x="756" y="211"/>
      <point x="932" y="366"/>
      <point x="959" y="558" type="curve" smooth="yes"/>
      <point x="986" y="749"/>
      <point x="853" y="904"/>
      <point x="662" y="904" type="curve" smooth="yes"/>
      <point x="470" y="904"/>
      <point x="293" y="749"/>
      <point x="266" y="558" type="curve" smooth="yes"/>
      <point x="239" y="366"/>
      <point x="373" y="211"/>
    </contour>
    <contour>
      <point x="573" y="271" type="curve" smooth="yes"/>
      <point x="415" y="271"/>
      <point x="304" y="400"/>
      <point x="326" y="558" type="curve" smooth="yes"/>
      <point x="348" y="715"/>
      <point x="495" y="844"/>
      <point x="653" y="844" type="curve" smooth="yes"/>
      <point x="810" y="844"/>
      <point x="921" y="715"/>
      <point x="899" y="558" type="curve" smooth="yes"/>
      <point x="877" y="400"/>
      <point x="730" y="271"/>
    </contour>
    <contour>
      <point x="1071" y="997" type="line"/>
      <point x="118" y="161" type="line"/>
      <point x="155" y="117" type="line"/>
      <point x="1106" y="953" type="line"/>
    </contour>
  </outline>
</glyph>
<glyph name="product" format="2">
  <advance width="1200"/>
  <unicode hex="220F"/>
  <outline>
    <contour>
      <point x="51" y="-466" type="line"/>
      <point x="123" y="-466" type="line"/>
      <point x="355" y="1196" type="line"/>
      <point x="313" y="1155" type="line"/>
      <point x="1121" y="1155" type="line"/>
      <point x="1091" y="1196" type="line"/>
      <point x="859" y="-466" type="line"/>
      <point x="931" y="-466" type="line"/>
      <point x="1165" y="1213" type="line"/>
      <point x="285" y="1213" type="line"/>
    </contour>
  </outline>
</glyph>
<glyph name="summation" format="2">
  <advance width="1200"/>
  <unicode hex="2211"/>
  <outline>
    <contour>
      <point x="541" y="373" type="line"/>
      <point x="619" y="373" type="line"/>
      <point x="272" y="1196" type="line"/>
      <point x="255" y="1155" type="line"/>
      <point x="1099" y="1155" type="line"/>
      <point x="1107" y="1213" type="line"/>
      <point x="227" y="1213" type="line"/>
      <point x="219" y="1155" type="line"/>
    </contour>
    <contour>
      <point x="541" y="373" type="line"/>
      <point x="1" y="-409" type="line"/>
      <point x="-7" y="-467" type="line"/>
      <point x="873" y="-467" type="line"/>
      <point x="881" y="-409" type="line"/>
      <point x="37" y="-409" type="line"/>
      <point x="42" y="-450" type="line"/>
      <point x="619" y="373" type="line"/>
    </contour>
  </outline>
</glyph>
<glyph name="minus" format="2">
  <advance width="913"/>
  <unicode hex="2212"/>
  <outline>
    <contour>
      <point x="117" y="517" type="line"/>
      <point x="108" y="461" type="line"/>
      <point x="824" y="461" type="line"/>
      <point x="833" y="517" type="line"/>
    </contour>
  </outline>
</glyph>
<glyph name="radical" format="2">
  <advance width="1200"/>
  <unicode hex="221A"/>
  <outline>
    <contour>
      <point x="467" y="1" type="line"/>
      <point x="541" y="1" type="line"/>
      <point x="1259" y="1680" type="line"/>
      <point x="1177" y="1680" type="line"/>
      <point x="510" y="82" type="line"/>
      <point x="530" y="82" type="line"/>
      <point x="445" y="477" type="line"/>
      <point x="54" y="437" type="line"/>
      <point x="56" y="389" type="line"/>
      <point x="386" y="419" type="line"/>
      <point x="365" y="435" type="line"/>
    </contour>
  </outline>
</glyph>
<glyph name="infinity" format="2">
  <advance width="1356"/>
  <unicode hex="221E"/>
  <outline>
    <contour>
      <point x="323" y="189" type="curve" smooth="yes"/>
      <point x="448" y="189"/>
      <point x="598" y="241"/>
      <point x="674" y="416" type="curve"/>
      <point x="666" y="416" type="line"/>
      <point x="693" y="241"/>
      <point x="827" y="189"/>
      <point x="952" y="189" type="curve" smooth="yes"/>
      <point x="1115" y="189"/>
      <point x="1268" y="278"/>
      <point x="1296" y="479" type="curve" smooth="yes"/>
      <point x="1324" y="680"/>
      <point x="1197" y="769"/>
      <point x="1034" y="769" type="curve" smooth="yes"/>
      <point x="909" y="769"/>
      <point x="759" y="717"/>
      <point x="684" y="542" type="curve"/>
      <point x="692" y="542" type="line"/>
      <point x="664" y="717"/>
      <point x="530" y="769"/>
      <point x="405" y="769" type="curve" smooth="yes"/>
      <point x="242" y="769"/>
      <point x="89" y="680"/>
      <point x="61" y="479" type="curve" smooth="yes"/>
      <point x="33" y="278"/>
      <point x="160" y="189"/>
    </contour>
    <contour>
      <point x="336" y="237" type="curve" smooth="yes"/>
      <point x="197" y="237"/>
      <point x="102" y="321"/>
      <point x="124" y="479" type="curve" smooth="yes"/>
      <point x="146" y="637"/>
      <point x="265" y="721"/>
      <point x="404" y="721" type="curve" smooth="yes"/>
      <point x="541" y="721"/>
      <point x="638" y="638"/>
      <point x="665" y="467" type="curve"/>
      <point x="669" y="491" type="line"/>
      <point x="594" y="320"/>
      <point x="473" y="237"/>
    </contour>
    <contour>
      <point x="953" y="237" type="curve" smooth="yes"/>
      <point x="816" y="237"/>
      <point x="719" y="320"/>
      <point x="692" y="491" type="curve"/>
      <point x="688" y="467" type="line"/>
      <point x="763" y="638"/>
      <point x="884" y="721"/>
      <point x="1021" y="721" type="curve" smooth="yes"/>
      <point x="1160" y="721"/>
      <point x="1255" y="637"/>
      <point x="1233" y="479" type="curve" smooth="yes"/>
      <point x="1211" y="321"/>
      <point x="1092" y="237"/>
    </contour>
  </outline>
</glyph>
<glyph name="integral" format="2">
  <advance width="1200"/>
  <unicode hex="222B"/>
  <outline>
    <contour>
      <point x="197" y="-376" type="line"/>
      <point x="242" y="-394"/>
      <point x="285" y="-400"/>
      <point x="328" y="-400" type="curve" smooth="yes"/>
      <point x="474" y="-400"/>
      <point x="582" y="-322"/>
      <point x="594" y="-152" type="curve" smooth="yes"/>
      <point x="682" y="1120" type="line" smooth="yes"/>
      <point x="693" y="1279"/>
      <point x="791" y="1307"/>
      <point x="863" y="1307" type="curve" smooth="yes"/>
      <point x="901" y="1307"/>
      <point x="944" y="1299"/>
      <point x="989" y="1279" type="curve"/>
      <point x="1007" y="1344" type="line"/>
      <point x="962" y="1362"/>
      <point x="919" y="1368"/>
      <point x="876" y="1368" type="curve" smooth="yes"/>
      <point x="730" y="1368"/>
      <point x="622" y="1290"/>
      <point x="610" y="1120" type="curve" smooth="yes"/>
      <point x="522" y="-152" type="line" smooth="yes"/>
      <point x="511" y="-311"/>
      <point x="413" y="-339"/>
      <point x="341" y="-339" type="curve" smooth="yes"/>
      <point x="303" y="-339"/>
      <point x="260" y="-331"/>
      <point x="215" y="-311" type="curve"/>
    </contour>
  </outline>
</glyph>
<glyph name="approxequal" format="2">
  <advance width="817"/>
  <unicode hex="2248"/>
  <anchor x="487" y="343" name="_above"/>
  <outline>
    <contour>
      <point x="170" y="480" type="line"/>
      <point x="203" y="562"/>
      <point x="245" y="594"/>
      <point x="288" y="594" type="curve" smooth="yes"/>
      <point x="318" y="594"/>
      <point x="343" y="579"/>
      <point x="449" y="533" type="curve" smooth="yes"/>
      <point x="567" y="482"/>
      <point x="593" y="475"/>
      <point x="618" y="475" type="curve" smooth="yes"/>
      <point x="683" y="475"/>
      <point x="736" y="525"/>
      <point x="785" y="642" type="curve"/>
      <point x="752" y="665" type="line"/>
      <point x="706" y="578"/>
      <point x="663" y="549"/>
      <point x="614" y="549" type="curve" smooth="yes"/>
      <point x="588" y="549"/>
      <point x="568" y="557"/>
      <point x="459" y="606" type="curve" smooth="yes"/>
      <point x="363" y="649"/>
      <point x="335" y="661"/>
      <point x="302" y="661" type="curve" smooth="yes"/>
      <point x="236" y="661"/>
      <point x="173" y="612"/>
      <point x="126" y="502" type="curve"/>
    </contour>
    <contour>
      <point x="135" y="184" type="line"/>
      <point x="168" y="266"/>
      <point x="210" y="298"/>
      <point x="253" y="298" type="curve" smooth="yes"/>
      <point x="283" y="298"/>
      <point x="308" y="283"/>
      <point x="414" y="237" type="curve" smooth="yes"/>
      <point x="532" y="186"/>
      <point x="558" y="179"/>
      <point x="583" y="179" type="curve" smooth="yes"/>
      <point x="648" y="179"/>
      <point x="701" y="229"/>
      <point x="750" y="346" type="curve"/>
      <point x="717" y="369" type="line"/>
      <point x="671" y="282"/>
      <point x="628" y="253"/>
      <point x="579" y="253" type="curve" smooth="yes"/>
      <point x="553" y="253"/>
      <point x="533" y="261"/>
      <point x="424" y="310" type="curve" smooth="yes"/>
      <point x="328" y="353"/>
      <point x="300" y="365"/>
      <point x="267" y="365" type="curve" smooth="yes"/>
      <point x="201" y="365"/>
      <point x="138" y="316"/>
      <point x="91" y="206" type="curve"/>
    </contour>
  </outline>
</glyph>
<glyph name="notequal" format="2">
  <advance width="843"/>
  <unicode hex="2260"/>
  <outline>
    <contour>
      <point x="144" y="342" type="line"/>
      <point x="141" y="282" type="line"/>
      <point x="700" y="282" type="line"/>
      <point x="703" y="342" type="line"/>
    </contour>
    <contour>
      <point x="175" y="647" type="line"/>
      <point x="170" y="580" type="line"/>
      <point x="729" y="580" type="line"/>
      <point x="735" y="647" type="line"/>
    </contour>
    <contour>
      <point x="241" y="111" type="line"/>
      <point x="311" y="111" type="line"/>
      <point x="659" y="853" type="line"/>
      <point x="582" y="853" type="line"/>
    </contour>
  </outline>
</glyph>
<glyph name="lessequal" format="2">
  <advance width="843"/>
  <unicode hex="2264"/>
  <outline>
    <contour>
      <point x="710" y="237" type="line"/>
      <point x="736" y="298" type="line"/>
      <point x="163" y="533" type="line"/>
      <point x="145" y="485" type="line"/>
      <point x="705" y="735" type="line"/>
      <point x="675" y="799" type="line"/>
      <point x="102" y="530" type="line"/>
      <point x="118" y="479" type="line"/>
    </contour>
    <component base="minus" xOffset="-69" yOffset="-461"/>
  </outline>
</glyph>
<glyph name="greaterequal" format="2">
  <advance width="725"/>
  <unicode hex="2265"/>
  <outline>
    <contour>
      <point x="78" y="265" type="line"/>
      <point x="675" y="471" type="line"/>
      <point x="679" y="522" type="line"/>
      <point x="83" y="803" type="line"/>
      <point x="63" y="744" type="line"/>
      <point x="622" y="477" type="line"/>
      <point x="642" y="517" type="line"/>
      <point x="63" y="320" type="line"/>
    </contour>
    <component base="minus" xOffset="-138" yOffset="-461"/>
  </outline>
</glyph>
<glyph name="lozenge" format="2">
  <advance width="852"/>
  <unicode hex="25CA"/>
  <outline>
    <contour>
      <point x="157" y="607" type="line"/>
      <point x="409" y="0" type="line"/>
      <point x="461" y="0" type="line"/>
      <point x="817" y="607" type="line"/>
      <point x="567" y="1213" type="line"/>
      <point x="515" y="1213" type="line"/>
    </contour>
    <contour>
      <point x="237" y="592" type="line"/>
      <point x="541" y="1129" type="line"/>
      <point x="527" y="1129" type="line"/>
      <point x="735" y="592" type="line"/>
      <point x="737" y="622" type="line"/>
      <point x="435" y="84" type="line"/>
      <point x="449" y="84" type="line"/>
      <point x="239" y="622" type="line"/>
    </contour>
  </outline>
</glyph>
<glyph name="asterisk.tf" format="2">
  <advance width="729"/>
  <outline>
    <contour>
      <point x="267" y="759" type="line"/>
      <point x="440" y="973" type="line"/>
      <point x="575" y="759" type="line"/>
      <point x="630" y="811" type="line"/>
      <point x="480" y="1004" type="line"/>
      <point x="709" y="1090" type="line"/>
      <point x="688" y="1161" type="line"/>
      <point x="470" y="1049" type="line"/>
      <point x="510" y="1325" type="line"/>
      <point x="433" y="1325" type="line"/>
      <point x="425" y="1049" type="line"/>
      <point x="234" y="1166" type="line"/>
      <point x="193" y="1092" type="line"/>
      <point x="406" y="1006" type="line"/>
      <point x="215" y="811" type="line"/>
    </contour>
  </outline>
</glyph>
<glyph name="backslash.tf" format="2">
  <advance width="1200"/>
  <outline>
    <contour>
      <point x="863" y="-131" type="line"/>
      <point x="926" y="-131" type="line"/>
      <point x="335" y="1429" type="line"/>
      <point x="274" y="1429" type="line"/>
    </contour>
  </outline>
</glyph>
<glyph name="colon.tf" format="2">
  <advance width="535"/>
  <outline>
    <contour>
      <point x="291" y="710" type="curve" smooth="yes"/>
      <point x="324" y="710"/>
      <point x="350" y="743"/>
      <point x="354" y="772" type="curve" smooth="yes"/>
      <point x="359" y="809"/>
      <point x="335" y="838"/>
      <point x="299" y="838" type="curve" smooth="yes"/>
      <point x="257" y="838"/>
      <point x="237" y="797"/>
      <point x="236" y="772" type="curve" smooth="yes"/>
      <point x="235" y="740"/>
      <point x="260" y="710"/>
    </contour>
    <contour>
      <point x="233" y="79" type="curve" smooth="yes"/>
      <point x="266" y="79"/>
      <point x="292" y="111"/>
      <point x="296" y="141" type="curve" smooth="yes"/>
      <point x="301" y="178"/>
      <point x="277" y="207"/>
      <point x="242" y="207" type="curve" smooth="yes"/>
      <point x="204" y="207"/>
      <point x="180" y="174"/>
      <point x="178" y="141" type="curve" smooth="yes"/>
      <point x="176" y="111"/>
      <point x="200" y="79"/>
    </contour>
  </outline>
</glyph>
<glyph name="comma.tf" format="2">
  <advance width="550"/>
  <outline>
    <contour>
      <point x="160" y="-159" type="line"/>
      <point x="248" y="-114"/>
      <point x="284" y="-41"/>
      <point x="288" y="16" type="curve" smooth="yes"/>
      <point x="292" y="72"/>
      <point x="265" y="109"/>
      <point x="225" y="109" type="curve" smooth="yes"/>
      <point x="190" y="109"/>
      <point x="167" y="83"/>
      <point x="164" y="53" type="curve" smooth="yes"/>
      <point x="160" y="10"/>
      <point x="187" y="-13"/>
      <point x="230" y="-10" type="curve"/>
      <point x="212" y="-67"/>
      <point x="174" y="-107"/>
      <point x="112" y="-134" type="curve"/>
    </contour>
  </outline>
</glyph>
<glyph name="eight.tf" format="2">
  <advance width="1200"/>
  <outline>
    <contour>
      <point x="560" y="-15" type="curve" smooth="yes"/>
      <point x="820" y="-15"/>
      <point x="987" y="99"/>
      <point x="1007" y="281" type="curve" smooth="yes"/>
      <point x="1023" y="433"/>
      <point x="952" y="536"/>
      <point x="792" y="582" type="curve" smooth="yes"/>
      <point x="738" y="603" type="line"/>
      <point x="911" y="629"/>
      <point x="1007" y="764"/>
      <point x="1019" y="906" type="curve" smooth="yes"/>
      <point x="1034" y="1089"/>
      <point x="902" y="1232"/>
      <point x="684" y="1232" type="curve" smooth="yes"/>
      <point x="446" y="1232"/>
      <point x="287" y="1088"/>
      <point x="275" y="920" type="curve" smooth="yes"/>
      <point x="263" y="769"/>
      <point x="371" y="679"/>
      <point x="465" y="634" type="curve"/>
      <point x="309" y="603"/>
      <point x="197" y="487"/>
      <point x="186" y="321" type="curve" smooth="yes"/>
      <point x="172" y="126"/>
      <point x="331" y="-15"/>
    </contour>
    <contour>
      <point x="572" y="48" type="curve" smooth="yes"/>
      <point x="374" y="48"/>
      <point x="235" y="145"/>
      <point x="253" y="324" type="curve" smooth="yes"/>
      <point x="265" y="451"/>
      <point x="378" y="573"/>
      <point x="543" y="602" type="curve"/>
      <point x="756" y="511" type="line" smooth="yes"/>
      <point x="872" y="465"/>
      <point x="949" y="394"/>
      <point x="937" y="286" type="curve" smooth="yes"/>
      <point x="923" y="144"/>
      <point x="775" y="48"/>
    </contour>
    <contour>
      <point x="646" y="643" type="curve"/>
      <point x="522" y="697" type="line" smooth="yes"/>
      <point x="408" y="748"/>
      <point x="341" y="802"/>
      <point x="349" y="918" type="curve" smooth="yes"/>
      <point x="368" y="1050"/>
      <point x="499" y="1164"/>
      <point x="672" y="1164" type="curve" smooth="yes"/>
      <point x="856" y="1164"/>
      <point x="969" y="1055"/>
      <point x="953" y="907" type="curve" smooth="yes"/>
      <point x="937" y="755"/>
      <point x="812" y="649"/>
    </contour>
  </outline>
</glyph>
<glyph name="exclam.tf" format="2">
  <advance width="535"/>
  <outline>
    <contour>
      <point x="218" y="259" type="line"/>
      <point x="262" y="259" type="line"/>
      <point x="353" y="1174" type="line"/>
      <point x="296" y="1174" type="line"/>
    </contour>
    <contour>
      <point x="212" y="-18" type="curve" smooth="yes"/>
      <point x="248" y="-18"/>
      <point x="273" y="17"/>
      <point x="277" y="44" type="curve" smooth="yes"/>
      <point x="282" y="81"/>
      <point x="256" y="110"/>
      <point x="223" y="110" type="curve" smooth="yes"/>
      <point x="186" y="110"/>
      <point x="159" y="73"/>
      <point x="157" y="44" type="curve" smooth="yes"/>
      <point x="155" y="12"/>
      <point x="179" y="-18"/>
    </contour>
  </outline>
</glyph>
<glyph name="five.propold" format="2">
  <advance width="985"/>
  <outline>
    <contour>
      <point x="434" y="-217" type="curve" smooth="yes"/>
      <point x="671" y="-217"/>
      <point x="845" y="-42"/>
      <point x="867" y="192" type="curve" smooth="yes"/>
      <point x="891" y="430"/>
      <point x="755" y="562"/>
      <point x="505" y="562" type="curve" smooth="yes"/>
      <point x="458" y="562"/>
      <point x="394" y="560"/>
      <point x="336" y="549" type="curve"/>
      <point x="410" y="950" type="line"/>
      <point x="894" y="950" type="line"/>
      <point x="903" y="1012" type="line"/>
      <point x="351" y="1012" type="line"/>
      <point x="260" y="499" type="line"/>
      <point x="509" y="499" type="line" smooth="yes"/>
      <point x="712" y="499"/>
      <point x="813" y="378"/>
      <point x="797" y="192" type="curve" smooth="yes"/>
      <point x="779" y="1"/>
      <point x="631" y="-151"/>
      <point x="437" y="-151" type="curve" smooth="yes"/>
      <point x="282" y="-151"/>
      <point x="187" y="-56"/>
      <point x="201" y="113" type="curve"/>
      <point x="143" y="113" type="line"/>
      <point x="119" y="-103"/>
      <point x="257" y="-217"/>
    </contour>
  </outline>
</glyph>
<glyph name="five.tf" format="2">
  <advance width="1200"/>
  <outline>
    <contour>
      <point x="540" y="-15" type="curve" smooth="yes"/>
      <point x="770" y="-15"/>
      <point x="920" y="149"/>
      <point x="947" y="382" type="curve" smooth="yes"/>
      <point x="975" y="616"/>
      <point x="831" y="729"/>
      <point x="578" y="729" type="curve" smooth="yes"/>
      <point x="526" y="729"/>
      <point x="463" y="721"/>
      <point x="407" y="711" type="curve"/>
      <point x="486" y="1149" type="line"/>
      <point x="972" y="1149" type="line"/>
      <point x="979" y="1215" type="line"/>
      <point x="429" y="1215" type="line"/>
      <point x="330" y="663" type="line"/>
      <point x="577" y="663" type="line" smooth="yes"/>
      <point x="783" y="663"/>
      <point x="891" y="566"/>
      <point x="875" y="382" type="curve" smooth="yes"/>
      <point x="858" y="190"/>
      <point x="738" y="48"/>
      <point x="547" y="48" type="curve" smooth="yes"/>
      <point x="388" y="48"/>
      <point x="266" y="141"/>
      <point x="282" y="309" type="curve"/>
      <point x="223" y="309" type="line"/>
      <point x="199" y="93"/>
      <point x="367" y="-15"/>
    </contour>
  </outline>
</glyph>
<glyph name="four.propold" format="2">
  <advance width="939"/>
  <outline>
    <contour>
      <point x="610" y="-203" type="line"/>
      <point x="668" y="-203" type="line"/>
      <point x="702" y="119" type="line"/>
      <point x="891" y="119" type="line"/>
      <point x="897" y="177" type="line"/>
      <point x="707" y="177" type="line"/>
      <point x="792" y="1031" type="line"/>
      <point x="738" y="1031" type="line"/>
      <point x="71" y="180" type="line"/>
      <point x="63" y="119" type="line"/>
      <point x="642" y="119" type="line"/>
    </contour>
    <contour>
      <point x="150" y="180" type="line"/>
      <point x="710" y="890" type="line"/>
      <point x="647" y="180" type="line"/>
    </contour>
  </outline>
</glyph>
<glyph name="four.tf" format="2">
  <advance width="1200"/>
  <outline>
    <contour>
      <point x="857" y="1237" type="line"/>
      <point x="187" y="383" type="line"/>
      <point x="180" y="321" type="line"/>
      <point x="755" y="321" type="line"/>
      <point x="729" y="0" type="line"/>
      <point x="789" y="0" type="line"/>
      <point x="817" y="321" type="line"/>
      <point x="1006" y="321" type="line"/>
      <point x="1016" y="386" type="line"/>
      <point x="827" y="386" type="line"/>
      <point x="907" y="1237" type="line"/>
    </contour>
    <contour>
      <point x="825" y="1095" type="line"/>
      <point x="758" y="383" type="line"/>
      <point x="268" y="383" type="line"/>
    </contour>
  </outline>
</glyph>
<glyph name="nine.propold" format="2">
  <advance width="988"/>
  <outline>
    <contour>
      <point x="464" y="-217" type="curve" smooth="yes"/>
      <point x="750" y="-217"/>
      <point x="891" y="34"/>
      <point x="931" y="432" type="curve" smooth="yes"/>
      <point x="965" y="803"/>
      <point x="818" y="1033"/>
      <point x="580" y="1033" type="curve" smooth="yes"/>
      <point x="378" y="1033"/>
      <point x="226" y="888"/>
      <point x="210" y="671" type="curve" smooth="yes"/>
      <point x="188" y="454"/>
      <point x="327" y="297"/>
      <point x="512" y="297" type="curve" smooth="yes"/>
      <point x="699" y="297"/>
      <point x="831" y="430"/>
      <point x="862" y="638" type="curve"/>
      <point x="867" y="569"/>
      <point x="860" y="517"/>
      <point x="863" y="459" type="curve"/>
      <point x="818" y="78"/>
      <point x="704" y="-151"/>
      <point x="468" y="-151" type="curve" smooth="yes"/>
      <point x="291" y="-151"/>
      <point x="204" y="-25"/>
      <point x="225" y="159" type="curve"/>
      <point x="153" y="159" type="line"/>
      <point x="133" y="-51"/>
      <point x="258" y="-217"/>
    </contour>
    <contour>
      <point x="524" y="378" type="curve" smooth="yes"/>
      <point x="361" y="378"/>
      <point x="259" y="487"/>
      <point x="276" y="671" type="curve" smooth="yes"/>
      <point x="296" y="858"/>
      <point x="417" y="964"/>
      <point x="577" y="964" type="curve" smooth="yes"/>
      <point x="736" y="964"/>
      <point x="840" y="858"/>
      <point x="823" y="671" type="curve" smooth="yes"/>
      <point x="805" y="514"/>
      <point x="679" y="378"/>
    </contour>
  </outline>
</glyph>
<glyph name="nine.tf" format="2">
  <advance width="1200"/>
  <outline>
    <contour>
      <point x="522" y="-15" type="curve" smooth="yes"/>
      <point x="802" y="-15"/>
      <point x="949" y="227"/>
      <point x="987" y="632" type="curve" smooth="yes"/>
      <point x="1021" y="1004"/>
      <point x="879" y="1232"/>
      <point x="641" y="1232" type="curve" smooth="yes"/>
      <point x="438" y="1232"/>
      <point x="284" y="1089"/>
      <point x="264" y="874" type="curve" smooth="yes"/>
      <point x="244" y="655"/>
      <point x="384" y="498"/>
      <point x="575" y="498" type="curve" smooth="yes"/>
      <point x="756" y="498"/>
      <point x="890" y="626"/>
      <point x="921" y="837" type="curve"/>
      <point x="923" y="770"/>
      <point x="921" y="722"/>
      <point x="917" y="657" type="curve" smooth="yes"/>
      <point x="895" y="284"/>
      <point x="757" y="48"/>
      <point x="528" y="48" type="curve" smooth="yes"/>
      <point x="353" y="48"/>
      <point x="267" y="172"/>
      <point x="283" y="359" type="curve"/>
      <point x="211" y="359" type="line"/>
      <point x="191" y="148"/>
      <point x="311" y="-15"/>
    </contour>
    <contour>
      <point x="580" y="575" type="curve" smooth="yes"/>
      <point x="416" y="575"/>
      <point x="316" y="689"/>
      <point x="334" y="869" type="curve" smooth="yes"/>
      <point x="352" y="1053"/>
      <point x="473" y="1162"/>
      <point x="633" y="1162" type="curve" smooth="yes"/>
      <point x="795" y="1162"/>
      <point x="894" y="1053"/>
      <point x="877" y="869" type="curve" smooth="yes"/>
      <point x="865" y="709"/>
      <point x="738" y="575"/>
    </contour>
  </outline>
</glyph>
<glyph name="numbersign.tf" format="2">
  <advance width="1200"/>
  <outline>
    <contour>
      <point x="279" y="58" type="line"/>
      <point x="337" y="58" type="line"/>
      <point x="391" y="353" type="line"/>
      <point x="702" y="353" type="line"/>
      <point x="648" y="58" type="line"/>
      <point x="710" y="58" type="line"/>
      <point x="764" y="353" type="line"/>
      <point x="963" y="353" type="line"/>
      <point x="972" y="411" type="line"/>
      <point x="775" y="411" type="line"/>
      <point x="852" y="811" type="line"/>
      <point x="1053" y="811" type="line"/>
      <point x="1058" y="862" type="line"/>
      <point x="861" y="862" type="line"/>
      <point x="915" y="1158" type="line"/>
      <point x="857" y="1158" type="line"/>
      <point x="803" y="862" type="line"/>
      <point x="492" y="862" type="line"/>
      <point x="546" y="1158" type="line"/>
      <point x="484" y="1158" type="line"/>
      <point x="430" y="862" type="line"/>
      <point x="231" y="862" type="line"/>
      <point x="221" y="811" type="line"/>
      <point x="421" y="811" type="line"/>
      <point x="344" y="411" type="line"/>
      <point x="149" y="411" type="line"/>
      <point x="135" y="353" type="line"/>
      <point x="333" y="353" type="line"/>
    </contour>
    <contour>
      <point x="406" y="411" type="line"/>
      <point x="483" y="811" type="line"/>
      <point x="794" y="811" type="line"/>
      <point x="717" y="411" type="line"/>
    </contour>
  </outline>
</glyph>
<glyph name="one.propold" format="2">
  <advance width="546"/>
  <outline>
    <contour>
      <point x="289" y="0" type="line"/>
      <point x="349" y="0" type="line"/>
      <point x="440" y="1017" type="line"/>
      <point x="376" y="1017" type="line"/>
      <point x="328" y="961"/>
      <point x="258" y="929"/>
      <point x="189" y="915" type="curve"/>
      <point x="181" y="841" type="line"/>
      <point x="241" y="843"/>
      <point x="314" y="876"/>
      <point x="371" y="927" type="curve"/>
    </contour>
  </outline>
</glyph>
<glyph name="one.tf" format="2">
  <advance width="1200"/>
  <outline>
    <contour>
      <point x="221" y="0" type="line"/>
      <point x="895" y="0" type="line"/>
      <point x="899" y="70" type="line"/>
      <point x="555" y="70" type="line"/>
      <point x="661" y="1214" type="line"/>
      <point x="597" y="1214" type="line"/>
      <point x="544" y="1157"/>
      <point x="472" y="1124"/>
      <point x="403" y="1117" type="curve"/>
      <point x="395" y="1037" type="line"/>
      <point x="455" y="1045"/>
      <point x="532" y="1078"/>
      <point x="592" y="1128" type="curve"/>
      <point x="495" y="70" type="line"/>
      <point x="225" y="70" type="line"/>
    </contour>
  </outline>
</glyph>
<glyph name="period.tf" format="2">
  <advance width="463"/>
  <outline>
    <contour>
      <point x="167" y="-18" type="curve" smooth="yes"/>
      <point x="200" y="-18"/>
      <point x="226" y="15"/>
      <point x="230" y="44" type="curve" smooth="yes"/>
      <point x="235" y="83"/>
      <point x="210" y="110"/>
      <point x="176" y="110" type="curve" smooth="yes"/>
      <point x="132" y="110"/>
      <point x="114" y="65"/>
      <point x="112" y="44" type="curve" smooth="yes"/>
      <point x="109" y="9"/>
      <point x="138" y="-18"/>
    </contour>
  </outline>
</glyph>
<glyph name="plus.tf" format="2">
  <advance width="1200"/>
  <outline>
    <contour>
      <point x="523" y="0" type="line"/>
      <point x="589" y="0" type="line"/>
      <point x="629" y="463" type="line"/>
      <point x="1025" y="463" type="line"/>
      <point x="1028" y="519" type="line"/>
      <point x="637" y="519" type="line"/>
      <point x="681" y="982" type="line"/>
      <point x="611" y="982" type="line"/>
      <point x="571" y="519" type="line"/>
      <point x="177" y="519" type="line"/>
      <point x="174" y="463" type="line"/>
      <point x="563" y="463" type="line"/>
    </contour>
  </outline>
</glyph>
<glyph name="question.tf" format="2">
  <advance width="1000"/>
  <outline>
    <contour>
      <point x="414" y="250" type="line"/>
      <point x="473" y="250" type="line"/>
      <point x="486" y="350" type="line" smooth="yes"/>
      <point x="509" y="524"/>
      <point x="546" y="549"/>
      <point x="674" y="629" type="curve" smooth="yes"/>
      <point x="777" y="693"/>
      <point x="896" y="767"/>
      <point x="909" y="937" type="curve" smooth="yes"/>
      <point x="922" y="1103"/>
      <point x="814" y="1232"/>
      <point x="598" y="1232" type="curve" smooth="yes"/>
      <point x="396" y="1232"/>
      <point x="256" y="1120"/>
      <point x="225" y="965" type="curve"/>
      <point x="303" y="965" type="line"/>
      <point x="344" y="1093"/>
      <point x="432" y="1164"/>
      <point x="591" y="1164" type="curve" smooth="yes"/>
      <point x="775" y="1164"/>
      <point x="849" y="1069"/>
      <point x="842" y="943" type="curve" smooth="yes"/>
      <point x="835" y="809"/>
      <point x="754" y="758"/>
      <point x="633" y="682" type="curve" smooth="yes"/>
      <point x="479" y="585"/>
      <point x="436" y="524"/>
      <point x="422" y="351" type="curve" smooth="yes"/>
    </contour>
    <contour>
      <point x="416" y="-15" type="curve" smooth="yes"/>
      <point x="448" y="-15"/>
      <point x="481" y="11"/>
      <point x="486" y="48" type="curve" smooth="yes"/>
      <point x="490" y="76"/>
      <point x="479" y="115"/>
      <point x="433" y="115" type="curve" smooth="yes"/>
      <point x="394" y="115"/>
      <point x="373" y="88"/>
      <point x="368" y="54" type="curve" smooth="yes"/>
      <point x="362" y="11"/>
      <point x="384" y="-15"/>
    </contour>
  </outline>
</glyph>
<glyph name="semicolon.tf" format="2">
  <advance width="535"/>
  <outline>
    <contour>
      <point x="158" y="-159" type="line"/>
      <point x="244" y="-116"/>
      <point x="282" y="-40"/>
      <point x="287" y="16" type="curve" smooth="yes"/>
      <point x="292" y="71"/>
      <point x="265" y="109"/>
      <point x="223" y="109" type="curve" smooth="yes"/>
      <point x="190" y="109"/>
      <point x="165" y="87"/>
      <point x="162" y="53" type="curve" smooth="yes"/>
      <point x="158" y="11"/>
      <point x="185" y="-13"/>
      <point x="228" y="-10" type="curve"/>
      <point x="210" y="-67"/>
      <point x="171" y="-107"/>
      <point x="110" y="-134" type="curve"/>
    </contour>
    <contour>
      <point x="282" y="710" type="curve" smooth="yes"/>
      <point x="316" y="710"/>
      <point x="342" y="743"/>
      <point x="346" y="772" type="curve" smooth="yes"/>
      <point x="351" y="805"/>
      <point x="330" y="838"/>
      <point x="291" y="838" type="curve" smooth="yes"/>
      <point x="249" y="838"/>
      <point x="229" y="798"/>
      <point x="228" y="772" type="curve" smooth="yes"/>
      <point x="227" y="739"/>
      <point x="251" y="710"/>
    </contour>
  </outline>
</glyph>
<glyph name="seven.propold" format="2">
  <advance width="792"/>
  <outline>
    <contour>
      <point x="139" y="1033" type="line"/>
      <point x="134" y="964" type="line"/>
      <point x="774" y="964" type="line"/>
      <point x="119" y="-183" type="line"/>
      <point x="200" y="-183" type="line"/>
      <point x="850" y="975" type="line"/>
      <point x="853" y="1033" type="line"/>
    </contour>
  </outline>
</glyph>
<glyph name="seven.tf" format="2">
  <advance width="1200"/>
  <outline>
    <contour>
      <point x="227" y="0" type="line"/>
      <point x="317" y="0" type="line"/>
      <point x="965" y="1155" type="line"/>
      <point x="971" y="1215" type="line"/>
      <point x="255" y="1215" type="line"/>
      <point x="250" y="1145" type="line"/>
      <point x="890" y="1145" type="line"/>
    </contour>
  </outline>
</glyph>
<glyph name="six.propold" format="2">
  <advance width="967"/>
  <outline>
    <contour>
      <point x="495" y="-20" type="curve" smooth="yes"/>
      <point x="703" y="-20"/>
      <point x="853" y="125"/>
      <point x="877" y="342" type="curve" smooth="yes"/>
      <point x="895" y="561"/>
      <point x="751" y="717"/>
      <point x="564" y="717" type="curve" smooth="yes"/>
      <point x="402" y="717"/>
      <point x="241" y="620"/>
      <point x="208" y="334" type="curve"/>
      <point x="175" y="835"/>
      <point x="384" y="1164"/>
      <point x="639" y="1164" type="curve" smooth="yes"/>
      <point x="781" y="1164"/>
      <point x="842" y="1075"/>
      <point x="854" y="938" type="curve"/>
      <point x="926" y="938" type="line"/>
      <point x="917" y="1109"/>
      <point x="821" y="1232"/>
      <point x="647" y="1232" type="curve" smooth="yes"/>
      <point x="370" y="1232"/>
      <point x="192" y="978"/>
      <point x="155" y="584" type="curve" smooth="yes"/>
      <point x="127" y="248"/>
      <point x="246" y="-20"/>
    </contour>
    <contour>
      <point x="502" y="48" type="curve" smooth="yes"/>
      <point x="351" y="48"/>
      <point x="243" y="157"/>
      <point x="260" y="344" type="curve" smooth="yes"/>
      <point x="274" y="501"/>
      <point x="403" y="635"/>
      <point x="561" y="635" type="curve" smooth="yes"/>
      <point x="721" y="635"/>
      <point x="824" y="524"/>
      <point x="807" y="344" type="curve" smooth="yes"/>
      <point x="791" y="157"/>
      <point x="666" y="48"/>
    </contour>
  </outline>
</glyph>
<glyph name="six.tf" format="2">
  <advance width="1200"/>
  <outline>
    <contour>
      <point x="553" y="-20" type="curve" smooth="yes"/>
      <point x="762" y="-20"/>
      <point x="912" y="125"/>
      <point x="936" y="342" type="curve" smooth="yes"/>
      <point x="954" y="561"/>
      <point x="810" y="717"/>
      <point x="623" y="717" type="curve" smooth="yes"/>
      <point x="461" y="717"/>
      <point x="300" y="620"/>
      <point x="267" y="334" type="curve"/>
      <point x="234" y="835"/>
      <point x="442" y="1164"/>
      <point x="698" y="1164" type="curve" smooth="yes"/>
      <point x="840" y="1164"/>
      <point x="900" y="1075"/>
      <point x="913" y="938" type="curve"/>
      <point x="984" y="938" type="line"/>
      <point x="976" y="1109"/>
      <point x="880" y="1232"/>
      <point x="706" y="1232" type="curve" smooth="yes"/>
      <point x="429" y="1232"/>
      <point x="251" y="978"/>
      <point x="213" y="584" type="curve" smooth="yes"/>
      <point x="181" y="248"/>
      <point x="305" y="-20"/>
    </contour>
    <contour>
      <point x="561" y="48" type="curve" smooth="yes"/>
      <point x="409" y="48"/>
      <point x="302" y="157"/>
      <point x="318" y="344" type="curve" smooth="yes"/>
      <point x="330" y="501"/>
      <point x="462" y="635"/>
      <point x="620" y="635" type="curve"/>
      <point x="620" y="635" type="line" smooth="yes"/>
      <point x="780" y="635"/>
      <point x="882" y="524"/>
      <point x="866" y="344" type="curve" smooth="yes"/>
      <point x="850" y="157"/>
      <point x="725" y="48"/>
    </contour>
  </outline>
</glyph>
<glyph name="slash.tf" format="2">
  <advance width="1200"/>
  <outline>
    <contour>
      <point x="274" y="-129" type="line"/>
      <point x="335" y="-129" type="line"/>
      <point x="926" y="1432" type="line"/>
      <point x="863" y="1432" type="line"/>
    </contour>
  </outline>
</glyph>
